<?xml version="1.0" encoding="UTF-8"?>
<svg id="Layer_1" xmlns="http://www.w3.org/2000/svg" version="1.1" viewBox="0 0 430.09 536.8">
  <!-- Generator: Adobe Illustrator 30.5.1, SVG Export Plug-In . SVG Version: 2.1.4 Build 3)  -->
  <defs>
    <style>
      .st0 {
        fill: #46676e;
        stroke: #46676e;
        stroke-miterlimit: 10;
      }

      .st1 {
        fill: #f8f8f8;
      }
    </style>
  </defs>
  <path class="st1" d="M350.28,298.17l-3.4-12.6-14.55-12.34-6.81-1.61-5.62,1.44-5.28,6.4-1.53,3.81,5.02,8.94,5.45,7.32,4.94.77,1.7-4.34-1.7-3.49s-.94-3.23-.94-3.49-.6-3.57-.6-3.57l5.11,2.89,6.64,5.83,4.17,7.54,2.38,2.89h4.17l1.96-4-1.11-2.38Z"/>
  <path class="st1" d="M174.62,159.32c3.78-.51,7.94.17,11.37,2.54.06.34-.46.69-.84.67-.79-.53-2.36-1.21-3.8-.32,3.23.91,5.63,3.03,8.54,4.65,3.3,1.83,12.73,1.16,12.51-3.42-3.29,3.09-8.63,3.99-12.66,1.91-1.14-.59-2.02-2.19-2.59-3.04-2.04-3.04-5.61-4.03-9.2-4.24l-1.04-.06c-.41-.79-2.09-.75-2.38.11l-.55.09c-1.24.21-3.05-.12-4.46.78-2.52,1.61-4.54,4.1-5.62,7.16,3.93-2.28,6.57-5.08,10.18-6.7.16-.07.33-.12.54-.13Z"/>
  <path class="st1" d="M204.48,135.61l-5.6,1.71,1.14,9.6c2.51-.03,4.36-.57,6.17-1.4-1.87-3.42-1.37-6.46-1.7-9.91Z"/>
  <path class="st1" d="M192.8,135.28c.12.3.39.51.71.55.32.04.63-.1.84-.36,1.35-3.1.37-5.57.22-8.68-.19-3.95,1.49-8.12,3.76-11.24-1.72,6.52-2.29,13.14-1.07,19.1l3.61-1.16c-1.06-7.17-3.22-18.58,1.8-22.81-2.18,6.79-1.91,16.09.49,22.29,1.62-.43,2.45-.52,3.25-.98,1.88-1.08-4.31-10.37-1.26-19.16,1.54,2.07.14,4.35.66,6.26l3.34,12.14,5.07-1.63c-2.39-5.01-5.48-14.86-3.61-19.34,1.42,6.87,2.89,13.04,5.65,19.1,1.96-1.18,3.38-1.61,5.65-2.16l-6.62-14.36c-.29-.63-.74-1.89.13-2.4l6.83,12.77c.56,1.04.55,2.38,1.65,3.33l6.92-2.49c.34-1.74-.89-2.96-1.57-4.52l-2.8-6.4-5.7-8.01c4.66,2.58,6.75,7.25,9.08,11.37l3.63,6.42,5.76-2.65-2.17-3.25c-3.93-8.24-10.94-11.27-11.14-12.4-.05-.27,1.05-.43,1.32-.31.16.07.39.18.33.55,2.45,1.14,4.24,3.05,5.91,5.14l4.72,5.9c.71.88.92,3.16,2.33,3.39,1.58.26,3.49-.86,4.05-1.71-3.27-6.01-8.02-9.8-13.5-12.93-.34-.38.19-1.08.76-.78,5.51,2.93,10.34,7.34,13.64,12.69-.13,1.28.71,1.38,1.52.95l2.36-1.24c-3.24-4.44-7.24-8.12-11.9-11.24-.43-1.06-1.02-1.79-2.31-2.02-7.79-1.44-17.27-3.28-24.1.43-.77.42-.99,1.44-.57,2.47-2.18-1.14-3.02-.65-4.5.83l-3.8,1.83c-3.89,3.88-7.05,8.45-7.95,13.87-.66,4.01-2.5,8-1.02,11.78-.4.23-.56.69-.4,1.1ZM218.07,107.71c.58.56,1.12.93,1.16,1.39.08.93.6,2,1.44,2.68.92.75,1.68,2.3.92,3.57-2.06-2.15-2.95-4.15-4.12-6.32.14-.22.05-.47-.26-.44-.84-.75.18-1.64.86-.87Z"/>
  <path class="st1" d="M198.2,145.58c.3-1.06-.37-1.7-.75-2.06.2-2.38-.41-3.95.39-5.86-2.52-.01-3.99.7-5.78,2.46l5.17,6.23.97.53c.21.11.73-.17.79-.53.03-.23-.12-.64-.79-.78Z"/>
  <path class="st1" d="M249.91,114.91c.68.95,1.9,1.36,3.1.11-4.07-3.77-7.65-8.05-13.13-10.08,3.51,3.44,7.15,5.96,10.03,9.97Z"/>
  <path class="st1" d="M198.26,160.93c-2.26-2.08-5.18-1.48-6.91.35,2.62.31,4.56.35,6.91-.35Z"/>
  <path class="st1" d="M215.85,132.52c.73,3.3.92,6.73,2.51,9.65,2.91-.9,5.5-1.19,7.55-2.67-1.72-3.63-2.26-5.88-2.22-9.45l-7.84,2.46Z"/>
  <path class="st1" d="M197.39,175.16l-6.74-.2c-2.01-.06-3.96-1.81-3.25-3.72l4.07,1.48c1.5.54,3.44-.62,4.69-1.86l-5.9.24c-1.1.04-2.28-1.17-3.32-1.09.23-1.74-9.45-5.95-15.79-3.09-1.75.79-3.97,1.74-3.77,3.69,3.15-2.55,5.66-3.85,9.44-3.63,7.79.46,8.86,13.09,20.56,8.18Z"/>
  <path class="st1" d="M210.75,160.13c-1,.31-2.11,1.03-2.15,2.47.62-.07.84-.52,1.09-.67,3.62-1.35,7.61-3,6.53-5.47-1.62,2.16-3.36,3.03-5.47,3.67Z"/>
  <path class="st1" d="M256.07,128.57c-1.63-3.66-2.49-6.85-5.25-9.22l-3.59,1.34c1.62,2.55,2.51,5.14,3.42,8.05l.66,1.03c.13.2-1.24.54-1.38.2l-3.64-8.89-5.39,2.05c.69,3.11,2.46,5.67,2.54,9.16-3.05-2.09-2.85-5.46-3.22-8.78l-6.87,2.73,2.59,8.86c.15.5.44,1.68.91,1.74,2.41.34,15.16-8.59,26.36-7.93.07-4.23-2.17-9.43-5.39-9.32l2.52,5.68c.17.38.64,1.23.44,1.7-.15.37-1.1.48-1.48.28-.77-.41-1.48-10.76-6.04-7.57.99,2.94,4.16,5.47,2.8,8.89Z"/>
  <path class="st1" d="M225.85,156.23c-1.04,1.12-2.18,2.16-3.22,3.99,1.34-.49,2.87-1.13,3.8-2.35l2.33-3.08c.03-.36.06-.86-.28-1.38l-2.63,2.82Z"/>
  <path class="st1" d="M206.12,135.32c.17,3.17.66,6.49,1.95,10l8.26-2.22c-1.39-3.39-2.18-6.4-2.34-10.13l-7.87,2.34Z"/>
  <path class="st1" d="M235.25,137.24c-2.01-3.22-2.58-6.63-3.25-10.29l-7.31,2.86,2.95,9.4,7.61-1.97Z"/>
  <path class="st1" d="M214.8,185.01l-3.57,5.71-1.64,1.76-3.29,2.2c1.24.63,2.92-.38,3.44-1.5l.55-.06c.76-.26,1.25-1.13,1.7-1.7l.66-.83c1.13-1.43,2.37-3.23,2.14-5.59Z"/>
  <path class="st1" d="M219.67,290.91c.48-1.4-.59-2.17-.65-3.12l-.45-7.95-7.65-1.91c-.41,2.98-2.18,7.25-.3,9.87,1.76,2.45,6.5,2.51,9.05,3.11Z"/>
  <path class="st1" d="M220.59,264.96l-6.97-2.21c-.89,4.2-2.1,8.02-2.29,12.31l8.46,2.12.79-12.23Z"/>
  <path class="st1" d="M173.56,178.26c.16-.87-.49-.86-.87-.85-.49.01-.83.09-.82.63-.18.04-.4.04-.62-.01-1.2.99-2.53,1.83-3.43,3.15l-.15.69c1.1-1.06,2.45-1.33,3.1-2.59.73.13,1.15-.44,1.64-.69.32.05,1.06.1,1.14-.32Z"/>
  <path class="st1" d="M207.58,457.26c.04-.12,0-.39-.3-.46l-10.11-1.17-7.31-.22c-1.9-.06-3.76.02-5.53.08.63.48,1.12.45,1.3.89-.94-.08-2.04.02-2.95.32l.02.79,12.17.31c.17-.1.28-.27.3-.4l-2.94-.42,5.59-.21c3.32-.02,6.59.81,9.76.5Z"/>
  <path class="st1" d="M226.89,236.6l.92-23.69c1.68-1.94,2.99-3.95,4.96-5.38,6.77-4.91,13.51-9.82,18.56-16.95-4.03-.27-7.13-.07-10.88-1.27l-14.96,13.06c-3.04,2.65-5.12,6.36-5.3,10.36l-.95,20.31c-.44,9.36-2.1,18.16-4.78,27.12,2.6,1.26,4.37,1.98,6.69,2.47,3.12-8.77,5.39-17.06,5.74-26.02Z"/>
  <path class="st1" d="M189.41,454.53c.68.34.95.8,1.74.32,1.88-1.15-1.61-.7-6.53-1.08,1.11,1.85,3.18.67,4.79.77Z"/>
  <path class="st1" d="M186.64,191.3c2.55,1.5,5.51,2.17,8.43.98l-4.22-1.16c-1.41-.39-3.09-1.96-4.2.18Z"/>
  <path class="st1" d="M171.72,189.3c-2.14,1.76-4.35,3.61-4.91,6.56,2.03-1.66,3.55-3.31,5.54-4.62,2.88-1.89,6.37-2.19,10.24-2.91-3.35-2.22-7.89-1.48-10.87.98Z"/>
  <path class="st1" d="M225.12,194.46c-4.17.43-6.84-.28-10.6-.52,1.31,3.8,10.06,4.41,10.6.52Z"/>
  <path class="st1" d="M207.5,174.15c3.86-11.79,16.21-7.65,20.9-10.64,2.24-1.43,4.39-3.89,4.34-7.04-2.06,2.33-3.56,4.38-6.11,5.5-2.86.35-5.37,1.34-8.58,1.86-15.57,2.52-9.59,10.02-16.38,14.71-4.95,3.41-11.08,3.68-16.56,1.1-1.95-.92-3.94-2.04-6.53-1.4,4.87,3.85,10.56,6.13,16.59,5.76,6.51-.4,10.42-3.97,12.35-9.85Z"/>
  <path class="st1" d="M205.3,185.79c-1.78,2.02-4.36,2.23-6.74,4.05,5.92-.21,9.36-4.76,11.04-9.84l-4.3,5.79Z"/>
  <path class="st1" d="M204.81,150.29c-.78.27-.98.79-.83,1.25.12.36.34,1.06.95,1.12,7.82.79,20.37-4.3,33.07-1.11l2.11-11.2c-6.85.41-13.21,2.3-19.59,4.5l-15.72,5.43Z"/>
  <path class="st1" d="M217.8,183.8l-1.31,7.02c3.53.61,6.26.84,9.87.69-.11-3.34.02-5.39,1.94-7.59l-6.51-4.58-4,4.46Z"/>
  <path class="st1" d="M263.77,430.59l-7.76.18c-2.79.07-5.41.37-7.81,2.37l1.05,5.38c2.54-3.41,7.99-4.09,11.61-3.69,3.98.44,8.16-.08,12.08,2.35.6-1.63.43-2.5.2-3.84-3.07-1.53-6.16-2.83-9.36-2.75Z"/>
  <path class="st1" d="M243.81,417.39c-1.22,1.64,0,3.47,1.13,4.71,3.28,3.61,8.2,5.24,13.03,5.12,7.99-.21,15.53-1.18,14.8-8.23-7.53,5.23-17.22,4.95-25.03-.07-.8-.51-1.44-.02-1.22.38.13.23.48,1.33.22,1.41-1.42.42-2.39-1.56-2.94-3.32Z"/>
  <path class="st1" d="M249.06,441.18c-.38.59-.37,2.13.46,2.54,7.54-3.9,16.16-3.55,23.88.56,2.88-7.04-20.74-8.73-24.34-3.11Z"/>
  <path class="st1" d="M214.64,170.94c-1.71.6-3.02,1.2-3.7,2.97l8.85-4.61c-2.06-.77-3.48,1.05-5.15,1.64Z"/>
  <path class="st1" d="M243.67,425.33l-.15,5.86,1.81,15.65c2.47-1.64,1.72-3.97,1.09-6.24-.65-2.34-.06-4.92-1.73-6.63l4.41-4.83c-1.59-1.51-3.04-2.76-5.43-3.8Z"/>
  <path class="st1" d="M274.99,421.57c1.83-.3,1.08,1.34-.09.91l-3.15,7.73c1.4.41,4.26,1.41,4.03,3.12-.23,1.74-1.52,4.19-.48,5.63.55.12,1.79.49,1.89.92.08.33-1.01.9-.86,1.2.74,1.21.56,3.5-.55,4.62-1.44,1.47-2.87.51-4.66-.35-8.51-4.04-23.05-1.95-25.51,4.93,3.43-2.62,6.25-4.33,10.63-4.4-.98,1.62-2.81,2.17-4.35,2.56-4.29,1.07-6.2,4.02-8.1,8.08-.2-3.79.34-6.87-.75-10.15-.25-.76,1.54-2.93-.85-3.56l.81,13.94c1.02,1.24,1.63,2.37,2.26,3.82,3.61,1.85,7.51,2.99,11.74,2.89l16.43-.42c1.96-.05,3.55-1.35,4.16-2.48.83-1.53.88-3.49.44-5.19-1.09-4.23-5.04-6.2-9.12-7.61-5.36-1.84-11.86.98-12.43-1.39-.09-.36.39-.92,1.02-1.05,5.81-1.18,11.1.61,16.32,2.42,2.52.87,3.65,2.54,4.88,5.57.93-6.13-1.4-11.96-1.94-18.71l-.92-11.59c.16-.36.96-1.15.71-1.72-.2-.46-1.81-.52-1.56.28Z"/>
  <path class="st1" d="M132.33,287.78c1.1-.39,1.11-3.53,3.06-5.28l-3.73-1.61-1.94,5.87c.58.84,2.05,1.22,2.61,1.02Z"/>
  <path class="st1" d="M137.15,290.67l1.44-3.26c.32-.72.46-1.66.03-2.38-.27-.45-1.05-1.21-1.64-.91-.72,1.82-1.22,3.42-2.35,4.71l2.52,1.84Z"/>
  <path class="st1" d="M138.75,293c.32.51.59.84,1.58.45-.22,1.17-.65,1.52.08,3.32,1.38-1.19.28-2.59.38-3.89l.34-4.73c-1.61,1.53-2.91,3.98-2.37,4.86Z"/>
  <path class="st1" d="M138.64,302.45l-2.81-8.9c-5.89-5.42-14.49-4.93-20.42.09l-6.83,5.78c-4.93,5.27-7.61,12.63-6.63,20.15,2.15-3.67,1.01-7.85,2.87-11.18l3.38-6.06c.33-.59,1.09-.66,1.47-.49.22.09.55.6.38,1.11l-1.94,5.82c-1.25,3.76-2.15,7.22-2.36,11.32-.08,1.48,2.25,2.99,2.8,1.97,2.38-4.44,2.41-12.62,7.31-19.69.4-.58,1.42-.35,1.59.04.57,1.32-3.6,9.55-4.37,17.33-.14,1.45,1.83,2.32,2.84,1.97,3.89-1.35,2.83-7.23,6.39-13.97,1.69-3.2,4.59-5.89,8.34-6.87,1.75-.46,2.04,2.6,2.26,3.82l2.02,11.23c.34,1.9,3.8,3.44,4.78,1.61,1.02-1.9.16-4.99-.09-7.08l-.97-8.01Z"/>
  <path class="st1" d="M274.67,465.39c-8.78,1.73-23.29,1.36-31.29-2.44.34,2.19,1.94,3.7,4.23,4.25,9.33,2.26,19.07,2.63,28.27.37,2.7-.66,4.44-3.14,4.07-5.48-1.5,2.07-3.12,2.87-5.27,3.29Z"/>
  <path class="st1" d="M128.41,285.78l1.26-4.98c-1.67-.31-2.95-.2-4.58.19.28,1.87-.06,3.38-1.02,5.23,1.1.89,3.97,1.04,4.34-.44Z"/>
  <path class="st1" d="M258.32,321.49l2.38,15.62c.53,3.46,2.65,5.72,6.1,6.29l-2.8-17.54c-.38-2.39-3.7-3.37-5.69-4.37Z"/>
  <path class="st1" d="M257.14,311.11c-.15,2.87.4,5.43,1.36,7.79l1.83.92c2.76,1.38,5.5,2.25,7.99,5.02-.06-4.36-1.78-8.28-5.54-10.56-1.61-.98-2.8-3.55-5.64-3.16Z"/>
  <path class="st1" d="M252.78,225.59c-7.59,1.58-15.36,1.36-23.26,1.18-.35,12.61-2.13,24.32-6,36.23,5.43.08,10.75-.37,15.28.85.38.1.29,1.21-.24,1.29l-1.42.21c-4.71.68-8.84.2-13.76-.22l-1.34,12.92,16.01,1.46c-5.39,3.36-11.21,1.84-16.9,1.19-.89,5.2.25,10.14,3.49,9.83,8.5-.81,17.05-3.41,24.34-8.22,1.72-1.14,3.22-2.24,3.94-4.17-3.53-2.75-6.07-5.65-8.83-8.76-1.71-1.92-3.02-3.26-2.81-5.83.42-5.3,8.01-6.72,5.29-11.62l-1.05,2.59c-.2.49-.98.62-1.28.17-2.65-5.2-7.75-7.69-4.87-8.5.67-.19.75.24,1.14.61l5.44,5.22c.53-.55,1-1.39.09-2.75,3.09-.73,3.28-3.36,4.37-5.73,2.09-4.52,4.17-8.98,5.05-13.98.3-1.69,1.43-2.24,2.29-1.95,1.77.6,2.22,1.71,1.6,3.31l-2.32,5.97c-.29.74.58,2.08,1.26,2.61,7.13,5.62,6.65,13.5,14.36,11.77.66-.15,1.47.81,1.17,1.56-.2.49-.57.87-1.78,1.7,3.39,3.88,7.04,8.07,12.05,10.05,4.82,1.9,8.48,5.18,10.36,10.04,5.6.29,8.6,7.37,8.39,2.02,2.08-7.33,7.83-12.77,14.78-15.73l-7.56-5.84-3.58,2.58-5.68,5.45c-.31.29-1.21.01-1.22-.22,0-.15.19-.39-.21-1.05,3.75-2.89,5-7.68,9.75-7.29-1.31-2.99-3.04-5.1-5.77-6.17l-4.88-3.34c-3.48-2.39-6.11-4.84-7.73-8.73-1.4,3.4-.71,6.61-3.58,8.59-1.27.88-3.26,2.27-5.83.81,3.31-.7,4.26-2.3,5.13-4.79,1.75-5.02.86-10.87-4.25-13.7-1.59-.88-2.8-2.39-3.56-4.18-2.03-4.79-5.16-8.34-8.28-12.29-2.37-3-2.51-7.15-5.57-9.77.22,7.79-1.61,15.22-3.23,22.1l-8.78,2.53ZM272.86,241.35c5.49-2.15,9.12-5.99,9.19-11.92l-8.22,2.72c-.47.16-1.21.33-1.67.31-.41-.02-1.06-.82-.79-1.3l7.38-2.81c1.64-.62,2.51.41,3.36,1.08,1.06.84,1.06,2.11,1.05,3.63,0,.81,1,.62.98.21,0-.27-.21-1,.22-1.57,2.58,1.57,2.41,4.77.84,7.52-3.56,6.25-12.29,9.41-13.61,7.43-.35-.53-.65-1.64-.09-2.36,3.81,1.48,11.92-3.78,12.03-9.34-2.99,4.01-7.49,8.91-10.68,6.41Z"/>
  <path class="st1" d="M236.89,208.07c-2.01,1.5-5.26,2.6-6.5,4.98-1.44,3.41-.62,7.75-.78,11.33l11.75.07c6.05.28,11.58-.99,17.23-3.4.85.42,1.84-.03,2.01-.54.1-.28.36-.96.29-1.36-.72-4.15,1.01-7.31,2.03-10.97v-10.22s-7.87-4.68-7.87-4.68c-1.33,1.97-2.62,3.24-4.16,4.38l-13.99,10.41Z"/>
  <path class="st1" d="M316.08,265.63l1.57,1.72c-.42-.04-.7.06-.82.38-.07.17-.06.42.02.7-1.36-1.09-2.74-2.31-4.73-.5l4.22,3.68c.83.72,1.31,1.08,2.18.38.66-.53.84-1.05.2-1.88.06-.32.3-.5.82-.56.64,1,2.48,1.53,3.6.38l-4.02-3.9c-.69-.67-1.91-1.39-3.04-.4Z"/>
  <path class="st1" d="M311.28,269.79c-.55-.16-1.56.54-2.11,1.03l5.23,4.8c.69-.46,1.24-1.19,1.55-1.58-1.33-1.51-2.67-3.08-4.67-4.25Z"/>
  <path class="st1" d="M218.02,178.64c2.19-.7,3.79-2.65,5-4.53-1.53.76-2.46,1.46-3.3,2.2-.86.76-1.92,1.41-3,1.83-1.29.49-3.26.85-4.21,2.76l4.17-1.53c.44-.16.95-.3,1.33-.74Z"/>
  <path class="st1" d="M198.46,454.82c.04-.16,0-.42-.3-.55l-5.95.37c0,.08.08.31.32.42l5.93-.24Z"/>
  <path class="st1" d="M221.13,300.37c12.06-2.43,24.26-4.81,31.84-13.87.69-.82,1.1-1.2,1.3-1.92.19-.68-.55-2.61-1.25-2.13-9.15,7.2-19.98,10.63-31.39,10.64-.92,2.65-1.07,4.95-.5,7.28Z"/>
  <polygon class="st1" points="219.05 292.94 211.4 291.96 210.21 300.94 218.6 300.44 219.05 292.94"/>
  <path class="st1" d="M309,271.63c-.91.85-1.61,1.59-2.07,2.94,2.1,1.3,3.9,2.47,5.51,4.25,3.88-3.06-1.01-2.63-3.44-7.19Z"/>
  <path class="st1" d="M221.96,333.91l-1.58-2.63c-.69,1.46.64,2.65,1.58,2.63Z"/>
  <path class="st1" d="M243.73,298.19c3.38-.2,5.87-.8,8.9.96l-.05,1.23c-5.02.52-9.85,1-14.24,3.58-.71.42-1.48,1.55-2.34,1.36-.51-.11-1.8-.26-1.77-1.11.06-1.96,2.33-2.57,3.23-4.08-6.74,1.31-12.23,5.35-16.12,10.42-1.2,1.57-2.23,3.1-4.07,4.42,2.12,1.63,4.12,2.26,4.46,4.49l-4.34-1.63c-.8,2.39.82,2.56,1.61,3.19,2.76,2.21,6,3.88,8.08,7.21-3.72-.68-6.04-3.47-8.56-6.21-.56,2.69,1.48,4.76,2.53,7.1,3.4,7.54,6.83,8.72,7.81,10.65.17.34-.46,1.65-.92,1.27l-5.31-4.38c4.08,6.93,4.92,14.05,9.62,20.98-1.02,1.5-1.7,3.14-.92,5.04l-1,1.44.8,1.69c1.4,2.94,4.02,4.79,5.02,8.19-.84-.27-1.79.03-2.06.64-.16.36-.08,1.07.41,1.56l5.09,5.13c.93.93,1.3,2.35.7,3.6l-6.22-5.8c.28,2.97,1.13,6.6,3.3,8.2,6.31,4.66,13.46,6.93,20.67,9.52,1.69.61,3.38,1.4,4.05,3.15-4.23,1.21-7.68-.51-11.29-1.98-5.11-2.08-9.52-4.78-13.32-8.95l1.87,7.21c.13.52-.09,1.03-.48,1.43-.63.63-.18-1.03-1.73-1.43-.08,3.59.21,8.34,2.76,11.7,4.52,5.99,11.96,7.98,18.92,8,4.39.01,9,.04,12.79-2.84,5.78-4.39,5.61-12.91,2.84-18.63-1.04-2.15-2.62-2.78-2.35-5.76.82-9.18-4.42-12.17-3.17-17.85.43-1.94-.96-2.88-2.49-3.23-5.16-1.21-8.71-7.78-7.49-8.43,1.73-.92,4.04,3.94,8.19,5.33.91.31,1.13-1.94.4-2.19l-1.65-.55c-.65.05-1.39-.21-1.84-.54-.49-.36.02-.95.14-1.32.2-.63.93-.55,1.54-.67-.1-1.6-.04-3.42-.39-4.67l-6.86-6.22c-.33-.3-.28-1.15-.02-1.28.18-.09.87-.09,1.06.05l5.66,3.99c3.19-4.14-4.97-7.36-6.19-12.81-2.18-9.79-3.22-19.47-6.13-29.02,2.16-.53,3.42-.13,4.86-1.2-1.31-5.16-3.41-9.45-6.62-14.04l-7.37,4.06ZM272.66,409.51c.01,4.74-17.12,2.36-16.4-1.06.09-.44.7-.98,1.47-.66,4.38,1.83,9.31,2.38,13.96,1.2.67-.39.97-.08.97.53ZM256.04,380.23c4.55,2.71,8.9,4.86,14.98,4.95-1.94,2.49-4.63,1.87-7.15,1.15-9.88-2.8-18.95-8.33-25.86-15.97-2.01-2.22-4.44-4.71-3.15-8,6.04,7.75,13.21,13.13,21.17,17.86Z"/>
  <path class="st1" d="M243.52,264.21c-.22,1.65,5.84,7.96,9.11,9.52-1.69-5.07-7.32-8.1-7.17-12.35-1.23.67-1.79,1.68-1.94,2.83Z"/>
  <path class="st1" d="M306.21,276.24c-.4,2.79,3.82,7,5.15,6.38,2.01-.94-.91-4.16-5.15-6.38Z"/>
  <path class="st1" d="M117.7,288.51c.28-.12.7-.56.97-1.26l3.33-.51c1.58-1.14,1.54-3.77,1.18-5.77-2.23.68-4.29,2.32-5.2,4.54-.18.44-.25.85-.68,1.11-.55.33-.39.67-.47,1.06-.13.68.38,1.02.86.82Z"/>
  <path class="st1" d="M153.3,429.47c-1.13-2.2-2.69-3.02-4.79-4.08l-3.23,15.53c3.54-3.93,1.27-8.45,8.02-11.45Z"/>
  <path class="st1" d="M179.56,423.34l-5.49,7.63c6.58,2.1,4.64,5.96,5.62,10.85.64-6.63.72-12.29-.13-18.47Z"/>
  <path class="st1" d="M178.48,420.32c.6-.39.71-1.8.29-1.9-.86.62-1,.89-1.13,1.32-.12.4.11,1.05.83.59Z"/>
  <path class="st1" d="M171.83,445.66c.94-1.5.08-3.48-1.41-4.23-5.84-2.94-12.73-4.14-19-2.17-2.77.87-5.83,1.7-7.05,4.67,8.6-5.43,19.09-4.37,27.46,1.73Z"/>
  <path class="st1" d="M142.26,456.46c3.43,4.43,29.52,5.14,30.45.13,1.75-9.4-10.71-11.56-20.4-11.21,4.27-3.29,8.54-.66,13.37-.77-4.92-2.57-11.32-2.35-16.73-.42-1.99.71-3.69,2.02-5.43,3.39-2.02,1.59-2.98,6.64-1.25,8.88Z"/>
  <path class="st1" d="M176.75,441.41c1.24-.71,1.3-5.89-1.08-6.7.85,2.13.75,4.39-.73,5.86-.03.66,1.28,1.15,1.81.85Z"/>
  <path class="st1" d="M175.73,444.87c-.32,1.25-.85,2.19-1.6,2.86-2.62,2.37-4.49-3.41-7.52-2.16,1.9.82,2.84,2.46,4.17,3.19,2.4,1.32,3.94,2.53,4.61,6.05,1.93-3.44,3.23-6.65,3.44-10.38-1.49.9-2.36.61-3.1.44Z"/>
  <path class="st1" d="M153.59,434.35l-1.82.05c-.44.01-.76.59-.98,1.21-.15.41-.78.79-.22,1.64,7.2-3.22,15.66-2.38,22.49,1.51,1.15-.61.67-2.07.64-2.86-.04-.91.28-2.01-1.15-2.56-1.8-.69-3.79-1.69-5.76-1.93-4.96-.6-10.7-1.58-15.34,1.55,6.67-.69,13.39-2.7,18.5,1.9-5.76-1.23-11.11-2.17-16.37-.5Z"/>
  <path class="st1" d="M175.94,423.61c.15-.99-.31-3.14-1.03-2.85l-4.26,1.7c-6.79,1.34-13.88-.66-18.82-4.13-1.11,1-2.44-.25-2.92-2.12-2.27,3,1.98,7.74,4.99,9.06,8.35,3.65,21.46,2.08,22.03-1.66Z"/>
  <path class="st1" d="M263.62,137.5c-1.03.2-1.57.8-2.15,1.62-2.88,4.08-5.17,8.38-7.17,13.03l-.72.81c-.34.38-.66.15-.75-.1-.18-.52-.22-.92-.14-1.37l2.2-12.5c-2.86,4.51-3.32,9.65-3.26,14.36,0,.64,1,1.09,1.32,1.37.34.3,1.28.17,1.74-.61,1.9-5.46,4.75-10.27,7.97-14.81.56-.11,1.05-.76.96-1.81Z"/>
  <path class="st1" d="M207.28,455.07l-8.49-.26c-.13.03-.32.16-.35.41,2.95.02,5.84.86,8.8.39.35.24.83-.45.05-.54Z"/>
  <path class="st1" d="M267.13,138.22l-6.41,12.09c.23.42.6.33.75.04l6.31-12.13c-.22-.14-.59-.04-.65,0Z"/>
  <path class="st1" d="M249.66,172.32c.84,2.02,2.31,2.43,3.83,2.37,1.54-.07,2.87-.5,3.14-2.25-2.77.77-4.5.38-6.96-.12Z"/>
  <path class="st1" d="M184.62,361.55c-.6.17-.7,1.01-.44.97.33-.05.89.28,1.23.48.23.13.26-.96-.05-1.06-.17-.06-.29-.51-.74-.38Z"/>
  <path class="st1" d="M256.43,161.43c1.46-.48,4.08-.64,3.9-2.7.15-.06.31-.21.41-.29,2.02.22,3.22-3.01,5.9-2.9-1.25,1.29-1.9,2.26-1.72,3.71.14,1.16,1.83,2.41,3.26,1.42,2.47-1.72,3.52-5.55,4.02-8.56l1.68-9.97c.19-1.15-.6-2.57.81-3.32-.22-.58-.44-1.17-.57-1.78-.05.13-.11.25-.15.37-.45-1.41-1.6-2.82-3.36-3.31l-6.9-1.95c-5.89-.91-12.09.91-17.29,3.48-2.59,1.28-2.85,3.98-3.33,6.27l-2.34,11.07,4.13,5.08c3,3.7,7.39,4.77,11.57,3.39ZM272.7,137.75c.08,6.83-1.59,13.47-3.79,20.38l-2.85-6.5c.24-2.59,2.26-4.76,3.07-7.64.55-1.96,1.17-3.93,2.27-5.69-.67-1.21.75-1.49,1.29-.55ZM250.03,145.13c.16-3.51,1.36-7.12,4.92-7.93,5.32-1.2,10.2-2.39,15.93-.63l-5.89,14.28-3.24,3.69c-1.14,1.3-2.92,4.08-4.73,4.35-2.84.43-5.31-2.44-6.96-4.7-.08-3.08-.67-6.04-.02-9.07Z"/>
  <path class="st1" d="M254.9,180.97l-4.65-.11c-.56-.01-1.36-.91-1.67-1.53l7.86-.45v.06s0,0,0,0c0-.13,0-.26.02-.39,0-.03.02-.07.03-.1.04-.11.09-.23.15-.34.05-.1.12-.18.19-.26.06-.08.12-.15.19-.23,0,0,.01-.02.02-.03.01-.06.03-.12.05-.18.04-.17.11-.34.19-.5-.57.31-1.46-.19-1.85-.88-3.69,1.22-6.43-.7-8.01-3.6-1.01-1.18-1.95-1.77-3.75-1.52,1.14-1.47,2.26-2.18,3.96-3.07,3.57,3.63,9.35,3.7,13.41,1.13.04,0,.07,0,.1.02.06-.12.14-.22.23-.31-.04-.22-.02-.45.05-.67-.02-.19-.01-.38.04-.55-1.36.43-3.46-1.74-2.94-3.11.97-.54,3.81-.51,4.01-2.51.12-1.24,0-2.16.41-3.63-2.01,3.17-4.96,4.13-8,5.28-3.02,1.14-6.32,1.94-9.3-.56l-6.85-5.76-4.62,7.05c-.7-.96.03-1.37.05-2.05-1.89,2.68-4.3,4.17-7.22,6.58,5.17.92,6.37-5.98,7.27-3.75-.45.63-.68.91-.93,1.73-2.58,3.47-7.31,5.12-8.72,9.05l3.58,3.14c6.81,4.12,18.67,10.76,23.92,7.29,1.52-1.01,3.1-3.02,2.77-5.21Z"/>
  <path class="st1" d="M215.44,93.37s-.01,0-.02,0c-.83-.5-1.33-2.03-3.09-2.12,1.17-.91,1.36-1.11,1.17-1.46l-.97-1.84c-3.84-.17.53-3.74-1.65-5.37.2,1.07-.27,1.33-.95,1.28-.51-.03-1.24-.11-.88-1.43-1.05-.94-.64,3.75-1.04,2.25-.05-.18-.19-.37-.51-.38.05-.16.06-.33.02-.51-.09-.48-.01-1.36-.25-1.9-.24-.55-1.33-.36-1.66.01-.94,1.05-.11,3.3-1.22,2.48-.84-.62.03-3.03-1.33-3.15l-2.65-.24c-.21.91.06,1.81.32,3.29.1.58-1.77.73-1.73-.05.06-1.16-.3-2.05-1.02-2.25-.57-.16-2.16-.18-2.37.36-.55,1.45,1.44,4.68-.27,4.01-2-.78-1.6-2.87-2.73-2.24-.25.14-.46,1.08-.17,1.4l4.16,4.57c-3.61.71-4.69-6-6.96-1.56-1.1,2.15,4.98,3.85.4,5.13-.82-.48-2.03-1.69-2.79-3.18-1.16.21-1.11,1.5-.91,2.84.16,1.06.46,1.65,2.05,2.57l1.41.82c.47.27.36,1.94-.24,2.07-1.66.35-2.91-1.15-4.46-1.57-.06,1.1-.19,2.41.61,2.85,3.03,1.65,7,.25,7.79,1.58,1.12,1.91-2.51.07-6.48,1.43-.23.77.06,1.08.43,1.29.63.34,1.28.39,2.2.13,1.54-.2,1.36,1.87-.39,1.18.66.6,1.38,1.86,2.19,2.03,1.08.23,2.71-.17,3.84-.84-.85-.89-1.54-1.3-1.65-1.93-.26-1.39-.52-2.59.9-3.18,1.12-.47-.51-3.14-1.63-3.25-.26-.03-.62-.63-.14-1.05,2.34.94,4.74,2.28,4.62,3.51-.06.63-.92,1.19-1.61.92l1.89,4.24c3.22-.17.72-3.62,1.59-8.07.77-.98,2.36,2.15,1.96,3.83-.08.34-.03.92.65.9-.01.17-.09.37-.01.57.29.93.88.41,1.21.2l1.53-.99,4.78-2.55c.9-.48,1.09-.44,1.44-1.17.43-.9.73-1.33.17-2.78,1.41.41,1.35,1.41.87,2.45.98.25,1.48.1,2.58-.01l.19-4.93c0-.14.54.1.86.29-.01-.15-.02-.31-.03-.46ZM196.9,94.57c-.92.64-2.95-1.33-1.97-2.19.92-.81,2.75,1.65,1.97,2.19ZM199.51,93.14c-.51-1.26-.91-2.7,1.07-3.72.09,1.52.97,2.4,1.61,4.15-.45,1.36-2.32.47-2.68-.42ZM204.38,90.13l.72.02c.35.28.63,2.18.15,2.61-.98.89-1.77-.22-1.58-1.1.09-.42-.44-1.56.71-1.53ZM205.05,101.58c-1.01-1.4-1.41-2.55-1.51-4.43,2.15.77,2.82,2.9,1.51,4.43Z"/>
  <path class="st1" d="M185.9,225.17c-1.22-.21-2.14-.43-2.67-1.41-.57,1.49-.59,3.59-2.56,4.56,1.21-7.16.33-13.39.97-19.5,2.18,3.82,1.9,9.04,1.82,13.42-.02.31.23.78.42.71.29-.1.88.11,1.16.15l21.02,2.63,12.03-.25-.16-10.57c-.04-2.84,2.11-6.46,1.28-9.19-2.34-4.13-7.32-6.61-11.43-8.78-1.98,1.78-4.81,2.76-8.02,3.85,6.41,3.06,12.14,5.52,17.55,9.58.49.37-.53,1.3-1.04,1.24l-1.62-.18-25.18-10.75c-4.53-1.93-9.91-1.94-12.57,3.31l3.46,3.57c-2.5,1.34-6.94-.72-6.64-4.14.37-4.16,4.62-7.38,8.18-8.19.96-.22,2.07.44,3.06-.44-5.2-2.92-13.72-.03-15.32,6.04-.99,3.74-5.26,6.09-9.14,5.93-.65,3.13-2.58,5.23-4.2,7.72-2.98,4.6-5.9,9.12-9.56,13.37-5.57,6.46-5.5,12.93-6.79,13.39-2.52.89-4.05,2.59-4.62,4.76,1.63.89,2.9,1.1,4.1,2.6-3.21-1.45-7.02,2.35-7.34,3.75-2.42,10.46-9.26,10.91-8.88,17.3-.2.82-.57,1.55-.35,2.17,1.66-.63,2.81-1.26,4.72-1.09-2.8,3.95-9.04,3.84-10.12,11.31,7.38-4.92,18.33-5,23.81,2.15,1.99,2.59,2.58,5.84,3.31,8.36,1.05-1.08,2.09-2.59,3.45-3.41,2.18-1.32.07-9.79-5.02-14.37l-6.59-3.7c6.06-.33,11.7,3.32,12.67,9.71,1.88-.83,2.24-2.28,3.16-3.34,2.96-3.44,4.68-7.51,5.48-12.26l2.07-4.69c.05.05.09.09.14.14.2-.31.44-.59.73-.82-.95-.28-1.35-3.15-.53-3.57,2.9,1.01,5.43-3.83,3.46-4.74l7.55-8.29,6.47-8.64c-2.31-1.51-2.7-3.48-3.14-5.48-.74-3.31-1.8-6.54-1.44-10.33,4.71,5.06,4.51,14.7,6.87,13.06l1.78-1.24c1.55,2.82-.11,5.1-1.34,6.88,2.56,4.13-1.22,7.9,2.12,11.62.89-.48,1.37-.07,1.51.44.4-.71,1.05-.59,1.05-.22,0,.54-.41.93-.6,1.1-.22.2-.8.38-1.08.25l-1.19-.49c-.1-.41-1.68-1.39-1.74-.83-.08.78.46,1.4.84,1.75l.75.7c.25.23.13.72-.24.9-1.44.7-3.1-1.81-4.51-4.81-1.12,2.06.08,4.33-.23,6.32-3.04,2.99-4.16,6.51-6.09,9.94-2.02,3.58-4.32,7.16-4.16,11.37-.63,4.51,2.49,8.27,7.01,8.25l20.59,6.6c1.86.6,3.99.86,5.36,2.79-7.67-.79-14.8-1.88-21.8-4.47l-8.9-4.67c-1.08.64-1.1,1.96-1.17,3.05-.09,1.41,1.16,2.08,2.15,3.03,4.02,3.87,8.46,5.73,13.65,7.2,7.81,2.21,15.62,3.65,23.69,3.87,1.64-3.67,2.57-7.41,1.48-11.06-1.22-4.09-.44-8.34.39-12.45-5.22-1.56-10.03-3.35-14.23-6.84,1.76-1.4,3.06.19,4.29.62l10.51,3.65c.26-6.69,1.99-12.92,4.01-19.33,2.22-7.04,2.86-14.1,3.64-21.36l.76-7.1c-11.06.91-21.54-.24-32.33-2.1ZM139.11,267.71c5.36.14,10.2,3.93,10.55,9.67-1.93-4.75-5.34-7.8-10.55-9.67ZM154.47,264.61l-.04-.53c-1.47-9.36-12.5-11.16-11.52-13.22,1.18-2.48,8.58.89,10.48,3.68,2.28,3.34,3.94,12.64,1.07,10.07ZM163.78,251.9c-1,2.14-2.04,2.5-3.72,3.65-.53-.7-.6-1.71.55-2.26.9-.43,1.54-1.78,3.17-1.39ZM156.6,251.85c-2.76-.67-5.12-2.44-6.98-4.89,4.49-.66,8.27,3.98,12.2,1.64l5.1-3.05c-1.78,3.99-6.21,7.3-10.32,6.31ZM150.7,241.27c2.63-.47,4.97-.65,7.28-.23,2.88.52,5.83.02,8.98,1.43-5.36,2.23-11.07.77-16.27-1.19ZM183.31,262.06c-3.01,6.19-7.59,11.43-12.04,16.49-1.17.27-2.57-1.08-2.25-2.23.28-1.03.94-2.6,2.56-1.61,2.94-3.27,9.97-13.34,9.97-13,0-.66,2.06-.25,1.77.35ZM188.44,253.97c.5.5.05,1.77-.33,2.16-.17.05-.41.02-.63-.05-.06-.64-.06-2.01.97-2.11ZM187.81,262.41c-1.77-1.09-3.31-2.91-3.02-5.11l5.17,4.39,4.49,3.71c-2.45.67-4.4-1.61-6.64-2.99Z"/>
  <path class="st1" d="M365.75,470.42l.1.81,1.65-1.4c2.79-2.37,5.19-5.36,6.43-8.62l-6.49,7.94-1.7,1.28Z"/>
  <path class="st1" d="M371.91,451.02c-1.51-5.16-7.08-8.14-12.11-9.17-7.14-1.46-13.82-1.06-20.77-.42l-9.13.84-11.29.96-32.6,1.66c-.84.04-2.41-1.19-3.65-.03,1.72.56,3.62,1,5.68.53.98-.23,1.71.48,2.25.48,2.52,0,4.96-.1,6.86,1.03l.69.06c.25.02,1.25-.3,1,1.05l-8.19-.07c-1.89-.02-3.25-.3-5.85-.11.81,1.32,1.89.45,2.71.55l6.94.87c2.66.33,5.32.19,7.51,1.76l-10.33-.05-8.03-.56c-.25-.02-.31.7-.15.91.13.18.52.37.79.43,2.04-.58,4.28.04,6.54.16,5.19.27,10.3.38,15.66,1.32,2.16.38,4.67-.28,6.45,1.41l-19.43-1.15-9-.52c-.23.42,0,.91,0,1.11l16.56,1.45c1.72.15,3.32.33,5.12,1.3-1.04,1.41-2.22,0-2.94-.11-1.54-.24-3.25-.36-5.17-.43l-13.52-.45c.57,1.6,1.79.91,2.77,1.04l13.52,1.89c3.59.5,7.47-.12,10.62,2.2l-16.05-1.1-1.14.1-2.83.11c-1.5.06-3.1-.23-4.57.39l3.17.56c4.24.74,8.76-.21,13.02,1.74l-18.35.04,6.93.86c2.15.27,4.65-.58,6.1,1.58l-13.58-.05c-.38,5.77-9.44,6.94-15.94,7.54-5.12.48-10.29-.13-15.47-.59-5.98-.53-13.68-3.54-12.94-7.98.6-3.62-.53-6.49-1.26-9.76l.85-7.8-31.95-1.1-8.93-.42c-.14.14-.29.35-.35.48l3.75.4c1.72.18,4.67.13,5.24,2.28-1.54-.32-2.57-.91-3.84-.13l5.79,2.17-3.62,1.63,9.74,1.99-7.34,1.41c1.62.48,2.62.25,3.4,2.28-2.28.23-4.78.52-8.3.17l-7.39-.74,2.4,2.57c-5.92-.16-11.43-1.01-17.39-.43-1.86,5.44-6.88,7.87-12.24,8.5-9.44,1.11-19.29.76-28.1-2.3-2.1-.73-3.04-2.97-3.7-4.14-1.03-1.83.93-3.78,1.05-5.28.24-2.85,0-5,.86-7.61l3.67-11.23-21.72-3.24c-15.62-2.33-35.92-7.91-51.61-2.29-4.35,1.56-8.76,4.33-9.21,9.54-.39,4.49,2.66,8.84,6.56,11.49,20.02,13.64,45.44,13.66,68.9,16.05,12.35,1.25,23.85,2.25,36.43,2.66,45.88,1.48,91.07,4.64,136.49,8.55l16.44.76c9.66.45,18.83-1.09,28.11-3.54l1.49-2.88c9.78-4.01,21.05-12.57,17.94-23.2ZM84.38,452.73c-3.84-.4-7.9-.95-11.15-3.59,5.82,1.46,11.39,2.18,17.26,3.11,3.02.48,6.2-.01,9.1,2.06l-15.21-1.57ZM112.35,452.22l-7.92-1.06-5.16-.31c-.42,1.53,3.32.72,6.58,2.26-2.78.6-5.06.06-7.5-1.52-2.08-1.34-5.88-.58-8.64-1.68-2.91-1.16-5.82-1.36-8.62-2.19l-7.2-2.12c-.16-.73.2-1.1.7-.97l6.34,1.74c4.16,1.14,8.37,1.85,12.67,2.13l6.07.39c4.29.28,8.79,1,12.64,2.04-.07.39.38.74.59.91.12.1-.37.4-.56.37ZM103.1,448.09l-8.97-1.21-9.32-2.04c-1.93-.42-4.04-.83-4.99-2.89,5.78,1.31,11.06,3.02,16.9,3.71,6.49.1,12.64.96,19.14,2.91.08-.15.03.62.15.84l-12.91-1.33ZM116.87,446.8l-1.9-.56c-1.29.42-3.55.13-4.97-.09l-11.12-1.76c-2.02-.32-4.59-.55-5.47-2.56,1.39.1,2.59,0,3.41.69h.58c.73-.03,1.86-.37,2.23.45l2.25-.08c.72-1.05,2.25-.5,3.36-.26l8.11,1.74c1.31.28,2.63,1.88,4.31,1.45-.08.8-.55,1.05-.78.98Z"/>
  <path class="st1" d="M355.55,476.21c2.56-.56,4.59-1.64,6.47-3.21-2.35.68-4.65.97-6.47,3.21Z"/>
  <path class="st1" d="M168.68,462.01c-8.13,1.27-21.56.92-28.11-3.13-.5,2.63.88,2.87,2.04,3.86,9.39,2.56,19.36,3.11,28.95.22,2.86-.86,5.07-4.02,5.44-6.94-1.94,3.32-4.47,5.39-8.32,5.99Z"/>
  <path class="st1" d="M187.99,447.42c.01.1.09.3.32.39l7.08-.4c0-.1-.09-.3-.32-.39l-7.08.4Z"/>
  <path class="st1" d="M191.51,346.76c-1.09.83-1.33,1.79-1.07,2.54.98-.64,1.44-1.72,1.07-2.54Z"/>
  <path class="st1" d="M151.64,411.91c5.56,3.47,11.9,4.15,18.2,3.57,8.12-.74,13.27-6.69,12.53-14.83-.16-1.71.93-3.89-1.18-5.11-1.01-1.45-.22-4.89.39-6.94-2.11.6-3.68,2.29-4.59,1.14-1.82-2.31,5.61-3.92,6.27-8.81-.95-2.37-.86-5.7.32-7.48l-1.69-.08c-.19,0-.19-.09-.13-.44.03-.2.32-.48.54-.49.26,0,.53.36.67.24.67-.59.92-2.22.45-2.67-.4-.38-2.31-.11-2.48-.63-.19-2.37,4.18-.99,5.65-3.8l-4.51-.39c.03-3.82,1.83-6.54,3.17-9.62l3.24-7.46c3.93-6.14,7.68-12.28,10.25-19.64-2.54.57-5.07,1.52-7.55,1.12-.35-.16-.14-1.29.29-1.26,1.66.11,10.35-4.04,11.74-8.71-1.45-.21-2.05.6-2.89.79-.66.15-1.5-.42-1.45-1.31,2.24-1.18,4.53-1.94,6.48-3.56-1.73-.39-2.55.47-3.02-.04-.65-.71-1.51-1.72-1.75-2.65l-19.12-4.61-2.19-.13c-.4-.02-.61-.89-.28-1.67l5.33.07c3.83.05,7.52,3.31,12,2.27-5.18-1.38-10.08-3.84-13.42-8.59-5.59.3-10.41,2.05-14.93,4.72-1.46.86-1.63,1.51-2.3,3.13l-7.2,17.23-6.15,21.11c-1.95,6.69-1.76,10.82-2.51,17.76,3.67,5.93,8.75,11.22,14.37,16.04,3.18,2.72,5.61,5.39,7.04,9.59-1.18.53-2.26.14-3.3-.81l-5.85-5.35c-5.87-5.36-10.8-10.93-14.12-17.95-1.02,3.72.97,6.25,1.74,9.45.55.5.53.89.19.99-.23.07-.42.35-.83.14-.61-.32-.08-.79-.13-1.01-.18-.77-.8-1.94-1.54-2.22-1.02,3.9,4.12,7.59,1.83,11.53l-2.16-2.4c-3.37,11.46,14.12,15.1,24.58,18.33.55.17.84,1.19.37,1.51-1.34.82-3.32,1.23-4.91.84-5.1-1.26-10.02-2.84-14.42-5.6l-5.37-5.21c-3.74,7.16-2.72,15.52,4.31,19.91ZM193.18,335.3c0-.36.32-.37.53-.31.51.01.74.6.6.88-1.27,2.54-5.59,2.53-8.88,3.05-2.16.34-4.86,1.64-6.83-.74l14.58-2.89ZM172.27,365.08c2.41,4.07,6.18,6.71,9.55,9.71.69.62-1.27,2.02-2.16,1.71-7.53-2.65-10.76-11.98-7.4-11.41ZM159.15,406.92c.77-.92,8.16,1.3,14.17,1.48-5.34,3.6-15.33-.09-14.17-1.48Z"/>
  <path class="st1" d="M195.63,340.42c.76-1.96,2.28-3.59,2.69-5.73-.02,0-.22-.1-.38-.31l-2.94,6c0,.13.38.53.64.05Z"/>
  <path class="st1" d="M193.4,344.11c-.99.53-1.42,1.62-1.31,2.46,1.33-.79,1.41-1.62,1.31-2.46Z"/>
  <path class="st1" d="M198.73,450.37c.63.15.82-.63.1-.68-1.07-.44-1.36.93-.1.68Z"/>
  <path class="st1" d="M201.1,450.18c-1.07-.44-1.36.93-.1.68.63.15.82-.63.1-.68Z"/>
  <path class="st1" d="M200.74,447.4c-1.02.02-2.11-.12-3.11.31.01.05.11.21.32.33,1.02-.02,2.11.12,3.11-.31-.01-.05-.11-.21-.32-.33Z"/>
  <path class="st1" d="M193.69,343.68c1.33-.79,1.41-1.62,1.31-2.46-.99.53-1.42,1.62-1.31,2.46Z"/>
  <path class="st1" d="M192.1,451.67c.07-.13.04-.42-.1-.55l-7.91.32c1.04,1.58,2.67.95,4.08.9,1.35-.04,2.68.04,3.98.07l9.63.22c-3.29-1.21-6.36-.7-9.06-1.06l-.62.1Z"/>
  <path class="st1" d="M191.38,444.63c-1.23-.08-2.29-.46-3.51.09,2.9.8,5.85,1.02,9.16.28l-5.65-.37Z"/>
  <path class="st1" d="M171.52,296.22c-1.9,1.5-3.56,3.04-4.47,5.18,2.98-1.99,5.95-3.06,8.94-3.68-1.73-1.05-3.38-1.92-4.46-1.5Z"/>
  <path class="st1" d="M199.32,332.92c.11-.24.37-.46.53-.59.31-.26-.08-.83-.29-.74-.63.27-.9.72-.84,1.31.02.22.39.47.6.02Z"/>
  <path class="st1" d="M189.05,301.9c4.37,3.73,10.31,4.17,15.7,4.33l-15.7-4.33Z"/>
  <path class="st0" d="M342.19,437.98l-18.19,1.65c-14.4,1.3-28.63,1.78-42.98,1.96l-2.54-19.03c-1.61-1.15-2.08-3.36-.84-5.02.33-1.25.14-2.35-.78-3.56,2.79-3.32,2.85-7.28,2.86-11.26.02-5.48-.92-10.59-4.87-14.7,2.4-6.19-2.52-10.73-2.04-14.22.49-3.55-.71-6.11-2.6-8.91,1.29-1.59,1.71-5.1-.83-5.56-.42-.58-.46-1.98-2.12-2.71,2.52-2.57,1.85-5.46,2.14-8.35.28-2.77.63-4.93.22-7.92l-1.13-8.16c1.27.04,2.52-.37,3.43-1.45.07-2.7-.57-5.16-1.22-7.28.73-6.75-3.71-12.06-9.81-14.03l-2.14-7.68c-1.09-3.91-3.04-7.48-5.51-10.4,2.54-1.94,3.91-4.44,3.46-7.69-.24-1.77.72-3.96-1.38-5.65.7-2.55,1.02-5.51.06-8.36l-6.19-10.17c-.49-2.34,1.03-5.37.14-7.75,1.25-.38,1.59-.99,1.95-1.81l3.3-7.28,6.12,5.9c1.85,2.8,3.7,4.43,6.28,6.4l5.43,5.71c3.44,3.62,6.63,6.62,11.4,8.41,2.06.78,4.58,1.95,5.13,4.18.53,2.16,2.26,2.25,3.65,3.32,1.7,1.31,2.89,2.74,5.55,2.29,1.37,2.04,3.37,2.86,5.74,3.24,2.07,2.52,5.21,4.82,8.94,3.96l5.94,7.95c1.87,2.5,1.7,6.46,5.05,7.82,1.97.8,4.18.1,5.39-1.18,1.45-1.53,2.17-3.74,1.2-5.92-1.1-.81-1.48-.15-1.72.89.26,1.21-.07,3.12-1.33,3.63-3.94,1.6-5.18-5.65-9.69-11.49-1.4-1.81-2.65-3.47-2.58-5.75.06-2.03,1.51-3.74,2.79-5.4,3.28-4.27,7.67-4.42,12.27-2.08l4.76,2.42c5.04,2.56,9.3,6.23,11.56,11.32-.67-.35-1.11-.91-1.47-1.22l-5.43-4.61c-.54.92.48,2.06,1.17,2.87,4.28,5.02,10.37,12.25,8.31,16.23-.43.84-3.36,1.5-3.8.58-3.36-7.08-8.07-13.51-15.85-16.98-.63-.28-1.96-.86-2.45-.45-.42.36-1.03,1.43-1.11,2.31,1.23,4.73,3,8.77,4.05,6.25.35-.84-.73-1.77-.58-2.61.25-1.45,9.24,4.13,11.97,10.88,1.29,3.18,4.6,5.95,8.17,3.93l2.74-2.55c1.15-8.42-2.11-17.14-8.69-22.83l-4.3-3.71-13.12-7.08-4.21-4.69c-.55-2.65-1.25-5.46-3.89-7.08l-6.21-3.82c-.95-4.22-3.77-5.72-6.79-8l-7.95-5.98c-3.16-2.38-4.36-6.21-7.59-8.42-2.07-3.79-1.68-5.69-6.61-7.39l-4.43-8.8-5.42-6.48c-1.83-3.74-2.67-7.85-5.7-10.99-3.85-3.99-8.68-6.51-14.47-8.23,1.92-1.76,3.27-3.36,3.27-5.76v-4.69s-7.85.45-7.85.45c.31.62,1.11,1.52,1.67,1.53l4.65.11c.33,2.19-1.24,4.2-2.77,5.21-5.25,3.48-17.1-3.17-23.92-7.29l-3.58-3.14c1.4-3.92,6.14-5.58,8.72-9.05.25-.82.48-1.1.93-1.73-.9-2.23-2.11,4.67-7.27,3.75,2.91-2.41,5.33-3.9,7.22-6.58-.02.68-.75,1.09-.05,2.05l4.62-7.05,6.85,5.76c2.98,2.5,6.28,1.7,9.3.56,3.04-1.14,5.99-2.1,8-5.28-.41,1.48-.29,2.39-.41,3.63-.2,2-3.03,1.97-4.01,2.51-.54,1.41,1.7,3.66,3.05,3.08.84-.36.63-1.85.38-2.26,5.49-1.46,9.19-2.91,10.13-8.28l2.34-13.52.52-4.66c-1.76.71-.86,2.23-1.06,3.44l-1.68,9.97c-.51,3.01-1.55,6.84-4.02,8.56-1.43.99-3.12-.26-3.26-1.42-.18-1.45.47-2.42,1.72-3.71-2.69-.11-3.88,3.12-5.9,2.9-.1.08-.26.22-.41.29.18,2.06-2.44,2.22-3.9,2.7-4.17,1.38-8.56.31-11.57-3.39l-4.13-5.08,2.34-11.07c.49-2.3.74-4.99,3.33-6.27,5.2-2.57,11.4-4.39,17.29-3.48l6.9,1.95c1.76.5,2.92,1.9,3.36,3.31.37-.92,1.17-2.64.77-3.07-1.85-1.85-5.46-2.43-8.17-3.23-.33-.97.68-2.44-.94-3.49.24-2.46.12-7.63-2.85-9.04-3.65-1.74-6.33-3.32-8.82-6.59-8.91-11.69-23.71-14.37-37.87-14.45l.93-4.23c-.83.04-1.17.5-1.35.29-.13-.15-1.07-.64-1.08-.45l-.19,4.93c-1.1.11-1.6.26-2.58.01.48-1.04.55-2.05-.87-2.45.56,1.46.26,1.89-.17,2.78-.35.73-.54.69-1.44,1.17l-4.78,2.55-1.53.99c-.33.21-.92.73-1.21-.2-.08-.2,0-.41.01-.57-.68.02-.73-.56-.65-.9.4-1.68-1.19-4.81-1.96-3.83-.87,4.46,1.63,7.9-1.59,8.07l-1.89-4.24c.69.27,1.54-.28,1.61-.92.12-1.23-2.28-2.57-4.62-3.51-.47.42-.12,1.02.14,1.05,1.12.11,2.75,2.78,1.63,3.25-1.42.59-1.16,1.79-.9,3.18.12.63.8,1.04,1.65,1.93-1.13.68-2.75,1.07-3.84.84-.81-.17-1.53-1.43-2.19-2.03,1.75.7,1.93-1.38.39-1.18-.91.26-1.57.21-2.2-.13-.37-.2-.67-.51-.43-1.29,3.97-1.36,7.6.47,6.48-1.43-.78-1.33-4.76.07-7.79-1.58-.8-.44-.66-1.75-.61-2.85,1.54.42,2.79,1.92,4.46,1.57.6-.12.71-1.8.24-2.07l-1.41-.82c-1.58-.92-1.89-1.52-2.05-2.57-.2-1.34-.25-2.63.91-2.84.76,1.5,1.97,2.7,2.79,3.18,4.58-1.28-1.5-2.98-.4-5.13,2.27-4.43,3.35,2.28,6.96,1.56l-4.16-4.57c-.3-.32-.08-1.26.17-1.4,1.13-.63.73,1.46,2.73,2.24,1.71.66-.28-2.57.27-4.01.2-.54,1.8-.52,2.37-.36.72.2,1.08,1.08,1.02,2.25-.04.78,1.83.63,1.73.05-.26-1.48-.54-2.37-.32-3.29l2.65.24c1.36.12.49,2.53,1.33,3.15,1.11.82.28-1.42,1.22-2.48.33-.37,1.42-.56,1.66-.01.24.55.16,1.42.25,1.9.03.19.03.35-.02.51.32,0,.46.2.51.38.4,1.49,0-3.2,1.04-2.25-.36,1.32.37,1.39.88,1.43.68.05,1.15-.21.95-1.28,2.18,1.63-2.18,5.2,1.65,5.37l.97,1.84c.18.35,0,.55-1.17,1.46,1.77.1,2.26,1.62,3.09,2.12.67.41,1.79-.7,1.53-1.05-.16-.21-.26-.44-.83-.89-.2-1.77-.63-3.63-2.81-4.3.37-1.22,1.05-2.35.51-3.76-.36-.94-1.46-1.45-2.62-1.89l-5.26-1.98c-2.6-.98-5.45-2.89-8.28-.27-3.08.59-6.61,1.83-8.25,4.88-4.97,3.84-7.29,9.88-6.78,15.96,1.53,1.24,1.66,2.86.73,4.23,2.04,4.72,8.13,4.01,6.19,6.12,2.56,1.01,4.06.62,6.78.18-4.76,6.49-6.28,13.08-6.52,20.32l-.24,7.11c-9.96-.79-11.29,4.93-9.33,4.41l1.03-.27c5.79-4.11,11.62,2.56,15.56,7.59-4.51-3.03-9.33-3.92-13.66-1.58-2.05,1.11-4.3,1.45-6.35-.24-6.37-5.25-15.32-2.84-16.15.68-.64,2.7,5.42-2.75,9.42-.24l8.2,5.15c2.67,1.67,8.29-6.55,14.54-2.94l-3.49.61c-1.04.18-1.78.82-2.52,1.21-.94.49-1.04,2.83-.21,2.91,3.05-.05,5.65-1.53,8.61-.42l6.29,2.37c-.98.42-2.13.53-2.7.27-3.85-.29-8-1.01-10.6,1.21-.45.39-.16,1.79-.36,2.78-.46-1.72-1.96-1.99-3.26-2.8-4.11-2.52-8.22-3.19-13.15-3.32-11.66-.31-7.38,15.51-18.77,13.07-6.06-1.3-3.57-8.73-4.11-9.35-1.63-1.89-5.29,4.66-3.3,8.89,3.04,6.45,10.79,7.58,16.94,4.59.16,2.2-1.83,3.13-3.44,4.08-7.83,4.63-11.59-1.75-13.43-.31-.56.44-.64,1.34.01,2.04,4.6,4.94,11.74,5.14,16.87.54,4.55-4.08,12.16-8.97,16.08-5.09-9.99-1.49-11.34,5.35-15,10.89-2.73,4.12-7.86,5.07-12.19,2.78-.26,3.77,2.63,4.85,5.19,4.92,7.8.2,10.32-6.78,16.67-7.69-12.47,7.45-7.69,12.09-8.43,14.85-1.15,4.31-8.54,4.22-11.13.75-1.03.03-1.39,1.29-1.07,2.12.52,1.31,2.93,3.04,5.21,3.63-1.3,1.69-2.48,2.84-3.44,4.6-3.67,6.74-8.17,12.4-12.94,18.41l-3.62,8.17c-2,2.37-4.36,4.4-5.44,7.34-2.53,1.51-3.49,4.08-2.95,6.56-1.82,4.17-4.18,7.59-7.11,10.9-2.4,2.71-1.46,9.4-4.72,13.03-2.23,2.49-3.54,4.18-3.02,7.78.33,2.3.97,6.31-.53,7.74l-8.03,7.65-4.6,6.86c-3.66,5.46-3.82,17.81,2.83,18.51,1.24,1.67,3.65,2.74,6.18,2.42.53-.81,1.01-1.54,1.47-1.7.55-.19,1.64.99,2.35,1.06,5.34.56,8.75-4.21,8.76-9.06,0-3.41,4.1-3.99,4.66-7.39,6.63.92,1.25,7.89,7.54,11.77,1.98,1.22,6.08,1.52,7.62-1.12,2.24-3.82-1.56-10.11-.37-17.74.87-1.67,2.65-4.28,3.09-6.69,3.58-2,6.36-5.16,6.18-9.46.45-.95,1.49-2.55,1.02-4.01,5.03-3.8,7.52-9.12,7.78-15.34.08-2.01,1.65-4.11-.58-6.18l-2.07,4.69c-.8,4.75-2.52,8.82-5.48,12.26-.92,1.06-1.27,2.51-3.16,3.34-.97-6.39-6.61-10.04-12.67-9.71l6.59,3.7c5.08,4.58,7.19,13.05,5.02,14.37-1.36.82-2.41,2.33-3.45,3.41-.73-2.52-1.33-5.77-3.31-8.36-5.48-7.15-16.43-7.07-23.81-2.15,1.08-7.46,7.31-7.36,10.12-11.31-1.92-.17-3.06.46-4.72,1.09-.22-.62.15-1.36.35-2.17-.39-6.38,6.45-6.83,8.88-17.3.32-1.4,4.13-5.2,7.34-3.75-1.2-1.5-2.47-1.71-4.1-2.6.56-2.17,2.1-3.87,4.62-4.76,1.29-.46,1.23-6.94,6.79-13.39,3.66-4.25,6.58-8.77,9.56-13.37,1.61-2.49,3.55-4.59,4.2-7.72,3.88.16,8.15-2.18,9.14-5.93,1.6-6.07,10.12-8.95,15.32-6.04-.99.88-2.1.22-3.06.44-3.57.81-7.81,4.03-8.18,8.19-.3,3.42,4.14,5.48,6.64,4.14l-3.46-3.57c2.66-5.25,8.04-5.25,12.57-3.31l25.18,10.75,1.62.18c.51.06,1.53-.87,1.04-1.24-5.41-4.07-11.14-6.53-17.55-9.58,3.22-1.09,6.05-2.06,8.02-3.85,4.11,2.17,9.09,4.65,11.43,8.78.83,2.73-1.32,6.35-1.28,9.19l.16,10.57-12.03.25-21.02-2.63c-.28-.04-.87-.24-1.16-.15-.19.07-.43-.4-.42-.71.08-4.38.36-9.6-1.82-13.42-.63,6.11.25,12.34-.97,19.5,1.96-.97,1.98-3.08,2.56-4.56.53.99,1.45,1.2,2.67,1.41,10.78,1.86,21.27,3.01,32.33,2.1l-.76,7.1c-.77,7.26-1.42,14.32-3.64,21.36-2.02,6.41-3.75,12.64-4.01,19.33l-10.51-3.65c-1.23-.43-2.53-2.01-4.29-.62,4.2,3.49,9.01,5.28,14.23,6.84-.83,4.11-1.6,8.36-.39,12.45,1.09,3.65.16,7.39-1.48,11.06-8.08-.22-15.88-1.66-23.69-3.87-5.18-1.47-9.63-3.33-13.65-7.2-.99-.95-2.24-1.63-2.15-3.03.07-1.09.09-2.41,1.17-3.05l8.9,4.67c6.99,2.59,14.13,3.68,21.8,4.47-1.38-1.92-3.5-2.19-5.36-2.79l-20.59-6.6c-4.52.01-7.64-3.75-7.01-8.25-.17-4.21,2.13-7.79,4.16-11.37,1.93-3.42,3.05-6.95,6.09-9.94.32-1.99-.89-4.26.23-6.32,1.41,3,3.06,5.51,4.51,4.81.38-.18.49-.67.24-.9l-.75-.7c-.38-.35-.92-.98-.84-1.75.06-.57,1.64.42,1.74.83l1.19.49c.28.13.86-.05,1.08-.25.18-.17.6-.56.6-1.1,0-.37-.65-.48-1.05.22-.14-.51-.62-.92-1.51-.44-3.34-3.72.44-7.49-2.12-11.62,1.23-1.78,2.89-4.06,1.34-6.88l-1.78,1.24c-2.36,1.64-2.16-8-6.87-13.06-.36,3.79.7,7.01,1.44,10.33.44,2,.83,3.97,3.14,5.48l-6.47,8.64-7.55,8.29c1.97.91-.57,5.75-3.46,4.74-.86.44-.37,3.61.69,3.6,5.34-.07,4.97-8.3,11.26-11.35-.5,5.3-1.59,9.88-4.54,13.94-4.05,5.56-5.85,12.17-3.83,19.05,1.9.96,1.92,3.16.76,4.88.04,3.2,1.91,5.44,4.77,7.53-3.23,2.51-4.31,5.64-5.54,8.97-.84,2.28-1.74,4.1-2.09,6.51-.31,2.14-1.56,4.46-2.64,6.64-3.44,6.93-5.74,13.88-6.95,21.42-2.3,5.5-3.87,11.24-4.43,17.28-1.96,2.24-1.55,4.93-.57,7.53-2.46,2.32-3.24,5.41-1.38,8.52-1.99,2.94-2.43,6.25-.81,9.5-1.71,2.13-1.26,6.32-.49,9.45-3.58,7.37-3.47,17.34,1.91,23.49-1.52,3.67-1.08,7.74.3,11.49-.57,3.17-2.42,6.69-2.51,10.05-20.24-1.44-40.45-8.38-59.79-8.86-10.91-.27-26.1,2.79-28.41,13.58-1.48,6.91,2.26,13.67,7.67,17.56,6.95,5,14.36,8.34,22.54,10.61,10.39,2.88,20.76,4.56,31.61,5.31l22.03,1.52,23.28,1.79,70.78,4.22,40.38,2.9,22.54,1.79c12.8,1.02,25.34,1.73,38.56.83,1.2-.81,2.47-1.35,3.93-.54,11.83-1.21,23.19-4.92,32.01-12.47,8.08-6.91,9.64-18.18,2.99-26.61-5.8-7.36-21.57-8.69-31.45-7.8ZM139.71,317.54c-.99,1.83-4.44.29-4.78-1.61l-2.02-11.23c-.22-1.22-.51-4.28-2.26-3.82-3.75.98-6.65,3.67-8.34,6.87-3.56,6.73-2.51,12.61-6.39,13.97-1.02.35-2.99-.51-2.84-1.97.77-7.78,4.93-16.02,4.37-17.33-.17-.39-1.18-.62-1.59-.04-4.9,7.06-4.92,15.24-7.31,19.69-.55,1.02-2.87-.49-2.8-1.97.21-4.1,1.11-7.56,2.36-11.32l1.94-5.82c.17-.51-.16-1.02-.38-1.11-.38-.16-1.14-.1-1.47.49l-3.38,6.06c-1.86,3.33-.71,7.51-2.87,11.18-.98-7.52,1.7-14.88,6.63-20.15l6.83-5.78c5.93-5.02,14.54-5.51,20.42-.09l2.81,8.9.97,8.01c.25,2.08,1.11,5.18.09,7.08ZM141.12,288.15l-.34,4.73c-.09,1.3,1,2.7-.38,3.89-.73-1.8-.3-2.15-.08-3.32-.98.39-1.26.07-1.58-.45-.54-.88.77-3.33,2.37-4.86ZM138.62,285.03c.43.72.29,1.66-.03,2.38l-1.44,3.26-2.52-1.84c1.12-1.28,1.63-2.88,2.35-4.71.59-.31,1.37.46,1.64.91ZM131.66,280.9l3.73,1.61c-1.95,1.75-1.96,4.89-3.06,5.28-.57.2-2.04-.18-2.61-1.02l1.94-5.87ZM125.09,280.99c1.63-.39,2.91-.5,4.58-.19l-1.26,4.98c-.37,1.48-3.24,1.33-4.34.44.96-1.85,1.3-3.36,1.02-5.23ZM117.31,286.63c.43-.26.5-.68.68-1.11.91-2.22,2.96-3.86,5.2-4.54.36,2,.4,4.62-1.18,5.77l-3.33.51c-.27.7-.69,1.15-.97,1.26-.49.2-1-.14-.86-.82.08-.39-.08-.73.47-1.06ZM275.87,467.58c-9.19,2.25-18.94,1.88-28.27-.37-2.28-.55-3.89-2.06-4.23-4.25,8,3.79,22.52,4.17,31.29,2.44,2.15-.42,3.77-1.22,5.27-3.29.37,2.34-1.36,4.82-4.07,5.48ZM276.55,421.29c.25.57-.55,1.36-.71,1.72l.92,11.59c.54,6.75,2.87,12.58,1.94,18.71-1.23-3.03-2.35-4.69-4.88-5.57-5.21-1.8-10.51-3.59-16.32-2.42-.63.13-1.1.68-1.02,1.05.57,2.37,7.07-.45,12.43,1.39,4.08,1.4,8.03,3.38,9.12,7.61.44,1.7.38,3.67-.44,5.19-.61,1.13-2.2,2.43-4.16,2.48l-16.43.42c-4.23.11-8.13-1.04-11.74-2.89-.63-1.44-1.24-2.58-2.26-3.82l-.81-13.94c2.39.63.6,2.8.85,3.56,1.08,3.28.55,6.36.75,10.15,1.9-4.06,3.8-7.01,8.1-8.08,1.55-.39,3.37-.94,4.35-2.56-4.38.08-7.2,1.79-10.63,4.4,2.46-6.88,17-8.96,25.51-4.93,1.79.85,3.22,1.81,4.66.35,1.11-1.13,1.29-3.42.55-4.62-.15-.3.93-.87.86-1.2-.1-.43-1.34-.8-1.89-.92-1.04-1.43.24-3.89.48-5.63.23-1.72-2.63-2.71-4.03-3.12l3.15-7.73c1.17.43,1.92-1.21.09-.91-.25-.8,1.36-.74,1.56-.28ZM246.53,419.3c-.23-.4.42-.89,1.22-.38,7.8,5.02,17.49,5.3,25.03.07.73,7.05-6.81,8.02-14.8,8.23-4.83.13-9.74-1.51-13.03-5.12-1.12-1.24-2.35-3.07-1.13-4.71.55,1.75,1.52,3.74,2.94,3.32.26-.08-.09-1.18-.22-1.41ZM272.94,437.18c-3.92-2.43-8.1-1.91-12.08-2.35-3.62-.4-9.07.28-11.61,3.69l-1.05-5.38c2.4-2,5.03-2.31,7.81-2.37l7.76-.18c3.2-.08,6.3,1.22,9.36,2.75.24,1.35.41,2.21-.2,3.84ZM273.4,444.29c-7.72-4.11-16.34-4.46-23.88-.56-.84-.41-.84-1.95-.46-2.54,3.6-5.62,27.23-3.93,24.34,3.11ZM246.42,440.59c.63,2.27,1.38,4.6-1.09,6.24l-1.81-15.65.15-5.86c2.39,1.04,3.84,2.29,5.43,3.8l-4.41,4.83c1.67,1.72,1.08,4.3,1.73,6.63ZM262.78,314.27c3.76,2.28,5.48,6.19,5.54,10.56-2.49-2.76-5.23-3.63-7.99-5.02l-1.83-.92c-.95-2.35-1.51-4.92-1.36-7.79,2.83-.39,4.03,2.18,5.64,3.16ZM266.8,343.4c-3.44-.57-5.57-2.83-6.1-6.29l-2.38-15.62c1.99,1,5.3,1.98,5.69,4.37l2.8,17.54ZM257.73,308.16c-1.44,1.06-2.7.67-4.86,1.2,2.92,9.55,3.95,19.23,6.13,29.02,1.21,5.45,9.37,8.67,6.19,12.81l-5.66-3.99c-.19-.13-.87-.14-1.06-.05-.26.13-.3.99.02,1.28l6.86,6.22c.34,1.24.29,3.07.39,4.67-.61.12-1.34.04-1.54.67-.11.37-.62.96-.14,1.32.45.33,1.19.58,1.84.54l1.65.55c.73.24.51,2.49-.4,2.19-4.15-1.39-6.46-6.25-8.19-5.33-1.22.65,2.33,7.22,7.49,8.43,1.52.36,2.91,1.3,2.49,3.23-1.25,5.67,3.99,8.67,3.17,17.85-.26,2.97,1.31,3.6,2.35,5.76,2.77,5.73,2.93,14.25-2.84,18.63-3.79,2.88-8.4,2.85-12.79,2.84-6.96-.02-14.4-2.02-18.92-8-2.54-3.37-2.83-8.11-2.76-11.7,1.55.4,1.1,2.06,1.73,1.43.39-.4.61-.91.48-1.43l-1.87-7.21c3.8,4.17,8.21,6.87,13.32,8.95,3.61,1.47,7.06,3.19,11.29,1.98-.67-1.75-2.37-2.55-4.05-3.15-7.21-2.6-14.36-4.86-20.67-9.52-2.17-1.6-3.02-5.23-3.3-8.2l6.22,5.8c.6-1.25.23-2.66-.7-3.6l-5.09-5.13c-.49-.49-.57-1.2-.41-1.56.27-.61,1.22-.91,2.06-.64-1-3.39-3.62-5.24-5.02-8.19l-.8-1.69,1-1.44c-.78-1.91-.1-3.54.92-5.04-4.71-6.92-5.54-14.04-9.62-20.98l5.31,4.38c.46.38,1.1-.93.92-1.27-.98-1.93-4.41-3.11-7.81-10.65-1.06-2.34-3.09-4.41-2.53-7.1,2.52,2.74,4.84,5.53,8.56,6.21-2.08-3.33-5.32-5-8.08-7.21-.79-.63-2.4-.79-1.61-3.19l4.34,1.63c-.34-2.23-2.34-2.86-4.46-4.49,1.84-1.32,2.87-2.86,4.07-4.42,3.9-5.07,9.38-9.12,16.12-10.42-.9,1.51-3.16,2.13-3.23,4.08-.03.85,1.26,1,1.77,1.11.86.19,1.62-.94,2.34-1.36,4.4-2.59,9.23-3.06,14.24-3.58l.05-1.23c-3.03-1.76-5.53-1.16-8.9-.96l7.37-4.06c3.22,4.59,5.31,8.87,6.62,14.04ZM221.96,333.91c-.94.02-2.27-1.17-1.58-2.63l1.58,2.63ZM210.21,300.94l1.2-8.98,7.64.98-.44,7.5-8.4.5ZM254.26,284.58c-.2.72-.61,1.1-1.3,1.92-7.58,9.05-19.78,11.43-31.84,13.87-.56-2.33-.41-4.63.5-7.28,11.4,0,22.23-3.44,31.39-10.64.7-.48,1.44,1.45,1.25,2.13ZM252.63,273.72c-3.27-1.56-9.33-7.87-9.11-9.52.15-1.16.71-2.16,1.94-2.83-.15,4.26,5.47,7.28,7.17,12.35ZM311.36,282.63c-1.33.62-5.55-3.59-5.15-6.38,4.24,2.22,7.17,5.45,5.15,6.38ZM312.45,278.82c-1.62-1.78-3.42-2.95-5.51-4.25.46-1.34,1.16-2.08,2.07-2.94,2.43,4.56,7.32,4.13,3.44,7.19ZM314.4,275.63l-5.23-4.8c.55-.49,1.56-1.18,2.11-1.03,2,1.18,3.34,2.74,4.67,4.25-.32.39-.87,1.12-1.55,1.58ZM319.12,266.03l4.02,3.9c-1.12,1.15-2.96.62-3.6-.38-.52.06-.76.24-.82.56.64.83.45,1.35-.2,1.88-.87.7-1.36.34-2.18-.38l-4.22-3.68c2-1.81,3.37-.6,4.73.5-.07-.29-.08-.53-.02-.7.12-.32.4-.42.82-.38l-1.57-1.72c1.14-.99,2.36-.26,3.04.4ZM270.37,210.73c3.12,3.95,6.25,7.5,8.28,12.29.76,1.79,1.97,3.29,3.56,4.18,5.1,2.83,5.99,8.67,4.25,13.7-.87,2.49-1.82,4.09-5.13,4.79,2.57,1.47,4.56.07,5.83-.81,2.87-1.98,2.18-5.19,3.58-8.59,1.62,3.89,4.25,6.34,7.73,8.73l4.88,3.34c2.73,1.07,4.46,3.18,5.77,6.17-4.76-.39-6.01,4.4-9.75,7.29.4.66.2.9.21,1.05,0,.23.92.51,1.22.22l5.68-5.45,3.58-2.58,7.56,5.84c-6.95,2.95-12.7,8.4-14.78,15.73.21,5.35-2.79-1.73-8.39-2.02-1.89-4.85-5.55-8.14-10.36-10.04-5.01-1.98-8.65-6.17-12.05-10.05,1.22-.83,1.58-1.2,1.78-1.7.31-.75-.51-1.71-1.17-1.56-7.71,1.73-7.23-6.15-14.36-11.77-.68-.54-1.55-1.87-1.26-2.61l2.32-5.97c.62-1.6.18-2.71-1.6-3.31-.85-.29-1.99.26-2.29,1.95-.88,5-2.96,9.46-5.05,13.98-1.09,2.37-1.28,4.99-4.37,5.73.91,1.36.44,2.2-.09,2.75l-5.44-5.22c-.39-.37-.47-.8-1.14-.61-2.88.81,2.22,3.3,4.87,8.5.31.45,1.09.31,1.28-.17l1.05-2.59c2.72,4.9-4.86,6.33-5.29,11.62-.21,2.58,1.1,3.91,2.81,5.83,2.77,3.1,5.3,6.01,8.83,8.76-.72,1.93-2.22,3.04-3.94,4.17-7.28,4.81-15.84,7.41-24.34,8.22-3.25.31-4.39-4.63-3.49-9.83,5.68.65,11.5,2.17,16.9-1.19l-16.01-1.46,1.34-12.92c4.92.42,9.05.9,13.76.22l1.42-.21c.53-.08.62-1.19.24-1.29-4.53-1.22-9.85-.77-15.28-.85,3.87-11.91,5.65-23.62,6-36.23,7.9.18,15.66.4,23.26-1.18l8.78-2.53c1.62-6.88,3.46-14.31,3.23-22.1,3.06,2.62,3.21,6.77,5.57,9.77ZM255.04,193.28l7.89,4.68v10.22c-1.03,3.66-2.76,6.82-2.04,10.97.07.4-.19,1.08-.29,1.36-.18.51-1.16.97-2.01.54-5.64,2.42-11.17,3.68-17.23,3.4l-11.75-.07c.16-3.59-.66-7.92.78-11.33,1.24-2.38,4.49-3.48,6.5-4.98l13.99-10.41c1.54-1.15,2.83-2.41,4.16-4.38ZM228.3,183.92c-1.92,2.2-2.06,4.25-1.94,7.59-3.61.15-6.34-.09-9.87-.69l1.31-7.02,4-4.46,6.51,4.58ZM216.72,178.14c1.08-.41,2.15-1.07,3-1.83.84-.74,1.76-1.45,3.3-2.2-1.21,1.87-2.8,3.83-5,4.53-.39.44-.9.58-1.33.74l-4.17,1.53c.95-1.91,2.92-2.27,4.21-2.76ZM210.94,173.91c.68-1.77,1.99-2.37,3.7-2.97,1.67-.59,3.09-2.41,5.15-1.64l-8.85,4.61ZM238.01,151.55c-12.7-3.19-25.25,1.89-33.07,1.11-.61-.06-.83-.76-.95-1.12-.15-.46.05-.98.83-1.25l15.72-5.43c6.38-2.2,12.73-4.09,19.59-4.5l-2.11,11.2ZM228.76,154.79l-2.33,3.08c-.92,1.22-2.45,1.86-3.8,2.35,1.04-1.83,2.18-2.88,3.22-3.99l2.63-2.82c.34.52.31,1.02.28,1.38ZM209.68,161.93c-.25.15-.46.6-1.09.67.05-1.44,1.15-2.16,2.15-2.47,2.11-.65,3.85-1.51,5.47-3.67,1.07,2.48-2.92,4.12-6.53,5.47ZM225.91,139.5c-2.05,1.47-4.64,1.77-7.55,2.67-1.59-2.92-1.78-6.35-2.51-9.65l7.84-2.46c-.04,3.57.5,5.83,2.22,9.45ZM224.69,129.81l7.31-2.86c.67,3.65,1.24,7.06,3.25,10.29l-7.61,1.97-2.95-9.4ZM216.34,143.11l-8.26,2.22c-1.29-3.52-1.79-6.84-1.95-10l7.87-2.34c.16,3.73.95,6.74,2.34,10.13ZM259.3,127.25c.37.2,1.32.09,1.48-.28.2-.47-.27-1.32-.44-1.7l-2.52-5.68c3.22-.12,5.46,5.08,5.39,9.32-11.2-.66-23.95,8.27-26.36,7.93-.46-.07-.76-1.24-.91-1.74l-2.59-8.86,6.87-2.73c.38,3.32.17,6.69,3.22,8.78-.09-3.49-1.86-6.06-2.54-9.16l5.39-2.05,3.64,8.89c.14.34,1.5,0,1.38-.2l-.66-1.03c-.91-2.91-1.8-5.5-3.42-8.05l3.59-1.34c2.76,2.37,3.62,5.56,5.25,9.22,1.36-3.42-1.81-5.96-2.8-8.89,4.55-3.2,5.27,7.16,6.04,7.57ZM253.01,115.02c-1.2,1.25-2.42.83-3.1-.11-2.88-4.01-6.52-6.53-10.03-9.97,5.49,2.04,9.07,6.32,13.13,10.08ZM194.22,122.41c.9-5.42,4.06-9.99,7.95-13.87l3.8-1.83c1.47-1.48,2.32-1.97,4.5-.83-.42-1.02-.2-2.05.57-2.47,6.83-3.71,16.31-1.87,24.1-.43,1.28.24,1.88.97,2.31,2.02,4.67,3.12,8.66,6.8,11.9,11.24l-2.36,1.24c-.8.42-1.65.33-1.52-.95-3.3-5.35-8.13-9.76-13.64-12.69-.57-.3-1.11.4-.76.78,5.48,3.13,10.24,6.91,13.5,12.93-.56.85-2.47,1.97-4.05,1.71-1.41-.23-1.62-2.51-2.33-3.39l-4.72-5.9c-1.67-2.09-3.46-4-5.91-5.14.06-.37-.17-.48-.33-.55-.27-.12-1.37.04-1.32.31.2,1.14,7.21,4.16,11.14,12.4l2.17,3.25-5.76,2.65-3.63-6.42c-2.33-4.12-4.41-8.79-9.08-11.37l5.7,8.01,2.8,6.4c.68,1.56,1.91,2.78,1.57,4.52l-6.92,2.49c-1.1-.95-1.09-2.29-1.65-3.33l-6.83-12.77c-.87.52-.42,1.77-.13,2.4l6.62,14.36c-2.27.55-3.69.98-5.65,2.16-2.76-6.06-4.23-12.23-5.65-19.1-1.87,4.48,1.22,14.34,3.61,19.34l-5.07,1.63-3.34-12.14c-.52-1.9.88-4.19-.66-6.26-3.05,8.79,3.14,18.07,1.26,19.16-.8.46-1.63.55-3.25.98-2.4-6.2-2.67-15.5-.49-22.29-5.02,4.24-2.86,15.64-1.8,22.81l-3.61,1.16c-1.21-5.96-.65-12.58,1.07-19.1-2.27,3.11-3.95,7.28-3.76,11.24.15,3.11,1.13,5.57-.22,8.68-.21.26-.52.4-.84.36-.32-.04-.59-.25-.71-.55-.16-.41,0-.87.4-1.1-1.48-3.78.36-7.77,1.02-11.78ZM198.21,146.89l-.97-.53-5.17-6.23c1.8-1.76,3.26-2.47,5.78-2.46-.8,1.9-.19,3.48-.39,5.86.38.36,1.05,1.01.75,2.06.67.14.83.55.79.78-.06.36-.58.64-.79.53ZM200.01,146.92l-1.14-9.6,5.6-1.71c.33,3.45-.17,6.49,1.7,9.91-1.81.83-3.66,1.37-6.17,1.4ZM198.26,160.93c-2.35.7-4.29.66-6.91.35,1.73-1.83,4.65-2.43,6.91-.35ZM169.52,158.99c1.41-.9,3.22-.57,4.46-.78l.55-.09c.3-.86,1.97-.91,2.38-.11l1.04.06c3.59.21,7.17,1.2,9.2,4.24.57.85,1.45,2.45,2.59,3.04,4.03,2.08,9.37,1.19,12.66-1.91.22,4.58-9.21,5.26-12.51,3.42-2.91-1.62-5.31-3.73-8.54-4.65,1.44-.89,3.01-.21,3.8.32.38.02.9-.34.84-.67-3.43-2.37-7.59-3.04-11.37-2.54-.22,0-.39.06-.54.13-3.62,1.62-6.25,4.42-10.18,6.7,1.08-3.06,3.1-5.55,5.62-7.16ZM176.83,166.97c-3.77-.22-6.29,1.08-9.44,3.63-.2-1.95,2.02-2.91,3.77-3.69,6.34-2.86,16.02,1.34,15.79,3.09,1.04-.07,2.22,1.14,3.32,1.09l5.9-.24c-1.25,1.25-3.2,2.41-4.69,1.86l-4.07-1.48c-.71,1.91,1.23,3.66,3.25,3.72l6.74.2c-11.7,4.9-12.77-7.73-20.56-8.18ZM172.42,178.58c-.5.25-.91.83-1.64.69-.65,1.26-2,1.53-3.1,2.59l.15-.69c.9-1.32,2.22-2.15,3.43-3.15.21.05.44.05.62.01,0-.54.33-.62.82-.63.38,0,1.03-.02.87.85-.08.42-.82.38-1.14.32ZM172.35,191.23c-1.99,1.31-3.51,2.97-5.54,4.62.56-2.94,2.77-4.79,4.91-6.56,2.98-2.45,7.52-3.2,10.87-.98-3.86.72-7.36,1.02-10.24,2.91ZM186.64,191.3c1.11-2.14,2.79-.57,4.2-.18l4.22,1.16c-2.92,1.19-5.88.51-8.43-.98ZM178.57,178.24c2.59-.65,4.58.48,6.53,1.4,5.49,2.57,11.61,2.31,16.56-1.1,6.8-4.68.82-12.19,16.38-14.71,3.21-.52,5.72-1.51,8.58-1.86,2.55-1.12,4.05-3.17,6.11-5.5.05,3.15-2.1,5.61-4.34,7.04-4.69,2.99-17.03-1.15-20.9,10.64-1.93,5.88-5.84,9.45-12.35,9.85-6.02.37-11.71-1.9-16.59-5.76ZM198.57,189.84c2.37-1.82,4.96-2.04,6.74-4.05l4.3-5.79c-1.68,5.08-5.12,9.63-11.04,9.84ZM212,191.43c-.45.57-.94,1.44-1.7,1.7l-.55.06c-.52,1.11-2.2,2.13-3.44,1.5l3.29-2.2,1.64-1.76,3.57-5.71c.23,2.36-1.01,4.16-2.14,5.59l-.66.83ZM214.52,193.94c3.75.25,6.43.96,10.6.52-.53,3.89-9.29,3.28-10.6-.52ZM219.24,233.03l.95-20.31c.19-4,2.27-7.71,5.3-10.36l14.96-13.06c3.75,1.2,6.84,1,10.88,1.27-5.05,7.12-11.79,12.03-18.56,16.95-1.97,1.43-3.28,3.45-4.96,5.38l-.92,23.69c-.35,8.96-2.62,17.25-5.74,26.02-2.32-.49-4.09-1.21-6.69-2.47,2.68-8.96,4.34-17.75,4.78-27.12ZM213.62,262.76l6.97,2.21-.79,12.23-8.46-2.12c.18-4.28,1.4-8.11,2.29-12.31ZM210.92,277.93l7.65,1.91.45,7.95c.05.95,1.13,1.71.65,3.12-2.55-.6-7.29-.66-9.05-3.11-1.88-2.61-.11-6.88.3-9.87ZM209.08,321.8c4.39,1.01,5.12,5.01,6.66,8.55l6.83,15.63c1.8,4.13,2.44,8.46,5.29,12.29-2.31,3.92-1.76,8.53,2.57,11.2-1.44,7.28-.29,14.38,3.62,20.72-1.38,6.73-.79,13.34,1.7,19.46.87,1.82,1.98,3.33,3.98,4.86-.78,3.49-.2,7.03.82,10.48-1.08,6.37-1.17,12.35-.78,18.69l-20.69-.82-35.27-.9-.43-12.13c-.09-2.48.4-4.26-.6-6.79l.33-5.58c.05-.77-.98-1.49-1.03-1.97-.12-1.23,4.9-5.63,4.07-12.8.93-3.75.42-7.48-1.81-10.75,2.02-3.78,2.8-7.71,2.29-11.97.5-2.44.44-4.99-.81-7.25,4.41-3.04,5.54-8.35,1.99-12.6,5.75-6.65,9.35-14.1,13.15-21.57,1.67-3.28,2.94-6.32,4.03-9.95l4.08-6.8ZM195.17,457.39c-.02.13-.13.31-.3.4l-12.17-.31-.02-.79c.9-.3,2.01-.4,2.95-.32-.17-.43-.67-.41-1.3-.89,1.77-.07,3.63-.14,5.53-.08l7.31.22,10.11,1.17c.31.07.34.33.3.46-3.18.31-6.45-.52-9.76-.5l-5.59.21,2.94.42ZM184.63,453.76c4.91.38,8.41-.07,6.53,1.08-.79.49-1.07.03-1.74-.32-1.61-.09-3.67,1.08-4.79-.77ZM192.21,454.64l5.95-.37c.3.13.34.38.3.55l-5.93.24c-.24-.11-.31-.34-.32-.42ZM207.23,455.61c-2.95.47-5.84-.37-8.8-.39.04-.25.22-.38.35-.41l8.49.26c.78.09.3.77-.05.54ZM192.15,452.41c-1.3-.03-2.64-.11-3.98-.07-1.41.04-3.04.68-4.08-.9l7.91-.32c.14.13.17.42.1.55l.62-.1c2.71.36,5.78-.14,9.06,1.06l-9.63-.22ZM187.87,444.72c1.22-.55,2.27-.17,3.51-.09l5.65.37c-3.31.74-6.26.52-9.16-.28ZM195.39,447.41l-7.08.4c-.23-.1-.31-.29-.32-.39l7.08-.4c.23.1.31.29.32.39ZM198.82,449.69c.72.05.53.83-.1.68-1.27.24-.98-1.12.1-.68ZM201.01,450.86c-1.27.24-.98-1.12.1-.68.72.05.53.83-.1.68ZM197.94,448.03c-.2-.11-.3-.28-.32-.33,1.01-.42,2.09-.29,3.11-.31.2.11.3.28.32.33-1.01.42-2.09.29-3.11.31ZM191.51,346.76c.38.82-.09,1.91-1.07,2.54-.26-.75-.03-1.71,1.07-2.54ZM192.09,346.57c-.11-.84.33-1.93,1.31-2.46.1.84.01,1.67-1.31,2.46ZM195,341.22c.1.84.01,1.67-1.31,2.46-.11-.84.33-1.93,1.31-2.46ZM195,340.38l2.94-6c.17.21.36.31.38.31-.41,2.14-1.93,3.77-2.69,5.73-.26.48-.64.08-.64-.05ZM198.72,332.9c-.06-.59.21-1.04.84-1.31.2-.09.59.48.29.74-.16.13-.42.35-.53.59-.21.44-.57.2-.6-.02ZM204.75,306.24c-5.39-.16-11.33-.6-15.7-4.33l15.7,4.33ZM171.52,296.22c1.09-.41,2.74.45,4.46,1.5-2.98.62-5.96,1.69-8.94,3.68.91-2.14,2.57-3.68,4.47-5.18ZM147.32,392l5.37,5.21c4.4,2.76,9.32,4.33,14.42,5.6,1.59.39,3.57-.02,4.91-.84.47-.33.18-1.34-.37-1.51-10.46-3.23-27.95-6.87-24.58-18.33l2.16,2.4c2.29-3.95-2.85-7.64-1.83-11.53.74.29,1.35,1.45,1.54,2.22.04.23-.48.69.13,1.01.41.21.6-.07.83-.14.34-.1.36-.49-.19-.99-.77-3.2-2.76-5.73-1.74-9.45,3.32,7.02,8.25,12.59,14.12,17.95l5.85,5.35c1.04.95,2.12,1.34,3.3.81-1.43-4.2-3.87-6.86-7.04-9.59-5.62-4.82-10.7-10.11-14.37-16.04.75-6.94.56-11.07,2.51-17.76l6.15-21.11,7.2-17.23c.68-1.62.84-2.27,2.3-3.13,4.52-2.68,9.34-4.43,14.93-4.72,3.33,4.75,8.24,7.21,13.42,8.59-4.48,1.04-8.17-2.22-12-2.27l-5.33-.07c-.32.78-.12,1.65.28,1.67l2.19.13,19.12,4.61c.24.93,1.1,1.94,1.75,2.65.47.52,1.29-.35,3.02.04-1.96,1.62-4.24,2.39-6.48,3.56-.04.89.79,1.46,1.45,1.31.84-.19,1.44-1,2.89-.79-1.39,4.67-10.09,8.82-11.74,8.71-.43-.03-.64,1.09-.29,1.26,2.48.4,5-.55,7.55-1.12-2.57,7.36-6.33,13.49-10.25,19.64l-3.24,7.46c-1.34,3.07-3.13,5.8-3.17,9.62l4.51.39c-1.47,2.81-5.84,1.44-5.65,3.8.17.52,2.08.25,2.48.63.48.45.23,2.08-.45,2.67-.14.12-.41-.25-.67-.24-.22,0-.51.28-.54.49-.06.35-.06.43.13.44l1.69.08c-1.17,1.78-1.26,5.11-.32,7.48-.66,4.89-8.09,6.5-6.27,8.81.91,1.16,2.48-.54,4.59-1.14-.61,2.05-1.4,5.49-.39,6.94,2.11,1.22,1.03,3.4,1.18,5.11.74,8.14-4.41,14.09-12.53,14.83-6.29.58-12.64-.1-18.2-3.57-7.03-4.38-8.05-12.75-4.31-19.91ZM185.41,363c-.34-.2-.9-.53-1.23-.48-.26.04-.16-.79.44-.97.44-.13.57.32.74.38.31.11.28,1.19.05,1.06ZM175.38,454.82c-.66-3.53-2.2-4.73-4.61-6.05-1.33-.73-2.27-2.38-4.17-3.19,3.03-1.24,4.9,4.53,7.52,2.16.75-.68,1.28-1.61,1.6-2.86.73.17,1.61.46,3.1-.44-.22,3.73-1.51,6.94-3.44,10.38ZM177,456.01c-.37,2.92-2.59,6.08-5.44,6.94-9.59,2.89-19.56,2.34-28.95-.22-1.16-.99-2.54-1.23-2.04-3.86,6.54,4.05,19.98,4.4,28.11,3.13,3.85-.6,6.38-2.67,8.32-5.99ZM151.46,432.96c4.64-3.13,10.38-2.15,15.34-1.55,1.96.24,3.95,1.23,5.76,1.93,1.43.55,1.11,1.65,1.15,2.56.03.79.51,2.25-.64,2.86-6.83-3.9-15.29-4.73-22.49-1.51-.56-.85.07-1.23.22-1.64.22-.61.54-1.2.98-1.21l1.82-.05c5.26-1.67,10.61-.72,16.37.5-5.11-4.6-11.83-2.58-18.5-1.9ZM153.9,425.27c-3.01-1.32-7.26-6.06-4.99-9.06.47,1.87,1.81,3.12,2.92,2.12,4.93,3.47,12.03,5.47,18.82,4.13l4.26-1.7c.72-.29,1.18,1.86,1.03,2.85-.58,3.73-13.68,5.31-22.03,1.66ZM175.67,434.7c2.38.81,2.33,5.99,1.08,6.7-.54.31-1.84-.19-1.81-.85,1.48-1.47,1.58-3.72.73-5.86ZM174.07,430.97l5.49-7.63c.85,6.19.77,11.85.13,18.47-.98-4.88.96-8.74-5.62-10.85ZM177.64,419.73c.13-.43.26-.7,1.13-1.32.42.1.31,1.51-.29,1.9-.72.47-.96-.19-.83-.59ZM148.51,425.39c2.1,1.06,3.65,1.89,4.79,4.08-6.75,3-4.48,7.52-8.02,11.45l3.23-15.53ZM151.42,439.26c6.27-1.97,13.15-.76,19,2.17,1.49.75,2.36,2.73,1.41,4.23-8.37-6.1-18.85-7.17-27.46-1.73,1.22-2.96,4.28-3.8,7.05-4.67ZM143.51,447.58c1.74-1.37,3.44-2.68,5.43-3.39,5.41-1.93,11.81-2.14,16.73.42-4.83.11-9.1-2.52-13.37.77,9.7-.35,22.15,1.8,20.4,11.21-.93,5.01-27.02,4.3-30.45-.13-1.73-2.23-.77-7.29,1.25-8.88ZM352.48,477.09c-9.28,2.44-18.45,3.99-28.11,3.54l-16.44-.76c-45.42-3.91-90.61-7.06-136.49-8.55-12.58-.41-24.07-1.41-36.43-2.66-23.46-2.38-48.88-2.41-68.9-16.05-3.9-2.66-6.95-7.01-6.56-11.49.45-5.21,4.86-7.98,9.21-9.54,15.69-5.61,35.99-.03,51.61,2.29l21.72,3.24-3.67,11.23c-.85,2.61-.62,4.76-.86,7.61-.13,1.49-2.08,3.45-1.05,5.28.66,1.17,1.6,3.42,3.7,4.14,8.81,3.06,18.66,3.41,28.1,2.3,5.36-.63,10.38-3.07,12.24-8.5,5.96-.58,11.47.27,17.39.43l-2.4-2.57,7.39.74c3.52.35,6.02.06,8.3-.17-.78-2.02-1.77-1.79-3.4-2.28l7.34-1.41-9.74-1.99,3.62-1.63-5.79-2.17c1.27-.78,2.3-.19,3.84.13-.58-2.15-3.53-2.1-5.24-2.28l-3.75-.4c.05-.14.21-.34.35-.48l8.93.42,31.95,1.1-.85,7.8c.73,3.27,1.86,6.13,1.26,9.76-.73,4.43,6.96,7.45,12.94,7.98,5.18.46,10.35,1.07,15.47.59,6.5-.6,15.56-1.77,15.94-7.54l13.58.05c-1.45-2.16-3.95-1.31-6.1-1.58l-6.93-.86,18.35-.04c-4.26-1.96-8.78-1-13.02-1.74l-3.17-.56c1.47-.63,3.07-.34,4.57-.39l2.83-.11,1.14-.1,16.05,1.1c-3.15-2.32-7.03-1.7-10.62-2.2l-13.52-1.89c-.98-.14-2.2.56-2.77-1.04l13.52.45c1.92.06,3.63.19,5.17.43.72.11,1.89,1.53,2.94.11-1.8-.97-3.4-1.15-5.12-1.3l-16.56-1.45c0-.19-.23-.68,0-1.11l9,.52,19.43,1.15c-1.77-1.69-4.29-1.03-6.45-1.41-5.36-.94-10.47-1.05-15.66-1.32-2.26-.12-4.5-.73-6.54-.16-.27-.06-.66-.25-.79-.43-.15-.21-.1-.93.15-.91l8.03.56,10.33.05c-2.19-1.57-4.86-1.43-7.51-1.76l-6.94-.87c-.82-.1-1.9.76-2.71-.55,2.6-.18,3.96.1,5.85.11l8.19.07c.25-1.35-.75-1.03-1-1.05l-.69-.06c-1.9-1.14-4.34-1.04-6.86-1.03-.54,0-1.27-.71-2.25-.48-2.06.47-3.96.03-5.68-.53,1.24-1.16,2.81.08,3.65.03l32.6-1.66,11.29-.96,9.13-.84c6.95-.64,13.64-1.04,20.77.42,5.03,1.03,10.6,4,12.11,9.17,3.11,10.62-8.16,19.18-17.94,23.2l-1.49,2.88ZM355.55,476.21c1.82-2.25,4.12-2.53,6.47-3.21-1.88,1.58-3.91,2.65-6.47,3.21ZM367.51,469.83l-1.65,1.4-.1-.81,1.7-1.28,6.49-7.94c-1.24,3.26-3.63,6.25-6.43,8.62Z"/>
  <path class="st0" d="M254.62,137.27c-3.57.8-4.77,4.42-4.92,7.93-.65,3.03-.06,5.99.02,9.07,1.65,2.26,4.12,5.13,6.96,4.7,1.81-.27,3.59-3.05,4.73-4.35l3.24-3.69,5.89-14.28c-5.73-1.76-10.61-.57-15.93.63ZM254.7,154.12c-.46.78-1.4.91-1.74.61-.32-.28-1.31-.73-1.32-1.37-.07-4.71.39-9.85,3.26-14.36l-2.2,12.5c-.08.46-.04.85.14,1.37.09.25.41.48.75.1l.72-.81c2-4.65,4.29-8.95,7.17-13.03.58-.82,1.12-1.42,2.15-1.62.09,1.05-.4,1.7-.96,1.81-3.22,4.55-6.07,9.36-7.97,14.81ZM261.47,150.36c-.15.28-.51.37-.75-.04l6.41-12.09c.06-.03.43-.13.65,0l-6.31,12.13Z"/>
  <path class="st0" d="M132.76,485.05l-25.82-1.44c-.14,1.68,1.19,2.94,2.79,3.06l28.81,2.31,15.31.61c1.81.07,3.86-.01,4.95-1.93l-15.32-1.81-10.72-.82Z"/>
  <path class="st0" d="M72.89,469.46c-5.03-2.53-10.1-3.82-15.47-5.17-5.83-1.46-11.35-3.45-17.39-3.17.39,1.75,1.89,3.15,3.44,3.51l23.19,5.45c3.11-2.2,4.57,2.03,6.24-.63Z"/>
  <path class="st0" d="M37.07,403.54c9.16,4.49,18.25,9.15,27.78,12.3-3.84-5.37-9.45-6.61-14.12-9.51l-14.68-7.1c-.7-.34-1.39-.57-1.88-.14-1.19,1.05.99,3.51,2.9,4.44Z"/>
  <path class="st0" d="M278.23,488.71c-10.32-1.33-20.36-2.77-30.76-2.1.38,2.41,2.45,2.38,4.22,2.52l30.65,2.37c-.47-2.42-2.35-2.56-4.1-2.79Z"/>
  <path class="st0" d="M97.26,480.36c-3.34-2.62-13.88-2.71-20.76-3.04l-11.59-.56c-.61,1.3,1,2.56,2.44,2.69l25.69,2.27c.54.05,1.2-.37,1.4-.66.16-.23-.28-.66-.25-1.41,1.18-.09,1.71,1.41,2.32,1.61.96.19.96-.75.75-.91Z"/>
  <path class="st0" d="M204.61,484.22c-.48-.23-1.02-1.24-1.86-1.29l-29.29-1.72c-.59-.03-1.02.51-1.03.79-.06,1.14,5.32,1.99,9.5,2.34l21.7,1.85c1.2-.08,1.63-1.67.98-1.98Z"/>
  <path class="st0" d="M136.54,480.84l9.53.79c.91.08,2.27.32,3.03-.12.7-.41.48-1.39.09-1.66-.34-.24-1.03-.92-1.47-.97l-10.28-1.11c-4.68-.51-9.37-.89-14.52-.26,1.72,2.32,4.15,2.48,6.45,2.69l7.16.65Z"/>
  <path class="st0" d="M220.72,490.52c-7.43-.97-25.1-1.75-24.31.79.09.3.53.77,1.15.79l22.71.89c1.02.04,1.42-.88,1.37-1.26-.04-.29-.44-1.15-.91-1.21Z"/>
  <path class="st0" d="M96.78,490.92c-.64,0-.75,1.37-.47,1.59,2.61,2.09,15.17,2.89,21.5,3.01,1.07.02,1.62-.74,1.44-1.34-.63-2.1-15.62-3.24-22.47-3.26Z"/>
  <path class="st0" d="M260.78,170.05c.28-.14.22-1.1-.08-1.03-4.06,2.56-9.84,2.49-13.41-1.13-1.7.89-2.82,1.61-3.96,3.07,1.8-.24,2.74.34,3.75,1.52,1.59,2.9,4.33,4.82,8.01,3.6.39.69,1.28,1.2,1.85.88-.28.15,2.85-4.19,2.89-6,0-.32.68-.78.96-.92ZM253.49,174.69c-1.52.06-2.99-.35-3.83-2.37,2.46.51,4.19.89,6.96.12-.27,1.75-1.6,2.18-3.14,2.25Z"/>
  <path class="st0" d="M62.92,424.76c-.75-1.98-2.27-2.63-3.76-3.41-4.97-2.62-9.96-4.6-15.53-6.35-.65,1.14-.18,2.86,1.34,3.5l13.24,5.58c1.47.62,2.97,1.04,4.71.69Z"/>
  <path class="st0" d="M46.4,428.11c1.66-1.93-11.35-7.16-17.1-7.95-.34.91-.36,1.28-.23,1.51,1.15,1.9,10.74,5.49,15.67,6.81.74-.03,1.42-.08,1.67-.37Z"/>
  <path class="st0" d="M272.36,137.82c-.54-.95-1.96-.66-1.29.55-1.11,1.77-1.73,3.74-2.27,5.69-.8,2.88-2.83,5.04-3.07,7.64l2.85,6.5c2.2-6.91,3.87-13.54,3.79-20.38Z"/>
  <path class="st0" d="M62.69,402.93c4.14,2.53,12.02,7.25,13.9,4.67-4.55-3.29-9.51-6.06-14.66-7.76-1.03.77-.29,2.45.75,3.08Z"/>
  <path class="st0" d="M166.4,244.97l-5.1,3.05c-3.92,2.35-7.71-2.3-12.2-1.64,1.86,2.45,4.21,4.22,6.98,4.89,4.12.99,8.54-2.31,10.32-6.31Z"/>
  <path class="st0" d="M54.44,458.58c2.09.6,4.58,1.98,6.55.31-3.74-3.35-8.32-3.87-12.76-3.65,1.47,2.59,3.87,2.67,6.21,3.34Z"/>
  <path class="st0" d="M166.44,241.89c-3.15-1.41-6.1-.9-8.98-1.43-2.32-.42-4.66-.23-7.28.23,5.19,1.97,10.9,3.42,16.27,1.19Z"/>
  <path class="st0" d="M41.76,436.94c-.8-.12-1.37.18-1.54.52-.89,1.82,5.2,5.22,8.85,3.27-1.99-2.8-4.77-2.95-7.31-3.79Z"/>
  <path class="st0" d="M149.13,276.8c-.35-5.74-5.19-9.52-10.55-9.67,5.21,1.86,8.62,4.91,10.55,9.67Z"/>
  <path class="st0" d="M163.25,251.33c-1.63-.39-2.27.96-3.17,1.39-1.14.55-1.08,1.56-.55,2.26,1.67-1.15,2.72-1.5,3.72-3.65Z"/>
  <path class="st0" d="M153.91,263.51l.04.53c2.87,2.57,1.2-6.72-1.07-10.07-1.9-2.79-9.3-6.16-10.48-3.68-.98,2.06,10.05,3.86,11.52,13.22Z"/>
  <path class="st0" d="M181.01,261.14c0-.34-7.03,9.73-9.97,13-1.62-.99-2.27.58-2.56,1.61-.32,1.15,1.08,2.5,2.25,2.23,4.45-5.06,9.04-10.3,12.04-16.49.29-.59-1.77-1.01-1.77-.35Z"/>
  <path class="st0" d="M187.58,255.56c.38-.4.83-1.67.33-2.16-1.02.11-1.02,1.47-.97,2.11.23.07.46.1.63.05Z"/>
  <path class="st0" d="M115.86,448.58c-6.5-1.95-12.65-2.81-19.14-2.91-5.84-.69-11.12-2.4-16.9-3.71.95,2.05,3.06,2.46,4.99,2.89l9.32,2.04,8.97,1.21,12.91,1.33c-.12-.22-.07-1-.15-.84Z"/>
  <path class="st0" d="M112.32,450.93c-3.84-1.04-8.35-1.76-12.64-2.04l-6.07-.39c-4.31-.28-8.52-.99-12.67-2.13l-6.34-1.74c-.51-.14-.87.24-.7.97l7.2,2.12c2.81.83,5.72,1.03,8.62,2.19,2.75,1.1,6.56.34,8.64,1.68,2.44,1.58,4.72,2.12,7.5,1.52-3.26-1.54-7-.72-6.58-2.26l5.16.31,7.92,1.06c.19.03.68-.27.56-.37-.21-.18-.66-.53-.59-.91Z"/>
  <path class="st0" d="M73.23,449.13c3.26,2.64,7.31,3.2,11.15,3.59l15.21,1.57c-2.9-2.07-6.08-1.58-9.1-2.06-5.87-.93-11.44-1.65-17.26-3.11Z"/>
  <path class="st0" d="M113.34,444.36l-8.11-1.74c-1.11-.24-2.65-.79-3.36.26l-2.25.08c-.36-.82-1.49-.48-2.23-.46h-.58c-.82-.69-2.01-.58-3.41-.68.89,2.01,3.45,2.24,5.47,2.56l11.12,1.76c1.42.23,3.69.51,4.97.09l1.9.56c.23.07.7-.18.78-.98-1.68.42-2.99-1.17-4.31-1.45Z"/>
  <path class="st0" d="M196.91,428.56l21.58,2.62c.51.06,1.44-.33,1.51-.63.09-.36-.05-.83-.42-1.02l-.94-.48c-7.67-1.66-15.3-2.48-23.09-2.67-.15.77.77,2.1,1.35,2.17Z"/>
  <path class="st0" d="M202.38,421.03c0-.31-.27-.4-.52-.19l-.99-.61c-.27-.18-.98.3-1.29.8,1.06,1.85,3.01,1.86,5.18,2.1,1.07.12,3.56,1.05,3.91-1.03-1.43-1.23-4.49-1.67-6.29-1.07Z"/>
  <path class="st0" d="M234.87,362.36c-1.29,3.29,1.14,5.78,3.15,8,6.91,7.64,15.98,13.17,25.86,15.97,2.52.71,5.21,1.34,7.15-1.15-6.08-.09-10.43-2.24-14.98-4.95-7.96-4.73-15.13-10.11-21.17-17.86Z"/>
  <path class="st0" d="M257.73,407.78c-.78-.32-1.38.22-1.47.66-.72,3.43,16.41,5.8,16.4,1.06,0-.6-.3-.92-.97-.53-4.65,1.18-9.58.63-13.96-1.2Z"/>
  <path class="st0" d="M179.67,376.49c.88.31,2.85-1.09,2.16-1.71-3.37-3-7.15-5.64-9.55-9.71-3.37-.57-.13,8.76,7.4,11.41Z"/>
  <path class="st0" d="M173.32,408.4c-6.02-.18-13.4-2.41-14.17-1.48-1.16,1.39,8.83,5.08,14.17,1.48Z"/>
  <path class="st0" d="M185.43,338.93c3.3-.52,7.61-.51,8.88-3.05.14-.28-.09-.87-.6-.88-.22-.06-.53-.06-.53.31l-14.58,2.89c1.97,2.38,4.67,1.08,6.83.74Z"/>
  <path class="st0" d="M271.52,244.28c-.56.72-.26,1.83.09,2.36,1.31,1.98,10.04-1.18,13.61-7.43,1.57-2.75,1.75-5.95-.84-7.52-.43.57-.23,1.3-.22,1.57.01.41-.99.61-.98-.21.01-1.52,0-2.79-1.05-3.63-.85-.68-1.72-1.71-3.36-1.08l-7.38,2.81c-.27.48.37,1.28.79,1.3.46.02,1.2-.15,1.67-.31l8.22-2.72c-.07,5.93-3.7,9.77-9.19,11.92,3.19,2.5,7.69-2.41,10.68-6.41-.11,5.57-8.22,10.82-12.03,9.34Z"/>
  <path class="st0" d="M217.46,109.02c1.16,2.17,2.06,4.18,4.12,6.32.76-1.27,0-2.81-.92-3.57-.84-.68-1.36-1.75-1.44-2.68-.04-.46-.58-.83-1.16-1.39-.68-.77-1.71.12-.86.87.31-.03.39.22.26.44Z"/>
  <path class="st0" d="M187.28,261.84c2.24,1.38,4.2,3.66,6.64,2.99l-4.49-3.71-5.17-4.39c-.29,2.2,1.25,4.02,3.02,5.11Z"/>
</svg>