<?xml version="1.0" encoding="UTF-8"?>
<svg id="Layer_1" xmlns="http://www.w3.org/2000/svg" version="1.1" viewBox="0 0 1976.35 902.88">
  <!-- Generator: Adobe Illustrator 30.5.1, SVG Export Plug-In . SVG Version: 2.1.4 Build 3)  -->
  <defs>
    <style>
      .st0 {
        fill: #46676e;
      }
    </style>
  </defs>
  <path class="st0" d="M1656.25,629.65l9.63-4.69,36.77-9.44c27.74-7.12,55.1-12.02,83.59-15.83l9.3-3.18,1.08,2.99,22.02.6-18.78,1.54-19.28,1.64-43.03,8.48-42.45,10.27-59.29,16.7-49.18,15.03-15.16,3.91-28.51,8.13-64.51,21.87,1.97-4.56-21.44,4.24-19.68,4.52-19.12,5.1-41.55,13.93-12.49,4.6c-7.44,2.74-15.67,6.37-21.85-.99,5.14.37,10.74,1.38,14,.16l13.46-5.06c-8.19-.56-16.44-.92-24.04.81-6.45,1.47-10.79,1.16-17.28.85-4.05-.19-11.22,1.46-15.61,2.41l-14.07,3.03c-2.21.48-5.74,2.19-7.73,3.34l-15.75-.65-27.93-6.6c-10.05-.77-19.64,3.16-29.23,5.38l-47.23,10.93,27.51-9.14,7.5-1.97-14.84-2.5c-9.17-1.54-19.05-2.29-28.04-.5l-41.81,8.29c5.09-3.41,9.92-3.9,16.76-5.8-10.43-3.53-21.04-5.2-31.15-1.56-10.52,3.79-21.19,2.82-32.26,3.47l-24.66,6.16-8.44-.19-30.53,5.11-18.22,4.81c-2.87.76-4.86.64-7.33-1.53l-31.64,5.4-15.22,3.88-12.53.32-44.19,10.4-16.32,2.85c-14.94,2.61-29.33,6.73-43.15,12.23-1.38-1.12-3.74-1.97-5.07-1.63l-35.47,9-29.94,8.32-28.97,8.63c-7.15,2.13-12.83,6.13-20.73,7.39,4.94-4.92,10.97-6.24,16.96-8.97,9.36-4.27,18.53-6.92,28.31-9.57l28.42-7.7,52.22-13.4,54.22-12.26-.05-10.31c-.78-.97-3.41-2.7-3.44-3.88s1.7-2.91,3.3-4.24l-.8-9.8-3.61-4.02c-.78-.87,2.05-3.46,3.19-4.11l1.51-7.01c.38-1.77,5.29-2.87,6.98-1.75,1.53,1.02,2.43,3.85,2.94,6.96l28.12-3.42,16.31-2.96c-.16-3.15.27-6.78,1.65-8.25,1.28-1.36,5.69-1.46,7.45-.25,1.53,1.06,2.11,3.96,2.46,7.63l44.01-4.53c-.07-4.7,1.79-8.4,6.31-8.9,3-.33,6.04,3.15,7.84,7.34l39.85-3.94c-.67-5.09,1.57-7.76,5.53-7.78,3.91-.01,6.07,2.46,6.18,7.33l28.92-1.5c-.37-3.22-.31-7.59,1.52-8.13l4.51-1.34c1.07-.32,1-3.21.99-4.39l-.14-14.61.35-11.07-.92-12.03c-7.1.72-13.19,7.05-19.84-1.3-2.31-2.89-2.8-10.41.26-13.85l12.58-14.11,10.4-11.33,15.23-16.3,17.12-19.17,19.79-22.44,22.21-25.14c4.8-5.43,13.29-4.12,19.52-2.64l34.06,8.1,11.53,2.92,26.3,5.9-.24-16.12c-2.18-3.19-5.14-10.83.51-13.23,10.96-4.65,25.59-4.21,35.54,1.25,6.87,3.78,1.84,10.04.77,14.41-1.68,6.87-.7,15.8-.06,22.23l15.63,2.87,17.86,3.87c6.27,1.36,14.85,1.41,19.4,6.33l12.35,13.36,18.56,18.74c3.84-4.63,7-7.07,12.77-6.18,10.1-6.77,18.52-15.57,26-25.57-1.84-6.67-8.68,9.52-22.86,1.67l.94-4.62c.26-1.29-7.26.75-9.7-3.71-.86-1.58,1.16-5.83,3.12-6.21,18.11-3.51,18.26-14.44,25.3-10.79l-13.26,11.45c-1.08.77-1.1,1.11-.06.99l8.39-3.58c1.95-.83,4.67-4.1,7.78-6.46l.22,6.69,1.95-.05c.57-.02,1.94-.91,1.54-1.31l-2.51-2.5,6.23-12.27-5.82,4.19c-.65.47-1.93.94-2.61,1.07-.91.16-2.8-2.89-2.12-3.59,1.93-2.02,5.94-6.4,7.69-10.08l-14.38,3.87c-1.21.32-5.29-.63-5.46-1.7-.22-1.33.18-3.33.63-5.59l-6.91-2.11c-1.28-.39,2.24-4.4,3.25-4.36,10.87-1.18,19.14-7.37,25.29-15.85l.23-1.92c.06-.47-1.58.17-2.03.43l-6.71,3.77-10.46-5.41,14.14-4.12c1.79-.52,3.56-5.22,4.16-7.44l-6.98.18c-.4,0-2.04-.44-2.01-.83l.2-2.94-7.1-1.89c.32-6.6,5.08-5.53,8.71-6.62,6.85-2.06,11.17-9.31,15.57-14.43l-10.14,5.37,7.23-12.58-1.87-1c-4.16,1.75-7.28.73-9.61-2.68l6.22-4.11c3.65-2.41,3.91-5.07,5.14-9.53,3.96-14.38,4.86-26.13,6.93-30.04,1.91-3.61,3.08,16.63,6.71,29.48l2.04,7.24,7.99,5.22c-1.24,3.91-4.35,4.65-8.21,3.89l2.98,9.66c-4.26-2.37-4.7-5.22-5.55-9.94-.39-.92-2.25-1.97-2.2-.8l5.39,17.41,3.21-2.66c4.46,5.08,12.84,4.12,11.85,6.2l-2.17,4.55c-1.15,2.42-3.69,5.03-6.39,5.42-3.07.44-4.82-.71-7.98-3.18-.33,2.94,2.42,4.89,5.9,4.79,4.4,16.3,16.46,10.37,17.65,17.2l-14.39,2.03-1.88,7.53c-.27,1.08-4.88-1.8-4.34-1.85l-1.22,3.41-4.28-2.25,9.17,10.31-1.97-6.34c1.53-1.4,4.58-3.67,6.39-3.4,2.41.35,6.03,2.29,7.85,3.76l8.96,3.02-5.23,4.84c-1.21,1.12-4.95.01-6.4-.47l-1.08,3.71c-.28.97-2.27,1.19-4.75,1.81,2.4,4.07,6.13,7.53,10.74,10.68l.26,4.32c5.04,5.03,10.53,5.75,18.56,6.5-5.67,10.84-15.54,7.85-16.82,12.49l7.7,3.52c-9.29,9.02-12.41-3.6-21.72-4.1l11.43,13.8-5.09,1.61,5.64,6.08-.36-3.5c-.1-.97,3.4-.41,4.21.19l9.82,7.21c1.29,1.28,3.88,4.63,5.77,4.16,3.97-1,8.24,3.42,6.28,6.26-1.41,2.05-6.09,2.97-9.44,3.96l6.57,4.89c-.02,1.62-2.29,5.5-4.05,5.52l-7.55.07c-3,1.81-8.09.71-10.71-.05l-2.86-.83c-.55-.16.29,2.2.47,2.81l-3.31,4.77c8.91,2.65,8.82,10.96,15.48,9.46l-7.92-8.33c-.68-.72,1.11-4.12,1.92-3.53l9.17,6.78,15.58,7.89,3.88-3.04c1.08-.85,4.25.72,5.89,1.68l10.57-3.38c2.16-.69.88-1.39,1.48-2.54.01-.03-1.07.43-1.9.75l-5.47,2.16c-.6.24-2.26-.54-2.77-.9s.59-1.88,1.15-2.34l7.22-5.98c-9.39,3.58-18.01-5.51-17.54-8.34.28-1.66,3.23-3.29,5.18-3.65,9.39-1.75,18.23-6.66,24.35-14.6l-12.38,6.14c5.13-5.56,8.89-9.64,10.97-15.59l-4.58,4c-1.23,1.08-6.06.11-5.74-1.51.07-.37.56-2.58.54-2.58l-2.82.71c-2.79.71-7.99-5.73-6.71-7.92,1.59-2.73,8.28-.16,17.77-10.22.3-.32.89-2.81.56-3.09-2.96-2.53-5.46.16-6.38-.94l-2.89-3.47-3.78-2.18c-1-.58.67-4.13,1.97-4.18,4.17-.14,10.69-1.7,11.61-6l-4.9.16c-.85.03-1.81-2.55-1.66-3.53,5.95-2.82,11.38-9.11,11.45-15.72l-4.8,1.07c-.94.21-2.97-2.82-2.23-3.44,7.91-6.56,10.07-19.56,10.8-31.83.39-.04,3.05-.27,2.76-.25l3.85,23.56c.79,4.83,9.54,10.16,6.43,10.65l-4.58.73c-.35.2-1.57.87-1.42.78l2.09,7.73c.64,2.38,5.22,4.45,8.42,6.02.89,5.85-7.6,5.42-7.05,6.53,2.69,5.44,6.18,8.08,12.51,6.21.31,1.02-.07,4.55-1.28,5.4-1.4,1-5.32.85-7.11.5l-1.04,2.1c-.37.75-2.45.45-4.4.27,3.99,4.75,12.37,10.14,18.82,10.2.85,0,2.86,2.3,2.22,2.84l-3.66,3.11c.32-.2.63,4.81-.43,4.7l-15.77-1.68,7.77,3.95-4.66,2.18,18.78,11.14,4.88,3.57c-5.06,4.94-10.06,7.72-14.71,4.25l-2.01-1.5c-.33-.25-.31,1.85.06,2.04l7.98,4.11c0,.62-1.04,2.36-1.65,2.21l-3.19-.75,2.36,5.12-9.09-1.95c-.07.27-.34,2,.17,2.31l2.6,1.6,19.74,11.9,3.04-2.03c.75-.5,2.46,2.54,2.22,3.49-1.57,6.04-8.59,8.96-14.97,7.28-1.49-1.62-1.54.11-.78,1.46,2.13.72,4.83,3.51,3.66,4.57-.9.82-4.58.55-5.63-.16l-10.54-7.08c-1.54-1.77-1.6,0-.99,1.19l5.66,6.87-2.05,3.72,8.35,9.6,1.75-1.72c-3.66-2.31-6.47-5.53-4.69-10.5,8.39,11.42,14.62,6.74,21.84,11.46l-3.14,5.94,6.34-.22c.57-.02,2.88-1.73,2.46-2.07l-3.25-2.6,6.65-4.71.24-1.62c.08-.54-9.14-.68-7.28-7.53,7.44.91,13.36-2.56,17.39-7.7l-11.99-1.29c-1.59-.17-3.16-5.39-1.74-5.69,4.68.17,11.03-1.11,14.18-5.7-.42-1.84-4.11-3.35-5.99-3.47l-2.99-.18c-.46-.03-.98-1.04-1.08-1.5-.51-2.38,10.02-.54,11.01-8.82-4.42.91-7.63.96-10.71-3.24l6.09-2.06,8.87-12.66c-3.57-.21-6.95-.35-8.58-1.66.25-4.12,4.31-1.67,5.57-5.9l2.41-8.11,4.67-18.98c4.1,12.03.42,20.32,9.82,27.76.68.54-.42,3.35-1.29,3.36l-3.89.05c-3.47,9.91,11.99,11.01,9.26,13.3l-3.59,3.02-5.02-.53,1.99,3.2,1.96,4.99c1.31,3.35,11.84,2.06,10.39,4.75-2.58,4.78-7.04,2.99-9.75,6.93,2.63,4.93,7.01,6.55,12.48,5.03l2.49,3.47-12.15,5.15c1.8,2.18,4.34,3.3,7.7,3.93l6.64,5.78,15.44-3.05ZM1267.33,507.07l15.8-1.2-.14-4.97-14.24,2.03c-1.27.18-2.54,3.72-1.41,4.14ZM1277.09,541.41l5.21,6.35.05-35.43-13.64.99-.44,21.74c4.86-1.58,8.62-1.91,13.06.31l-10.14.67,5.9,5.38ZM1104.69,614.51c1.63-3.37,6.69-8.32,10.47-10.78,4.89-4.04,8.38-8,11.13-13.25,5-1.72,8.96-5.79,9.52-11.38l3.26.25c.54.04,1.32-1.83,1.72-2.28l11.62-12.93,17.48-18.87c.63-.68.37-4.35,1.14-4.42l2.48-.24,7.3-7.14,18.27,19.71,18.85,19.85,20.27,21.59c-5.45-1.53-7.92-5.43-11.22-8.86l-19-19.74-1.07.53,24.76,26.66,31.49,31.43c5.3,5.29,9.86,10.61,16.45,14.01l-16.19-17.27c9.28,1.6,14.48,15.77,20.19,15.59,1.26-.04,3.65-2.95,3.95-4.25,1.29-5.52-4.2-9.38-6.62-15.12l10.54,9.71-1.77,9.05,31.22,3.07,60.84,5.23,36.13,2.67,9.22,2.88c6.14-.98,6.89-10.27,2.89-14.44l-11.24-11.71-13.9-15.3-18.71-17.37-18.92-18.79-11.4-11.2c-5.78-7.85-12.63-9.93-21.67-11.65l-32.32-6.13c-1.45,9.81,3.45,15.67,10.87,21.26l-8.77-2.33-11.76-2.8c-4.59-1.09-8.46-1.98-11.43-6.08-2.72-3.76-5.82-9.3-9.52-11.97-10.32-7.44-22.36-10.01-34.37-12.91l-40.25-9.73c-5.79-1.4-13.9-5.46-18.43-.73l-17.98,18.8-22.76,25.71-19.56,21.62-14.81,15.36-8.67,9.6-13.28,14.29c-4.32,4.65-4.44,11.51,1.01,15.05l11.43-13.12c2.05-2.35,3.19-4.17,5.56-5.66l5.48-3.44c-.01.09,0-1.83.1-2.04ZM1288.38,527.72l7.72,2.79-1.51-6.78-8.64-4.05c1.36,1.91,2.65,3.08,4.49,4.56l-4.15,5.59c-.93,1.26,1.05,5.52,2.59,5.86,1.91.42,3.48.4,7.65.14l-8.14-8.1ZM1453.65,550.56c2.18-5.34.02-9.58-4.92-11.46l4.92,11.46ZM1105.46,617.86c-6.22,6.61-13.23,11.61-18.29,20.08l20.91-19.82,39.28-40.57,32.01-34.25-2.06-.24-70.92,74.29-.95.5ZM1297.47,553.44l-.2-10.45-9.74,2.76c5.63,1.72,8.6,3.39,9.94,7.69ZM1189.94,562.72l9.17-.28-9.14-10.63-.5,4.81c3.21,1.49,5.82,2.95,7.63,4.35l-7.16,1.75ZM1195.66,568.91l6.86-3.04-10.15-1.58c-1.79-.28-4.69,2.34-5.43,3.7l-2.32-3.08c-.44-.59-1.9,2.72-2.15,3.24l-14.85,2.81c13.14,3.43,25.72,2.59,38.34-.75l-10.29-1.29ZM1421.37,570.53c-.84.61-4.42.56-4.37-.38l.32-5.84-7.4,11.2c3.6,1.33,7.58,1.54,9.89-.05l7.69-5.27c-1.22-1.11-2.48-2.29-3.01-1.91l-3.12,2.25ZM1197.18,615.16l-.14-39.44-27.98.94-.38,10.89.58,28.64c10.22.51,18.3.2,27.93-1.03ZM1202.54,581.23l10.72-1.69c-3.05-2.27-6.99-2.68-11.65-2.12l-.2,7.83,15.26-.18.06-2.26-14.18-1.59ZM1412.13,590.96l-7.89.17c-1.81.04-6.02.32-7.39-.87-2.04-1.76-5.44-4.19-8.04-2.67l12.26,11.5,10.15,7.52c2.16-4.18-1.68-9.36.9-15.64ZM1434.04,587.84c-1.35-1.84-2.83-.48-4.07.87l-7.01,6.79.59,1.63,10.48-9.29ZM1167.21,598.59l-.99-10.62-8.66,1.04c-1.82.22-2.69,3.83-3.63,5.64l-3.3,1.1c-.4.13-.06,1.59.04,2.27l16.54.57ZM1214.9,606.08l20.51-1.78-3.54-3.62-3.81-2.68c-1.22-.22-2.42.06-3.67.5.45-1.49,1.8-2.13,3.11-3.03l-12.96-3.39,8.58-.32c-.12.73.06-.38.34-2.18l-23.01-1.51.48,10.25c5.29.04,10.86.32,15.18-.52l8.28-1.61-5.39,3.07c3.77.33,6.02.39,9.44,1.87l-16.87-.85-10.77.76-.47,6.03,14.55-.99ZM1464.6,606.39l-9.15-11.22c4.08,8.49,8.65,17.27,16.51,22.31l-7.36-11.08ZM1134.71,614.95l-5.34-.14c-.58-.02-.76,1.97-.7,3.08l37.64-.41v-12.57s-.7-4.59-.7-4.59c-.15-1-3.34-.66-4.54-.51l-14.33,1.76c-3.74,4.19-9.38,1.52-11.12,5.32l20.75,1.78-26.55,2.36,4.89,3.93ZM1235.38,613.25l-.17-1.26,5.01-1.22-9.81-2,6.06-1.77-18.54.72-17.53.9.13,8.69,45.89-1.43.07-1.53-11.1-1.1ZM1521.08,624.9c3.38-3.72,5.86-7.48,7.97-12.7-4.61,2.46-8.23,6.86-7.97,12.7ZM1467.96,658.55l3.77-10.05c4.78,2.11,8.12,3.42,12.62,4.27l11.04,2.09c4.29.81,8.56-.18,12.18-2.99l-15.39-7.43c9.12-10.47,18.85-8.41,27.37-13.29-7.12.28-12.42.84-18.24-3.74,4.2-1.37,7.51-2.5,9.99-4.06l9.68-6.09c-5.02-1.65-8.91,8.23-17.37.65-1.06,3.37-2.4,8.36-4.57,8.16l-9.95-.91c2.02,4.1,5.03,7.3,9.91,12.49-6.38,1.59-11.5,2.24-17.57,1.95,2.35,7.79,12.07,7.32,14.08,13.75l-14.49-5.69-6.71-3.91-10.59-4.81c1.15,4.73,8.46,7.32,6.56,10.67-.73,1.29-2.82,3.27-4.3,4.59-.96.86.85,3.82,1.98,4.34ZM1239.09,629.58l21.17-1.98-16.06-1.65.95-.94,12.95-.08-2.69-2.12-12.52-.63,11.47-1.17-2.43-1.95-47.36.08-23.05.26-18.11.25-10.93.15-31.26,2.1c2.56,1.48,3.39,1.72,6.21,2.8l-11.18,1.5.54,1.35,6.65-.22-.57,3.97,27.45-.42,36.11.19,6.85-.67,10.38-.04,35.42-.76ZM1214.55,644.2l34.77.48,12.74-.78c.83-.05,2.18-3.1,1.37-3.3-.61-.15-2.46-.46-3.22-.46l-13.39-.04c5.98-1.91,10.63-1.74,17.65-2.68l-11-1.85,1.36-.98h9.08s.05-2.19.05-2.19l-90.73.28-14.83.47-21.58.73-23.28,1.09c-1.68.08-3.39,1.33-4.56,3.77l23.11,1.38c-7.75,1.79-15.78.28-24.06,4.47,17.18,1.84,33.3,1.23,49.14.4.67-1.67,2.77-4.13,3.88-4.14l42.23-.51c4.84-.06,8.06,1.61,11.27,3.88ZM1275.52,643.56l-5.71-7.96c-2.45.99-3.74,4.76-2.64,6.39,1.52,2.24,4.29,2.73,8.35,1.57ZM1102.3,638.18c-3.6.75-3.62,9.12-1.44,9.85,1.14.39,4.84.02,5.05-1.16.68-3.94-1-9.23-3.61-8.69ZM1207.5,649.74l.56-7.33-35.87.06-11.2.99-.77,6.56,47.28-.28ZM1274.75,647.42c-3.41-2.48-8.12-1.82-9.21,2.5-.62,2.43,3.77,6.21,6.48,4.93,1.25-1.38,2.57-5.6,2.73-7.43ZM1343.31,650.26c.89.09,3.1-.52,3.65-.92.35-.25.28-1.03-.17-1.08l-3.07-.3-14.48-1.39c-4.79-.46-9.86-1.47-13.66.81l16.18,1.68,11.55,1.2ZM1144.37,653.26c1.46-.04,5.03-.56,5.23.71l.86,5.69,10.18.22c1.59.03,2.6-5.74,1.07-6.23-1.02-.33-3.87-.77-4.04-1.73l-.87-4.86-30.81.76-17.1,1.6c.28,2.03,1.84,4.22,3.35,5.83l-3.98,4.27,13.43.35-.34-5.34c-.06-.9,3.63-.68,4.67-.71l18.35-.56ZM1247.14,652.66c1.27,0,4,.13,4.19,1.16l.79,4.22c2.53,2,9.09,1.24,11.44-1.7l-.34-9.16-50.45-.13c.74,6.5-.2,8.52-4.86,12.19l12.41.83.34-6.13c.06-1.06,3.26-1.16,4.33-1.17l22.16-.11ZM1330.62,655.19c3.33.31,7.59,4.91,11.85.4l-21.75-3.47-20.45-1.19c.95.89,3.26,2.28,4.52,2.32l8.92.34,16.91,1.6ZM1101.5,662.2c1.81.14,4.44-3.1,5.04-5.33.48-1.79-2.99-5.91-4.68-5.22-3.73,1.53-3.37,7.97-.36,10.55ZM1171.35,687.69l-.59,22.92,10.71-.05.04-56.09-8.11.54-2.32,9.04-1.02-10.97c-.56-.14-3.37.14-3.62,1.13l-1.18,4.67-.35,51.07c-.3.37,3.66,2.05,3.72,1.12l.2-3.06-.23-11.54,1.49-30.84,1.45,14.59c2.64.75,4.32,1.34,4.99,2.3s.22,4.61-.94,4.73l-4.23.44ZM1397.1,657.96l-.44-2.56-37.36-2.73c2.67,2.67,5.34,2.11,8.72,2.44l29.09,2.85ZM1188.91,710.82l8.91-.38.46-54.75c-3.41-2.91-9.88-2.35-11.28,2l-2.43-3.1c-.22-.28-.92.68-1.02,1.02l-.65,2.19-.17,52.44,4.54.16.57-17.6.98.64.08,17.39ZM1205.02,657.25c-.25-1.33-.58-3.44-1.09-3.24l-2.3.9-.47,54.76,1.58,2.29c.35.5,1.53-1.8,1.67-2.25l.61-52.46ZM1248.28,685.85l.33-30.73c-8.5-1.33-15.94-1.35-25.06.14l-.41,29.98c8.81,1.3,16.73,1.78,25.14.61ZM1146.33,685.34l.19-28.87c-7.88-1.66-15.1-1.77-22.36.47l-.13,28.15,22.29.25ZM1330.76,691.42l.2-33.93-23.32-1.76-.24,33.96,23.37,1.74ZM1274.38,657.78c-.58-2.08-7.09-1.32-8.25.79-.92,1.68-.41,5.76,1.05,6.42s4.63.47,6.2.04c1.32-.36,1.57-4.55,1-7.25ZM1285.42,659.01l-7.36-1.61c0-.09.2,3.24.29,4.57.08,1.2,3.58,1.65,4.31.7l2.76-3.65ZM1305.24,661.01c-5.67-1.56-10.48-3.22-16.99-.81l9.41,1.79c2.57.49,5.13.53,7.58-.98ZM1369,664.03l-2.67.09-1.03,12.36-.68,3.84c-.13.71-3.45.52-4.18.24l-.12-19.65c0-.76-1.84-2.24-2.54-2.4-.48-.11-1.83,1.57-1.82,2.22l.21,24.29c1.24.97,4.83-.64,6-1.73,1.57,1.41,6.63,3.03,7.8.99l-.98-20.25ZM1485.34,664.48l-10.36-5.46c1.01,3.65,3.83,5.27,7.35,6.72l3.19,1.31c.45.18.37-2.27-.18-2.56ZM1379.62,682.7l.29-22.41-5.92.96.23,24.58,3.67.5c.87.12,1.7-2.65,1.72-3.62ZM1261.82,669.25c.7-.21,2.89-1.57,2.57-2.58l-1.41-4.51-10.96-.39-.83,12.39,8.93.24c.85.02,3.67-1.29,3.31-2l-1.61-3.17ZM1396.5,666.3l-11.97-2.03,10.11-1.47c-4.21-2.16-7.39-1.67-11.35-.73l-.14,8.1,13.02,1.28c-2.43-2.53-4.34-2.66-7.82-3.39l8.15-1.76ZM1121.62,674.66l-.22-11.84-11.38.61c-1.11.06-2.27,3.25-1.39,3.65l3.88,1.77c-1.48,1.33-2.54,2.47-4.21,5.32l13.32.5ZM1162.94,673.57l-.72-10.82-11.76.49c-.91,3.27-.74,7.46.02,11.2l12.46-.87ZM1221.11,674.21l-.08-11.26-13.1.08.49,11.14,12.7.04ZM1100.75,675.14c2.92,1.68,6.9-3.3,6.56-5.72-.39-2.78-3.48-6.37-6.51-5.01s-3.51,8.74-.05,10.73ZM1305.5,665.69c-6.02-1.94-11.41-2.21-17.96-1.21,5.75,2.52,11.77,3.02,17.96,1.21ZM1352.9,668.81c.02-.85.25-2.31-.35-2.33l-2.59-.09-17.65-.64c3.39,2.29,8.45,3.53,11.12,3.08,7.38-1.25,9.44,1.2,9.46-.02ZM1414.72,664.76l-2.19,1.52c-1.61,1.12-.86,6.91,1.63,7.05,3.48-1.03,1.67-9.34.56-8.57ZM1274.46,668.27c-.25-2.14-5.73-1.65-7.55.35-1.5,1.65-1.59,5.66.89,6.64,1.48.59,4.86.72,6.06.2s1-3.69.6-7.2ZM1286.97,676.26l17.72,2.69-.11-9.34c-7.02-.14-10.78-.99-17.21,2.27l11.63,1.37-1.87,1.71c-4.58-.23-6.86-.33-10.15,1.3ZM1413.21,676.82c-2.88-3.28-6.74-5.67-10.86-5.34-1.56.12-3.84,3.45-3.54,4.9s3.69,2.76,5.18,2.43l9.22-1.99ZM1353.16,672.6l-8,.17-11.7-.5-.23,9.74,19.87,1.34.06-10.76ZM1395.83,677.12l.53-3.15-12.03-1.29c-1.01-.11-1.49,4.13-.73,4.13l12.23.31ZM1120.55,688.11l-7.91.57c-1.44.1-3.78,1.19-3.9,2.38s2.19,3.15,3.59,3.19l29.8.94,19.2-.2c.49-1.72,1.3-5.29.05-5.74l-6.06-2.18,6.51-1.61.19-8.86-11.7-.17.47,10.42c-.95,1.24-4.44,2.33-6.27,2.25l-17.68-.85c-1.35-.06-4.27-.6-5.2-.89-.07.05-.97.73-1.1.74ZM1220.26,686.54l.78-10.24-13.05.07.32,9.85,11.95.31ZM1262.61,686.76l1.77-9.57-12.56-.67-.48,10.28c3.93.35,9.7.45,11.26-.04ZM1121.12,686.16l-.12-9.09-10.68.6c-1.92.11-1.89,7.42.1,7.65l9.64,1.12,1.06-.28ZM1102.58,688.07c2.68-.69,5.45-4.33,4.51-6.03-1.34-2.4-5-5.11-7.21-3-1.04.99-1.59,4.09-1.36,5.42s2.78,3.94,4.06,3.61ZM1274.1,687.89l.53-9.24c-2.65-.97-8.02-.59-8.73,1.76-.56,1.86-.39,6.17.8,7.71s6.58.96,7.4-.23ZM1277.05,687.33l7.11-1.44c.74-.15.44-3.56.16-4.51-.51-1.77-4.41-2.99-7.04-3.38l-.02,11.12,6.06.05-6.27-1.84ZM1394.93,686.51l1.04-6.88-13.48-1.14.22,7.84,12.22.18ZM1303.66,690.86l.73-9.15c-6.77-.55-11.36-1.17-18.09.68l14.26,2.38v1.52s-12.55,1.89-12.55,1.89l15.64,2.67ZM1407.55,691.09l-8.11-3.21,8.22-.44-4.01-2.71,3.74-.21c.44-.02.12-1.33-.09-2.44l-8.46.35.86,9.65.72,3.08c.13.56,2.22,1.1,2.78,1.27l2.46.75c.51.16.95-2.04.45-2.2l-2.43-.78c-2.87-.22-2.35-1.68.04-2.06l3.52.3c.44.04.43-1.32.31-1.38ZM1359.98,688.83c-1.82-.02-4.62.79-6.55,1.43l-1.01-4.17c-.18-.73-2.91-.87-3.88-.88l-15.43-.31.3,8.54,44.92,2.01c1.22-.19,1.77-4.47.74-5.7-.82-.98-3.33-.71-5.09-.74l-13.99-.18ZM1261.45,699.44l4.08-8.85c-5.86-1.65-12.52-.62-18.7-.85l-21.65-.8-16.14-.2c-1.73.86-1.22,7.07.59,7.26l13.04,1.37,30.41,2.37,8.38-.3ZM1396.56,696.42c-1.31-3.06-1.41-3.73-1.36-7.05l-12.16-.84c-.37,2.48-.17,5.88.65,7.7l12.87.2ZM1052.99,718.92h1.61s-.26-29.86-.26-29.86c-1.36,1.07-2.58,3.36-2.52,4.72l1.17,25.14ZM1105.94,701.69c.25-4.64-.46-9.32-4.65-10.49-2.14,1.66-2.49,8.35-1.8,11.07.26,1.03,2.7,2.4,3.69,2.31,1.1-.09,2.69-1.66,2.76-2.9ZM1274.68,691.73c-4.26-.01-6.23.39-8.31,2.67-1.45,1.6-.74,5.57.54,6.99s6.77,1.32,6.93-.51l.83-9.16ZM1343.84,704.77c8.94,1.5,17.64.78,26.46-1.58l11.95-3.34-16.59-1.6-24.83-1.98-28.48-.73c-9.16-.23-14.83-5.4-24.93-2.95,5.89,1.5,9.47,2.45,14.3,4.6l2.49,1.11c.49.22-.35,2.23-.83,1.99-4.18-2.09-9.4-1.91-14.75-.1,5.15,1.8,10.22.62,15.33,1.36l14.37,2.1,20.55,1.09c.96.98,1.87,2.14,2.44,1.75l2.52-1.72ZM1284.4,698.75c-.46-4.51-5.51-5.74-7.36-4.55,1.38,1.78,2.4,2.7,2.05,3.31l-1.52,2.68c.7,1.84,7.08,1.03,6.83-1.44ZM1001.55,726.23l-.92-33.21c-2.09,11.34-1.17,20.82-1.12,31.82l2.04,1.39ZM1142.13,712.75l2.18-3.08c.51-.72,10.92,8.65,18.58-1.4l-8.67-3.09,8-1.75-.5-6.72-49.12-.18c-1.02.37-2.78.78-2.88,1.43l-.39,2.52,11.06.7,8.09,3.96-19.08.77c-.11,1.03,2.02,3.07,3.17,3.21l29.56,3.62ZM944.84,735.53c.87-12.96,1.36-24.77-.49-37.72-2.33,13.15-1.99,25.58.49,37.72ZM1090.13,706.53l-.94-7.85-29.49,1.89-.06,7.86,30.49-1.91ZM1218.51,713.88c3.8.92,9.96-.58,13.19-1.32l12.22-2.78c-1.48-1.91-1.27-2.51-.09-3.31l16.6.73c1.18.05,3.71-1.63,3.55-2.74-.13-.89-2.04-2.31-2.99-2.39l-28.05-2.43h-23.35c-.97.01-2.17,4.28-1.2,4.45l3.5.6c13.8,2.35,22.19.14,26.82,3.68l-17.27-.69-13.36.28.76,3.59,9.68,2.34ZM1024.96,711.14l23.34-1.78.27-7.65-43.01,3.52.31,7.96,19.09-2.04ZM956.05,707.14c9.35.16,17.02-.84,25.95-2.78-6.14-2.9-11.47-.91-17.41.19-3.38.62-6.2.53-8.53,2.59ZM1272.78,704.82c-1.19-1.57-6.34.4-6.46,2.33-.15,2.31.05,5.6,1.28,6.77s6.39.96,6.86-.41c.15-2.5-.41-6.35-1.68-8.7ZM1283.81,705.56l-6.23-.22.94,9.24c2.55-1.29,3.98-2.08,5.04-2.95s1.33-5.69.24-6.08ZM1327.81,707.05c-7.33-1.32-13.4-1.13-20.39-1.16l-19.62-.06,30.2,3.15c2.45.25,6.4-.81,9.8-1.93ZM970.26,717.82l25.23-2.96.1-8.29-23.92,1.82-21.83,3.31v7.97s20.42-1.85,20.42-1.85ZM903.89,712.96c12.12,1.46,23.12-1.03,34.29-4.75-11.85-.39-23.32.71-34.29,4.75ZM1106.39,708.13l-6.85-.91.29,5.13c.07,1.14,2.14,2.1,4.65,2.92l1.9-7.14ZM1306.31,710.65l-14.18-2.19c-1.73-.27-1.86,3.17.18,2.43,5.92,1.19,10.63,2.31,14-.24ZM919.22,723.65l19.93-2.28-.5-8.86-44.54,5.78.06,8.11,25.04-2.75ZM1063.04,718.63c11.31-2.83,20.58-3.2,31.91-3.67-3.01-1.19-7-2.08-10.11-1.88l-22.46,1.49c-1.22.08-2.77,2.17-2.81,2.98s2.28,1.38,3.48,1.08ZM1021.03,725.07l22.58-3.25,4.45-.7c.76-.12.38-3.05.2-4.95l-16.79.98c-8.76.51-16.67,1.57-24.99,3.66l.19,6.77,14.36-2.51ZM975.75,732.96l19.57-2.88.08-7.84-23.28,2.26-21.71,3.03.33,8.45,25.01-3.02ZM912.24,729.41l26.14-3.66-.81-1.59-19.88,1.71-18.07,3.23c4.31,1.35,7.73.59,12.63.31ZM914.11,743.26l24.95-5.24.19-9.11c-15.78.52-29.53,2.8-45.14,6.16l.39,10.82,19.62-2.62Z"/>
  <path class="st0" d="M1025.94,199.33l3.78-6.68c4.32-2.45,6.75-5.52,7.87-9.7l-2.34-.2c-.56-.05-.25-2.1.05-2.71l8.72-17.83,2.53-7.77,1.28,3.85c.2.6,1.42,2.22,1.78,1.85l4.55-11.88c.18-.46.26-2.5.26-2.99s-1.85-.45-2.16-.07l-5.72,6.95c-3.36,5.94-7.23,11.36-12.06,15.98l-5.03,4.82c.92.78,2.66,2.14,2.21,2.63l-2.69,2.92-5.57,8.99c-1.6-4.35,1.44-8.14,3.04-11.97l10.65-25.46c1.19-2.85,3.62-8.91,5.57-11.15l14.22-16.35c2.51-2.88,8.9-3.55,6.72-9.56-1.41,4.35-4,5.11-8.28,7.68-3.08,1.84-6.01,8.07-8.47,12.14l-2.38-3.01c-3.8,2.66-7.96,6.05-10.22,10.11l-6.2,11.1c2.26,3.3,1.53,5.89-.32,9.08l-12.39,21.3c-2.03,3.48-3.61,7.45-6.82,9.18l4.99-10.91c3.6-7.86,10.8-14.09,12.66-23.92-6.45,5.15-9.52,14.05-15.56,19.81-4.84,4.61-7.26,8.59-10.15,14.6l-5.7,11.86c-6.15,6.3-10.53,13.06-15.08,20.31l-9.39,14.94,1.44-6.23c-1.98,1.52-4.35,3.3-7.53,4.34l12.72-14.66,4.51-7.35,6.17-8.57,10.89-16.77c3.44-5.3,7.83-9.24,11.12-14.45l16.39-25.97,12.39-19.24,6.17-7.92,10.8-25.3c-9.35,2.94-11.38,24.75-20.77,33.43l9.11-28.05c-5.95,4.41-8.94,11.03-10.57,17.27l-2.34,8.97-6.98,21.41c-2.67-10.35,5.07-16.1,4.56-25.71l-9.09,16.28-7.34,14.12c-1.59,3.05-2.46,7.05-5.56,7.29l6.36-16.22,5.89-14.65c2.18-5.42,7.81-9.57,8.49-16.45-7.82,8.12-12.49,18.46-15.84,29.72-2.85,1.32-4,3.77-3.47,6.73l-7.04,18.14,5.51-5.12c-.53,4.32-2.59,6.23-5.52,8.43l-1.23,4.41-1.8-2.28c-.21-.27-.67-.05-.67.29,0,.37.11,2.32,0,2.65l-2.91,8.33-.91,2.59c-.19.54-2.36.95-2.59.43-.34-.78-.68-2.99-.36-3.87l10.3-28.55-9.26,12.33,3.32-13.57c-5.13,5.56-7.12,9.36-9.8,14.82l-5.95,12.11c-.51,1.04-2.58,3.42-2.03,4.35l2.42,4.07c-4,3.25-6.75,6.68-8.51,11.12-1.89,4.8-5.18,7.76-8.9,11.05s-7.01,8.46-10.47,13.31c-2.92-4.03,2.59-6.37,3.35-8.61l8.05-23.82,6.74.5,4.56-11.68-8.57,6.75,10-19.58c-2.71.95-4.53,2.93-6.24,5.21l-1.43,1.9c-.28.38-2.5-.13-2.32-.57l1.46-3.58-9.87-1.62-7.63,15.71,1.68,6.08c-3.76,4.93-5.22,9.35-7.48,14.83l-9.22,22.35c-2.74,6.63-9.24,11.94-13.16,18.04l-8.45,13.13c.55-7.63,9.3-12.26,3.73-20.7l5.85-15.21,4.88-9.77c.81.82,2.55,2.81,2.02,3.53l-2.49,3.36-6.77,17.28c9.69-4.43,12.16-14.34,14.25-23.54l5.76-9.73c-6.88-8.64,7.2-10.57,7.74-20.95l-5.19,2.63,5.5-16.02c-4.39,1.64-4.98,5.31-6.37,9.23l-5.11,14.46-1.82-1.35,2.61-11.25c-5.06.65-3.83,4.52-5.33,8.02l-8.26,19.32c-1.56,3.64-1.51,6.64-5.62,9.07l5.27-20.29c-4.85,6.03-5.33,13.25-10.03,18.06-2.2,2.25-5.29,5.26-6.35,8.04-5.98,15.54-14.69,12.82-19.46,25.18l-8.57,22.22c-2.03,5.26-2.89,8.79-2.81,15.68.04,3.61-5.47,9.54-6.49,12.99-1.66,5.62-3.59,8.62-6.49,13.56l-9.09,15.48-.9-.73,8.44-18.9-11.24,8.05c1.25-3.27,3.23-6.6,5.1-7.8,9.51-6.16,18.49-20.16,17.03-28.84l-12.8,14.85c-.15-3.04-.46-6.83.17-8.49l5.62-14.84,9.01-17.78-2.21-.18-9.88,16.17-1.43-1.48,5.32-12.05c-4.3-.58-7.35,1.95-7.86,5.52l-1.87,13.07,5.94-5.3c-1.97,6.99-5.74,10.59-10.33,16.32l2.62-18.33-15.59,33.84c-1.88-4.43,1.71-6.91,2.76-9.8l9.6-26.44-11.84,15.91c-1.63,2.19-1.85,5.6-3.14,8.46l-8.8,19.53c-1.36,3.01-3.55,5.49-6.25,8.89.45-8.5,2.72-13.36,5.88-21.77-6.41,3.58-11.76,10.58-16.23,16.6l-13.39,18.04,3.19-12.32c-10.1,6.01-16.22,14.25-23.7,22.25-6.8,7.28-16.44,11.59-23.38,18.86l-13.02,13.65c-12.63,5.45-20.82,14.75-28.52,26l-12.19,17.8-5.43,7.98c-3.28,4.82-7.37,8.47-12.58,11.55,3.14-10.34,14.53-12.25,7.74-18.97-.34-.33,1.16-2.56,1.54-2.11l2.42,2.8-1.2-6.12,4.25,3.19,16.76-22.17c-2.15-.43-7.37.54-8.54,2.33l-11.09,16.94-2.16.19,7.68-15.79c-4.56-1.45-4.57,1.87-5.73,4.3l-7.18,15.03c-1.86,3.88-5.67,8.24-8.41,11.99l-2.19-.05c-3.24-.08,5.69-7.17,10.6-18.09l5.19-11.54c-9.12-1.69-11.82,7.51-11.54,7.61l3.25,1.22-8.47,15.49.41-6.51c.55-2.41.61-2.67.06-.36l-2.28,1.9c-.41.35-2.09-.21-1.97-.73s.62-2.31.94-2.92l7.01-13.01-6.67-4.2c-1.3,4.73-2.86,8.48-5.24,12.81l-9.44,17.18c-2.01,3.66-3.93,6.68-7.12,9.78,2.15-6.54,4.05-12.13,7.24-16.68l6.15-8.78-6.38,2.91,4.48-11.86c-2.04.81-3.34,1.62-3.61,2.34-3.72,9.83-6.95,19.89-13.74,28.01l10.71-25.42c-15.57,8.37-12.63,27.83-25.33,39.23,3.66-7.99,6.57-14.55,8.96-22.63-7.54,4.43-10.11,10.91-13.82,17.93l-10.47,19.8c-4.8,9.08-22.88,22.8-34.71,27.79l7.7-8.81,1.86-2.12c-.63.72,8.21,2.62,17.48-12.24l7.03-11.27,6.82-13.96c-4.34,2.99-8.56,5.56-10.79,8.68l-16.18,22.59c-3.57-4.32,6.79-8.01,6.56-16.52-6.09.84-10.82,3.17-14.81,7.12-4.4,4.35-9.73,4.9-15.01,7.31l-24.67,11.27-14.77,5.02-21.33,8.42-7.3,1.43-15.14,8.45-20.11,8.22c6.76-6.25,14.2-8.75,21.6-12.5l28.13-14.22c7.36-3.72,13.82-6.01,21.89-7.73,12.21-2.59,23.32-8.93,34.17-14.8l19.54-10.58c6.64-3.59,12.03-6.81,17.63-11.66l19.46-16.86,12.05-11.07,11.14-13.01c4.44-5.18,10.37-10.13,17.4-11.55,4.74-.96,9.64,1.82,14.21,3.5,3.4,1.25,8.82-1.4,12.3-2.12l11.18-2.3c5.69-1.17,10.75-2.64,14.42-7.65s8.2-8.57,13.7-11.64c4.43-2.47,7.44-6.01,11.27-9.39l24.86-21.93-15.57-8.62-7.22.1c-10.6-8.48-27.51-22.48-34.5-14.89-4.42-7.03-7.66-15.28-14.13-20.14-3.62-2.72-9.42-4.3-13.39-6l.98,5.95-5.01-5.55c-3.73-3.35-5.74-6.91-8.62-11.09l-10.55-15.32c-8.62,4.41-4.48-8.42-20.6-13.07-1.89,2.95-3.43,7.05-3.7,11.48l-.74,12.18c-.7,11.59,2.43,8.83,3.8,14.04,1.15,4.38-13.05,14.95-9.75,25.01,2.66,8.08,9.6,13.19,16.64,17.49,7.07,4.32,4.4,15.23-2.39,23.87-2.31,2.94-3.81,6.64-5.39,10.52l-5.16,6.47c-2.08,7.45-7.24,12.88-14.72,14.77l16.04-19.49c6.23-7.57,9.24-17.73,13.21-26.93-4.19-1.76-4.18,8.61-5.09,6.95l-1.74-3.19c-.17-.32-.29-.79-.64-.76l-3.45.33,6.58-8.45-4.96-.51.59-2.89c.15-.75-.83-1.85-2.06-3.02-1.67,1.26-4.21,3.89-4.99,5.42l-3.31,6.53.64,3.89c1.76-2.19,2.54-3.66,6.31-3.48l-10.21,8.76,1.75-8.28-7.33,10.51c-4.95,7.1-14.35,2.08-21.99,19.8l-5.45,12.63c-3.73,8.64-8.36,17.13-15.98,23.25l11.45-18.09,1.54-2.42c.4-.63-.7-2-1.43-3.03,3.7-4.21,6.37-8.55,7.6-14.64-4.02,2.94-5.58,5.69-8.21,8.89l-4.8,5.84c-3.69,4.48-7.28,7.83-11.47,11.53-7.91,6.98-12.71,16.64-22.23,21.86l17.79-21.49c2.17-2.62,6.48-5.57,9.04-7.43,5.35-10.59,13.78-17.52,22.31-25.33,3.91-3.58,9.5-9.67,13.62-11.21.38-.14,1.39-1.62,1.65-1.94s1.23-.88,1.43-.53l2.03,3.5c2.15-3.42,4.85-7.64,6.3-11.47l5.17-13.75-4.74,2.06,3.1-4.22c.56-.76-.13-2.38-1.03-3.33l3.77-4.7-2.74-.31c-.54-.06-.17-1.6-.04-2.2l.58-2.57c.19-.86-1.02.27-3.1.51l2.68-10.71,7.06-12.07-10.13,8.46,6.2-11.31-5.82,5.47-.74-4.69c-2.06,6.86-4.68,10.47-8.66,16.35l6.29-3.6-4.42,8.12c-1.83,3.36-3.49,5.61-7.12,8.02l3.31-8.83-9.93,11.57c-2.25,2.62-2.84,6.15-4.32,9.3-3.05,6.47-10.23,11.69-14.52,17.02l-1.15-1.03,18.14-25.98,7.71-10.28,11.25-18.84c-5.24-4.44,7.69-7.07,11-19.14l-6.43,5.27c2.55-6.62,6.38-9.19,6.48-15.36l-15.97,25.83.45,3.17c.12.85-2.45,1.51-4.79,1.5l6.15-12.09,11.35-20.23c-3.24.82-3.41,2.76-4.86,4.86l-8.83,12.8-10.18,17.96,5.71-1.98c.79,6.03-4.71,5.09-6.25,6.97l-13.25,16.34c-.04-4.85,3.36-7.24,5.04-10.43l12.24-23.14,4.53-9.89c2.83-2.79,5.37-5.16,6.59-8.46-5.03.03-6.66,4.48-9.6,7.6-4.8,5.09-7.61,9.95-10.44,16.26l-8.66,19.3c-2.41,5.37-7.52,10.08-11.74,14.64-3.1-4.52-.2-7.24,1.22-10.46l9.12-20.66c-3.95,2.64-6.3,6.98-9.34,10.54l-8.46,9.93c-.65-5.34,2.88-10.3,7.23-16.33l-17.29-.89c-.6,7.28-1.61,15.54-3.59,22.15-4.99-3.61-.18-6.64-.25-8.94l-.49-15.29c-5.05,1.11-6.25,3.8-7.64,7.76l-3.9,11.17c.58,4.55-.42,7.32-2.14,11.64l-5.9,14.76-7.82,15.23-6.68,12.55c-1.83,3.44-3.47,6-6.3,8.88,1.57-8.14,5.07-13.83,8.6-20.78l4.64-9.14c.75-3.76,1.56-8.45,6.86-8.76l1.25-9.56c-1.95-2.84-1.51-4.33-.63-7.31l2.84-9.64-8.6,13.22-1.58-.35,3.19-8.63c-4.66,2.88-6.73,8.09-8.09,13.32l-2.96,11.37c-1.3,4.98-2.13,10.4-7.88,12.26,3.36-6.38,4.65-10.95,5.48-17.46l3.86-10.3-2.13-1.89-6.43,9.29c-7.44,10.75-10.89,22.19-13.13,35.3-1.62,3.12-4.6,7.39-7.05,10.33,3.15-9.75,6.03-17.25,7.53-27.02-2.14,1.27-4.24,3.23-4.86,4.72l-8.61,20.65c-1.44,3.45-3.28,6.45-6.36,8.69,3.94-9.15,7.62-16.2,10.28-26-4.3,2.2-8.24,5.47-9.77,8.72l-6.7,14.23c-1.88,4-3.75,7.34-7.1,10.65,1.84-7.68,5.06-12.99,8.78-20.52-6.32,1.23-8.83,7.52-13.31,11.75-6.52,6.16-13.42,13-20.99,17.29l-13.57,7.69c-4.38,2.48-10.75,1.38-13.71,8.08l-14.09-10.02-10.01-4.05-12.06-8.92c-3.46-3.58-6.48-11.41-13.53-9.8-1.36,3.78-2.85,12.1-1.24,15.76,6.79,15.39-5.03,15.56-3.1,23.43,2.2,8.98,10.67,4.28,13.64,15.24l2.79,10.31-5.64-5.3c-.61-.29-4.04,3.02-4.75,4.81-1.89,4.8-5.47,7.34-9.01,10.98-3.77,3.87-7.26,10.99-9.64,16.17l-3.62,7.9c-16.49-.25-15.26,15.55-24.43,19.08l7.18-11.24c3.35-5.24,9.29-8.79,14.97-11.48l6.08-11.87-1.91-1.51c-.34-.27,1.2-1.23,1.5-1.57l4.62-5.13c3.64-4.04,5.66-9.25,5.38-14.4l-5.62,6.96-13.03,15.41,7.93-16.1-6.66,3.32c-5.04,2.51-8.36,5.5-12.55,9.43l-9.87,9.26-9.28,10.71,9.58.42c0-.28-.03,2.31-.04,3.23,0,.87-2.47.42-3.7.5-1.32.09-3.21,2.45-3.96,3.54l-1.3-4.11c-.29-.9-3.26.48-3.97,1.14l-22.31,20.7-1.36-1.19,8.86-8.99,20.15-20.96,18.31-20.44c3.6-4.02,5.44-8.3,7.63-13.37,3.65-8.41,11.61-15.8,14.45-24.59l5.57-17.24c1.15-.77-4.19-.29-5.14.8l-16.52,19.1-1.65,2.27c-.46.63-1.32-1.97-.94-2.82l6.51-14.4,1.25,2.37c2.14,4.06,8.11-9.89,11.14-20.57l-8.66,9.08-1.6,7.5-1.46-5.69c-5.31,5.97-8.97,12.32-12.52,19.45-2.06,4.12-2.6,9.25-8.21,11.13l7.6-15.55c-6.25,1.85-5.94,7.86-9.07,11.61l-6.42,7.68-.38,2.66c-.04.31-.2.43.47-1.03l6.63-3.04c-2.19,5.31-6.16,7.47-9.87,10.94l-9.35,8.73c-1.05-5.62,3.47-7.2,5.3-10.57l5.92-10.88,1.13-2.48c.19-.42-1.29.14-1.68.33l-8.5,10.78c.36-4.48,1.55-6.41,3.16-9.37-4.6,2.44-9.06,4.44-14.63,6.04-1.48,1.49-2.13,6.84-3.58,9.02l-10.56,15.97c-3.96-4.85,8.76-10.26,8.52-23.07-6.64,3.4-14.37,10.18-12.68,14.86l-9.01,12.59,3.47-10.7-10.12,7.31c-8.08,5.84-14.15,12.07-20.02,20.13l-11.16,15.35c-3.05,4.2-5.4,8.98-11.06,10.1,9.05-11.37,17.4-21.33,24.79-33.74-7.34-.75-8.25,10.29-14.97,14.35l5.23-11.24c.1-.29-2.56-1.29-2.84-.67l-1.27,2.73c-5.2,10.47-10.98,20.03-17.68,29.77.3.82.84,2.31.51,1.42,2.51-.12,3.18-.29,2.94,0l-1.43,1.76-10.16,6.07,22.73-36.9c-.6-1.46-.73-2.06-1.08-2.05l-1.91.07-15.35,24.63c-.98-.06-2.76-.18-2.55-.61l1.13-2.41,9.09-15.05c-10.67,1.85-11.99,13.73-19.81,19.18l3.21-9.24c-18.21,8.95-26.19-3.12-38.63,6.75-6.83,5.42-14.97,8.36-22.08,12.97l-15.37,9.96c-9.83,6.37-18.78,14.2-31.97,13.23l26.6-13.99,21.95-13.13,22.33-15.16c10.22-6.93,17.9,3.73,33.18-3.29,20.92-9.61,28.05-25.93,40.92-22.51,17.83-2.68,32.98-19.49,44.83-34.15,3.68-4.55,8.57-5.04,13.69-6.37l10.66-2.76c3.66-.95,9.57-4.71,12.41-7.21l18.95-16.62,13.59-16.52c5.35-3.98,12.51-8.31,18.98-9.91,6.31-1.56,11.9,5.83,15.56,8.97,7.72,6.62,7.63,11.13,13.69,11.94,12.11,1.61,12.23,16.75,37.89,2.8l9.68-5.27c6.14-3.34,13.16-8.24,17.33-13.83,5.6-7.51,11.75-11.9,18.64-18.17l25.23-22.99,15.31-20.78c3.38-4.59,8.12-7.06,11.38-11.76,9.32-13.42,19.84-25.05,34.32-17.6,6.96,3.58,22.4-1.49,24.82-6.38,2.84-5.74,7.69-5.41,11.9-8.43,6.9-4.95,12.19-13.61,18.52-19.57l5.93-2.97c3.56-1.78,8.86-6.42,12.93-6.01,8.5.85,13.68,6.88,18.83,11.93l12.97,12.72,9.81,11.96c4.46,5.43,20.17,4.82,29.65,22.43,4.51,8.39,13.79,3.57,26.49,14.49,4.38,3.76,9.86,3.74,14.44,6.34l20.92,11.89,19.36-18,15.03-11.74c10.65-8.32,19.24-17.33,26.94-28.83l14.58-21.78c2.62-3.92,9.34-5.45,13.79-5.47,7.73-.05,12.19-3.66,18.01-7.28,4.25-2.65,6.27-4.19,8.88-8.28l32.51-50.83,16-15.61c3.24-3.16,9.58-5.87,13.69-4.28,13.56,5.24,18.85-1.91,29.97-4.2,5.98-13.85,16.54-23.14,26.9-33.52,6.32-6.33,10.37-16,15.05-23.26,4.24-6.59,9.28-7.43,16.14-9.4,12.99-3.73,29.7-22.09,35.89-19.76l13.57,5.1c.38,6.98,4.65,9.68,10.68,11.3l10.57,15.91c4.37,6.57,13.91,7.92,20.5,12.32,4.41,2.95,5.4,10.54,8.47,14.41l13.45,16.96c2.2,2.77,4,6.52,5.55,9.91,7.63-.24,11.02,5.43,15.01,10.8,5.85,2.98,14.95,4.52,21.91,3.95l9.19-3.41c8.19.26,13.88,7.06,18.11,12.88l14.32,19.66c4.17,5.72,9.88,9.96,16.03,12.99l12.4,6.11c8.76,4.32,16.39,12.36,21.18,20.64,4.41,7.61,10.42,9.5,18,12.65l19.54,8.1,12.29-6.3c16.8,3.54,20.38,18.33,34.58,29.84,2.64,2.14,6.73,5.98,7.61,8.82,2.37,7.65,6.7,10.61,12.53,14.74l17.6,12.47c4.52,3.2,8.55,4.68,13.94,6.9,4.18,1.72,8.28,5.95,12.52,9.34l19.61-7.26c5.09-1.88,9.92-4,13.25-8.5,4.11-5.56,9.5-10.18,15.88-12.91,5.56,2.44,9.6,1.91,13.95-.73l11.32-5.6c6.71-3.32,12.34-7.6,16.94-13.49,3.55-4.54,7.83-7.28,12.96-10.31,4.03-2.38,9.18-6.9,14.09-7.18,7.64-.43,13.65,5.55,17.98,10.65l7.26,8.56,18.75,18.88,12.31,11.78,13.5,13.36c2.95,2.92,7.63,7.92,11.72,8.04,19.78.58,20.61,12.16,27.53,15.15,16.24,7.03,14.92,17.74,26.68,19.56l14.73,6.19,17.44.73c5.81-3.13,11.58-9,18.93-8.38,11.36.95,20.59,19,32.97,28.75l19.04,15.01c8.71,6.87,16.61,13.4,26.83,18.1l11.36,7.56c6.2,4.12,14.78-.13,21.71-1.68l2.76.76c6.48,1.78,13.26,7.91,19.09,11.99l11.51,8.07,22.07,12.39c1.02.57,3.02,2.4,3.6,3.04l1.84,2.06s-1.33.84-2.17,1.36c-11.57-5.79-21.41-11.6-31.52-18.66l-16.56-11.56c-2.91-2.03-8.3-4.63-11.36-4.28-5.21,2.09-10.23,3.49-15.12,2.4l-1.58-.35,3.6,6,.85,2.57c.11.34-1.04.01-1.29-.24l-1.97-1.98-1.02-1.6-3.34-6.19c-.19-.35-1.51-.95-1.89-1.05l-1.95-.53c-.55-.15.39,1.73.61,2.28l1.68,6.91-2.28-1.42-2.74-7.1c-.54-1.4-3.3-3.91-4.54-4.85l-2.38-1.8c-.43-.32-1.98-1.1-1.83-.59l1.21,4.18,2.68,7c-.27,4.99,9.82,13.47,5.32,11.32l-2.55-1.22-9.48-6.76-1.82-1.96c-.4-.43,1.1-1.23,1.62-.96l2.48,1.28c.55.29,3.37.88,3.12.3l-1.71-3.96c-1.79-4.13-2.91-7.3-3.11-11.2l-3.94-2.45c-.2-.12-1.63-.84-1.78-.69l-2.06,1.96c-.55.53-1.27-.77-2.65-2.92l-2.07.8,6.5,4.56,2.32,6.86c-11.36-5.53-12.87-19.59-21.21-25.54l-19.35-13.79c-6.52-4.64-10.67-12.98-16.83-18.06l-10.68-8.83c-2.62,11.64,1.59,19.05-1.45,25.97,2.27,3.01,6.52,8.77,3,12.88-9.23,10.77-6.33,22.81-7.85,22.01l-3.15-1.66-1.93-1.6c-.33-.28.47-1.65.91-1.61l1.93.14.34-1,4.03-10.89,4.13-9.65-4.51-10.59c-.27-.14-1.26-.35-1.15-.79l.68-2.83.55-2.25c.45-1.85-3.18-2.29-3.29-3.03l-.44-3.18-1.81,1.18c-.16.11-.81,1.06-.91,1.28l-7.8,16.52-3.07,5.5c-.27.49-2.73,1.21-2.49.65l1.36-3.27,3.11-9.62,5.35-8.57,6.26-11.56,2-1.04-1.58-1.56c-1.41.62-3.83,1.98-4.31,3.22l-5.27,13.71c-5.17-3.73.1-6.41,1.27-8.52l1.25-2.25c.3-.54-1.27-2.04-1.78-1.71l-4.37,2.86c-.07,1.72.05,5.86-.58,7.27l-6.68,14.96c-.63,1.4-1.45,3.11-.88,3.83l2.86,3.59,1.15,1.42,1.35,2.13c.3.47-2.73.4-3.05-.06l-10.79-15.77c3.06-5.27,4.93-10.09,6.36-15.04l-.78-3.53-6.66,10.75-2.01,3.74c-.42.78-2.56-1.66-3.1-2.53l-11.98-19.11c-4.01-1.74-9.22-3.88-11.74-7.65-3.85-5.74-9.16-8.48-14.31-12.49-6.33-4.94-11.43-12.97-25.32-15.08l1.39,8.71.45,2.77c.07.45-1.08-.18-1.19-.61l-.7-2.89c-.4-1.65-1.65-6.04-3.17-6.84-12.57-6.61-14.76-14.55-18.52-16-.38-.15-1.16.47-1.13.86.04.61.24,2.68.6,3.26l9.02,14.76,6.8,14.81c-1.17-.62-1.95-1.01-2.04-1.18l-.86-1.79-15.85-26.54-2.7-5.6c-2.83-5.88-4.61-12.44-10.58-14.1-.11,1.5-.17,2.61-.18,2.58s-2.46-.91-2.65-1.24l-6.63-11.02-16.25-17.45c-3.79-4.06-6.54-8.04-11.94-9.84l-2.47-.82c-1.23-.41-5.79,14.83-1.58,29.28,3.07,10.54-9.13,13.32-7.22,19.53,2.05,6.67,11.2,8.35,12.09,21.03,3.55,6.1,12.23,11.27,8.39,20.18l1.85,1.28,2.35,2.15c.39.35-.51.71-1.44,1.08-.7.59-1.48,1.19-1.55,1.41l-1.36,4.69-.71,2.45-3.39-.37.97-2.7,2.55-7.1-3.77-9.52-1.68-4.26c-.47-1.2-2.52-3.13-3.64-3.56l-6.93,10.97c-.48.23-2.78.72-2.6.14l1.2-3.86c.06-.2.74-1.01,1.17-1.5l4.42-5.13c.74-.86,1.72-3.98,1.01-4.86s-2.03-1.5-4.24-2.73c-.23-.95.45-1.67,1.37-2.62l1.48-1.54c0-.26,0-1.48.04-1.37s-1.51-.55-1.84-.68c-.17-.07-1.19.5-1.3.7l-.88,1.6-5.05,9.19-1.13,1.61-3.25,4.83-1.29,2.51c-.26.5-2.2-.25-2.07-.8l.7-2.88c.05-.23.82-1.24,1.05-1.53l.88-1.08-1.34-.99c-.34-.25-1.77-2.07-1.36-2.09l1.78-.09,2.2.05,4.56-6.24c1.49-2.04,3.89-7.25,2.64-9.53l-5.03-9.22-8.21,12.28-.45,1.97-2.18.79.47-2.55.36-1.96c.08-.46-.27-1.67-.56-1.31s-1.51,2.17-1.58,2.62l-1.5,8.82,2.79-2.48c.64-.57,3.31-1.13,3.31-.28-.02,7.23-7.4.78-12.13,10.49-.77.32-1.95.73-1.8.3l.94-2.58,5.63-9.58c-.37-2.87-.34-5.18.99-7.24l7.14-11.13-5.17-5.2,6.88-16.19c-9.13,2.32-11.78,8.89-17.42,15.28-1.45-6.49,8.94-13.77,12.18-26.4-.71-.26-3.68.12-4.93.62l-6.36,8.02c-2.15,9.65-7.22,18.52-12.15,26.27l-.54.49-4.08,6.32c-3.24,5.02-6.62,9.61-14.43,10.24l5.39-12.04c3.31-7.39,3.25-10.6,5.89-15.17-4.98-2.94-5.67,6.96-13.51,13.03-.71-.65-1.87-3.09-1.24-3.45l2.92-1.64,7.63-11.48c-4.84.34-4.56,4.3-5.88,6.95l-1.16,2.32c-.3.6-2.28.04-2.32-.64s.12-2.5.34-3.14l1.24-3.64c.28-.82-3.64-.67-4.51-.32l-14.43,29.47c-1.51-3.11-.85-5.49-.06-7.75l-6.9,5.96,3.95-10.91c.9-2.49,4.29-6.27,6.61-8.25l-3.11,11.52c5.61-4.52,8.24-10.58,7.53-17.46-5.38,2.36-7.75,7.8-11.23,10.32s-6.45,4.24-8.39,7.52l-3.98,6.72,1.21-8.29-14.01,6.36c2.22,3.09,5.98,5.66,8.35,5.95.4.05,1.75-1.62,2.04-1.9s1.83-.44,1.67-.07l-1.57,3.52c2.98,1.14,7.31,3.16,9.37,5.77l14.05,17.8c4.14,5.25,12.11,7.52,17.82,10.96l18.68,11.27,12.21,2.77c9.56,2.17,18.76,7.06,26.58,13.14l21.28,16.54c4.41,3.43,10.62,5.39,15.42,8.68l19.26,13.24c11.11,5.54,21.6,9.31,31.48,17.33,2.6,2.11,8.55,2.29,11.73,3.6,11.86,4.87,23.15,10.77,32.54,20.49-12.59-2.65-26.25-16-37.42-17.53-8.25-1.13-12.53-6.16-19.12-10.48l-24.03-9.52-6.44-3.37.24,6.46c-3.06-3.08-4.85-5.77-6.44-9.07l5.2,1.34c-7.37-12.12-15.63-8.65-15.93-8.86l-4.95-3.46,5.89,12.86c1.42,3.1,7.6,5.03,4.01,10.73l-15.33-27.57c-2.26-4.07-7.03-7.98-11.18-11.23-1.22.85-2.84,3.02-2.55,4.28l1.55,6.87c-4.9-3.46-7.52-9.9-6.53-16.75-4.31-2.68-10-8.3-15.01-9.29l-17.55-3.46-8.06-1.51-13.69-12.14c-2.93-2.6-7.21-4.07-11.29-4.65l1.11,4.91c-1.86-1.35-4.99-3.29-5.97-4.56l-20.59-26.56-17.5-8.05-7.26-5.82-12.36-9.05-14.33-6.4-10.46-5.92c.76,5.02,3.14,8.27,5.99,12.44l9.71,14.16c-10.24-5-13.08-16.41-19.45-24.93l-11.4-15.25-29.74-34.39c-4.28-4.95-8.64-9.28-14.9-12l-8.14,4.62.91,14.91c.22,3.59-2.77,6.62-3.97,9.85l-5.35,14.4c-1.14,3.06-.69,5.44-.51,10.18l-6.05-6.18,3.65-2.44,8.99-31.07c-4.16,1.22-5.65,4-7.39,7.42l-8.43,16.62,3.97,9.04c-6.49-2.73-8.78-6.5-12.46-11.45l-9.96-12.07c8.84.8,10.56,8.42,14.66,14.45l11.15-19.09-.04-13.39-6.91-3.22c2.7,7.03,2.58,20.62-2.57,22.32l.76-22.32c.06-1.83-4.43-4.38-5.65-3.93,2.95,8.75,2.26,16.68-3.33,24.93-13.45-11-10.76-18.34-16.07-27.61-4.62-8.06-8.46-25.95-15.25-29.06l-18.65-8.53c-2.32-1.06-3.8-1.28-6.44.09l-8.01-10.79-10.92-13.57-11.65-16.17-11.94-5.38-.46,10.23-1.09,24-4.02-2.58c-2.16,4.76-4,9.93-4.41,16.7-2.68.54-6.85-2.64-8.8-6.11l-3.98-7.1c-3.89-3.2-8.9-5.23-7.44-12.8l5.29,5.84c.7-4.75,1.44-7.64,3.55-12.2,2.92-6.33,2.23-16.79-3.02-14.65l-1.57,13.33c-1.4.74-3.7,1.46-3.74,2.45l-.21,6.36-8.9-9.93c-1.48-1.66-2.64-4.34-2.8-7.03-3.75-7.79-7.02-15.54-7.75-24.27l-19.07-23.7c-3.17-3.94-3.92-11.3-8.63-14l-12.83-7.33c-1.08-.61-2.55.03-5.26,2.21l-8.5-14.61c-3.66-6.28-7.24-13.86-14.1-17.13l-8.74-4.16c-2.06,1.3-3.69,5.77-4.7,8.75-3.55,10.39-6.33,19.84-7.58,31.11l-7.77,10.69c-6.25,8.6,5.9,15.21-4.42,29.88,1.03,3.07,3.08,6.93,4.95,9.74l1.49,2.24c.29.44-.74,2.29-1.19,2.01l-2.78-1.71-2.34-1.44c-.65-.4-1.57,1.3-2.21,2.24l-14.39,20.84c-2.1,3.04-2.95,11.4-1.46,14.67l6.77,14.87c6.42,1.22,12.26,2.98,16.64,7.84,2.74,3.04,1.95,9.61,2.82,13.29,1.11,4.69,8.29,3.8,12.09,4.09,5.64.43,9.47,7.42,9.54,12.26.1,6.85,3.15,9.4,8.14,12.71,6.92,4.58,13.07,8.77,21.89,7.15s16.91,5.63,19.81,14.12c3.23,9.46,8.02,16.83,14.16,24.43l9.71,12.02,18.74,16.74c5.7.86,12.72-.27,17.67,5.4,1.76,2.01,6.8,3.29,9.16,4.93l18.68,12.97c3.91,2.72,8.31,6.45,13.39,5.4,6.61-1.37,12.07-.2,16.93,4.25,4.86,4.45,10.25,6.8,16.48,9.04,6.93,2.49,13.16,7.58,19.25,13.12-3.86.59-8.14-1.52-11.23-4.31-4-3.62-8.11-3.62-13.07-5.45-8.52-3.15-16.41-18.05-30.16-10.05-17.45-5.87-26.55-21.8-42.55-26.13l-14.01-3.79,6.65,13.05c-11.68-6.55-12.69-20.41-20.62-24.18l3.26,13.32c-4.63-3.87-5.74-9.93-6.08-15.97-1.48-1.59-5.87-1.28-8.6-.03l-4.09-6.52-4.53,9.92-7.86-5.87c-1.35-1.01-4.06-4.42-5.45-3.68l-6.52,3.48-.34-10.27.61-2.93c.14-.67-2.05-.3-3.72.01-.52.45-.46-3.2.4-3.11l4.5.45,2.68-13.13-6.74,9.79-12.95,14.27,1.59-7.93-3.5,5.54-5.58,11.12c-2.73-7.28,4.91-11.9,3.8-16.19l-1.24-4.81c-.34-1.31,3.12-3.76,4.64-3.73l-.54,6.02c.78-.84,3.09-3.54,3.48-2.86l2.12,3.74,8.53-11.03c3.53-4.56,3.3-11.34,1.39-10.64-.34.13-1.55.94-1.67,1.29l-2.8,7.78-2.2,6.11-2.86-6.47c2.89-3.9,2.26-9.45-.96-14.04l-9.06,17.11c-1.7,3.21-2.63,6.16-4.73,8.7l-6.1,7.39c-1.57-2.55-1.43-4.53.43-8.18l-4.97-1.8c-3.14,2.78-5.94,4.59-9.42,4.94,8.59-9.54,12.35-22.28,10.24-21.91l-4.85.85,5.64-7.37,5.01-9.89,1.09-.19c.32-.97.68-2.82.27-3.76-.5-1.13-3.6-2.69-4-2.17-5.47,10.32-12.01,19.58-20.51,27.79,1.44-7.06,7.34-10.9,10.54-16.58l7.25-12.89-7.56-6.72-6.9,12.42c-1.32,2.38-3.55,5.06-5.24,4.82l9.01-17.23,2.75-5.26-9.45,6.11,5.8-8.53.44-3.64c.09-.77-2.34-.75-2.74.07-1.43,2.98-5.05,8.63-7.47,11.72-2.38,3.04-2.05,7.7-8.55,6.3l8.36-10.28c2.02-2.49,3.85-7.03,5.61-10.71l-8.36,7.89,2.06-8.09c-3.75,2.87-6.36,6.57-9.41,10.8l-1.48,2.05c-.32.45-2.24-.32-2.12-.87l.61-2.83.86-3.96c.18-.82-2.16-1.77-3.01-1.76-1.06.01-2.36,1.36-2.99,2.49l-5.72,10.15-2.7-3.57-6.79,12.65c-1.22,2.28-.58,6.63-6.34,5.63l7.53-14.31c3.06-5.81,5.97-10.2,5.98-17.61l-8.58,9.08-2.69-2.27-6.55,8.54c-.85,1.1-4.09,2.55-6.14,3.45,3.39-8.85,12.3-10.65,11.03-20.28-3.45,1.43-5.78,4.18-7.73,7.99l-12.03,23.51,7.22-4.21,7.47-7.61c-1.57,7.33-8.37,12.7-15.01,14.46-11.36,3.01-6.72,9.73-10.99,14.63-3.24,3.72-3.04,7.29-1.53,13.25l-22.53-9.41c-4.68.52-12.79,7.34-12.44,11.7l.71,14.88-.38,10.88c-4.83,4.42-10.82,11.59-9.62,18.53.75,4.28,6.93,8.93,5.44,14.45l-4.79,11.29,4.94,10.44-4.09-1.88c-.67-.31-1.85,1.05-2.45,1.8l-8.38,10.47c.64-6.27,5.23-10.91,7.49-16.86l.88-9.57c-9.05,6.91-10.71,15.69-15.8,22.38.27-3.4.76-5.16,2.13-7.6l8.7-15.52c.48-.86,2.14-2.82,2.98-2.64l4.18.91-1.05-7.96c-3.19,3.14-4.09,4.93-8.2,4.94l6.21-6.46-1.95-8.06-11.68,20.61c-4.88.72-8.45,4.01-9.62,8.18l-5.09,10.47c-4.55-6.52,7.76-22.43,13.44-22.75,2.27-1.99,4.26-6.43,6.24-10.26,3.1-6,9.12-9.71,9.46-17.91l-12.16,17.08c-.77-7.4,3-12.38,7.79-15.7-.42-1.93-1.22-4.84-.27-5.72l4.17-3.85c2.4-8.05,7.64-11.06,6.99-12.39l-1.31-2.68-10.29,16.34c-4.03,6.39-8.26,10.92-12.23,17.58.84-4.73,2.73-10.15,5.2-13.55l7.73-10.66,5.04-6.65-.91-.8-11.52,13.47c-3.16,3.7-8.37,5.96-8.64,11.88-.22,4.86,1.15,10.86-4.35,13.88l2.2-11.42-1.84-.07c-3.44,5.81-6.37,11.65-9.58,18.99,6.06-2.64,10.22-6.17,15.21-10.72,1.39,14.84-12.32,11.7-18.46,19.71-3.51,4.58-2.8,10.95-8.45,14.56l8.84-23.42c-4.61,3.13-9.1,8.33-10.4,12.61l-5.08,16.73-2.32,5.46-6.93,17.07,7.89,2.25,13.43-26.63,3.57,2.04c-1.17,1.36-4.08,4.54-4.92,6.35l-8.89,20.57,6.55,8.32,6.66-10.47,1.31,1.11-6.63,12.12,11.92,8.89c.77.57,2.72,2.19,2.47,3.05l-1.12,3.88c-4.87-6.05-8.77-9-14.28-13.61l-8.69-10.24c-3.2-3.77-7.48-4.34-12.54-2.76l-6.67-7.3c-5.01-5.48-13.15-6.74-20.82-7.66l-.46,22.94c-1.91,2.82-3.55,6.39-5.08,9.56l-3.51,7.27.54.09,6.8,7.68c1.05,1.19,2.14,3.33,3.04,5.88l-6.49-2.55-7.66,14.41c2.54-2.27,5.81-3.36,7.93-2.74l.96.28,5.77-1.75,4.09-3.87c4.29,4.42,10.2,13.38,10.35,19.16l-7.3-8.41c-2.61,5.65-4.23,9.38-9.03,12.94.21-6.79,6.58-10.24,6.34-18.26-.93,0-3.17.17-3.13.71l.22,2.59-6.31,9.91-.89-1.08,5.04-10.66-.93-.07-6.37,8.66,1.16-8.64-.78-.5c-5.9,3.68-10.67,7.78-16.21,13.41l2.97-11.83,6.35-5.53,6.05-11.85-3.43-6.55-.5-.1-7.98,11.46-1.05-.84,10.87-19.65c2.06-3.73,1.66-5.45,4.78-9.61l-5.55-2.06-7.77,8.35c2.34-10.44,11.7-15.52,11.84-23.36l-14.63,20.6c.08-.08-1.68-3.49-2.49-2.99l-5.22,3.24c2.1-8.2,10.67-11.66,18.15-23.14,3.31-5.07,7.45-7.63,13.94-6.82l5.1-7.89c4.32-6.68,9.2-10.12,17.23-11.31,2.91-.43,7.06-5.08,9.8-6.33,5.84-2.67,8.18-6.46,11.88-11.6l11.01-15.25c3.78-5.23,6.47-10.17,10.69-14.96l14.17-16.07,12.59-14.22,6.66-8.83c3.14-4.17,4.83-7.82,7.27-12.29l9-16.51c1.17-2.14,4.57-4.98,6.15-6.54-.04,4.81-4.43,7.28-5.91,10.41l-9.36,19.72,1.23.4c1.75.57,3.69-12.12,15.92-16.17,3.29-5.88,4.39-14,11.97-16.33l-8.41,13.98c-1.42,3.58-2.13,6.65-5.86,7.69.07.05.43,3-.02,3.65l-5.27,7.52c.47.39,2.92,1.21,3.31.55l2.42-4.09,7.6-11.2c3.95-1.93,6.54-3.92,8.33-7.72l8.07-17.2-7.6,4.96,6.98-8.53c2.5-3.06,6.06-4.28,10.36-5.67,2.73-2.58,7.79-7.8,9.63-11.26l10.29-19.31c.16-2.88-1.56-7.61-3.21-11.11-2.93,2.1-6.42,6.64-5.92,9.25,2.84,8.95-3.67,25.37-13.41,27.42,5.69-5.94,9.61-11.02,10.66-19.21l-11.88,9c-1.73,1.31-3.7,5.95-4.9,7.8l-1.58,2.45c-.48.73-2.34-2.22-1.63-3.07,2.96-3.49,7.38-11,9.08-15.96,4.3-12.58,18.54-17.62,16.4-26.31-3.23,4.42-5.32,8.36-8.5,10.73l-9.12,6.8c-7.59,5.66-12.15,12.31-11.31,21.5l2.23-3.34c.27-.41,1.63-.44,1.51.03s-.77,2.73-1.14,3.05l-13.58,11.54,7.59-17.81,8.38-22.71,2.02-7.07,6.51-11c.94-1.58,4.43-3.07,6.15-3.65l11.04-6.61c-5.32,9.8-21.09,14.22-21.69,26.26l14.09-12.4c.08-.07.16-.36.36-.91ZM1052.09,111.78c6.49-7,10.02-14.73,13.08-24.11-4.16,1.36-5.46,4.75-6.98,8.61l-6.1,15.49ZM1042.44,153.62l4.3-9.58c-7.33,6.14-11.56,12.12-12.26,20.47,4.14-3.12,5.98-6.5,7.95-10.89ZM1169.19,185.61l.89-10.78c.41-4.92-2.26-10.03-7.58-10.56l2.3,10.55c.93,4.25,1.71,7.81,4.38,10.79ZM1173.74,190.47c3.43-6.01,4.04-10.91.94-15.91l-2.04,8.69-1.07,3.88c-.25.9,1.67,3.4,2.17,3.33ZM1201.94,194.75l-3.61,5.89-5.34-10c-.9,6.57-2.19,11.79-5.29,17.65l1.09-17.8c.25-4.14,3.09-8.54-1.12-12.28.77,8.23-.79,14.55-3.87,21.18-2.38,5.14.12,8.42,2.28,11.79l6.02,9.4,6.36-15.66,3.48-10.17ZM1192.78,179.53l5.56,14.68c.64-.22,2.76-2.34,3.03-3.54.66-2.98-3.17-11.39-8.59-11.14ZM1027.4,200.65l-.28.51-3.06,7.62c-4.77,1.22-7.24,3.33-10.13,6.71l-5.29,5.68c7.49-1.51,19.12-13,19.98-17.29l.59-2.93c.09-.47-1.77-.34-1.81-.3ZM1024.73,226.48c-.01-.75-.56-1.47-1.56-3.2-2.86,3.81-4.5,6.27-6.44,10.61,3.35-.43,8.03-6.23,8-7.41ZM1044.92,231.8c.92-.3,2.2-2.91,1.33-3.2l-3.59-1.19-6.69,7.26,8.95-2.87ZM1055.74,241.79c-2.27,3.67-3.94,7.87-3.41,12.48l7.78-8.18-3.76-11.93c-1.86,2.11-6.09,5.73-7.04,8.16l-5.43,13.84c2.61-.61,3.91-.9,3.81-1.71-.07-.6-.35-2.94-.06-3.47l6.43-11.85,1.68,2.66ZM1034.74,249.09c-1.53,3.09-2.65,6.02-3.35,8.99,6.55-1.8,6.27-7.85,6.76-12.49l1.93-9.05-7.09,5.08,5.49-.08-3.74,7.55ZM880.51,249.83l-13.7,26.5c6.5-7.5,13.48-14.93,13.7-26.5ZM1072.4,255.38l3.31-.21c.42-.03.04-1.57-.15-2.87l-15.13-2.38c-1.11,2.27-1.59,4.86-1.11,7.21l2.97-6.7c3.24,4.76,5.66,5.24,10.1,4.95ZM1289.25,251.52l9.24,22.97c.81-11.8.81-16.91-9.24-22.97ZM999.05,289.65c2.06-.85,6.1-3.27,6.86-4.83l12.09-24.81-2.06-.17-10.18,14.64-6.7,15.17ZM1304.98,278.51c2.78-6.5,2.95-14.64-3.64-19.05l-.09,19.74c0,.77,1.84,3.72,2.13,3.04l1.6-3.73ZM592.51,304.11l6.74-15.43c1.07-2.45,2.02-4.56,1.62-7.37l-10.16,19.29-3.25,10.02c2.49-1.31,3.83-3.72,5.04-6.5ZM1096.29,286.85l-.55,6.26c3.13-3.07,4.5-4.3,8.6-6.14l-3.35,7.9,9.13-9.72c-3.57.65-7.23.71-10.31-.49l-3.58,1.67.07.52ZM1144.19,333.19l3.67-3.74c2.59,2.5,3.24,2.99,6.5,3.67l-16.96-22.18-9.14-17.62c-1.3-2.52-3.85-4.86-6.12-5.83-2.3,8.2,2.75,13.09,7.61,17.96s2.41,12.72-2.59,17.68c10.81-2.07,4.31,10.33,15.07,14.99l-.61-10.25c.9.09,3.01,1.41,2.91,2.32l-.34,3.01ZM1543.79,300.19l4.76-12.99c-3.84,3.5-6.55,8.66-8.51,13.6-.25.75,3.45.19,3.74-.61ZM1544.48,318.41l1.08-3.85-3.63,2.27,6.69-20.32c.45-1.37,4.85-2.8.36-5.11l-6.36,16.86-3.28,9.86,7.45,3.85,3.11-6.57-5.41,3.01ZM989.45,306.92l6.7-13.12c-6.83-.28-10.18,7.49-9.98,11.24l.13,2.52c.02.43,2.96-.26,3.15-.63ZM1095.41,313.02c-.37,2.87-.67,4.23-.11,4.13s2.76-.37,2.99-.89l4.29-9.56-2.67-5.28c-3.51,5.84-9.87,8.4-8.12,15.36l3.62-3.76ZM1511.3,327.44l3.62-8.05,8.06-14.72c-4,.68-5.51,3.63-7.02,7.06l-3.25,7.39-4.83,11.52,3.65-2.02-.23-1.18ZM1699.47,396.03c1.76-2.67,1.53-6.62-.02-8.03-1.12-1.02-3.29-1.67-5.41-2.22l5.43,10.25ZM1713.57,414.28l7.29-18.82c.41-1.05-.19-3.74-1.26-3.94-.85-.16-3.27,1.02-3.55,1.84l-4.56,13.25c-1.09,3.16-.8,6.23,2.08,7.67ZM888.31,418.66l.92-2.26s-1.2-.09-2.46-.18l5.65-8.86c2.71-4.25,5.13-8.2,3.79-13.96-5.17,4.31-6.91,9.27-8.94,15.06-3.25,9.29-9.53,14.65-5.96,16.08.73.29,2.21-.39,2.72-.98l4.28-4.91ZM879.92,417.23l7.25-16.45c-5.22-1.95-6.22,2.46-7.43,5.99l-4.32,12.66c.19.33,1.94,1.09,2.36.67s1.84-2.19,2.14-2.86ZM873.07,419.37l4.18-15.14c-5.85.59-3.37,8.04-7.17,9.25l-5.25,1.67,8.24,4.21ZM356.62,433.36l4.63-8.53c1.36-2.5,2.14-5.05,2.62-9.26-3.6,2.18-5.58,4.03-7.4,6.84l-14.55,22.32c6.62-1.54,11.71-5.86,14.7-11.38ZM368.84,429.51l-2.36.07c-.41.01-.83,1.56-1.09,1.94l-4.58,6.71c-3.02.05-5.01.67-6.67,2.1l-8.92,7.68,14.62-7.87c4.74-2.55,7.88-3.86,8.5-10.44l.49-.19ZM369.92,430.34l-.28.59c1.4,6.64-5.94,9.7-3.44,14.68l5.14-9.64c.74-1.39-.27-4.74-1.43-5.63Z"/>
  <path class="st0" d="M749.65,690.52l2.71,14.91,5.41,12.85,22.27,5.47,62.51,14.81c-4.39.1-8.34-.47-12.6-1.31l-19.26-3.76-32.77-7.06-62.02-13.05-23.95-4.14-27.71-6.1-42.37-5.43-48.19-5.38-39.32-3.15-26.03-1.5-36.33-.63-49.09,4.03c19.47,3.61,36.59,6.48,54.51,11.92,10.88,3.3,22.55,3.14,32.77,9.81l-42.78-10.15-65.76-11.05c-65.17-10.95-130.02-14.79-196.08-13.63l-37.54.66c-5.78.1-11.63,1.67-17.01.26l13.59-1.27,25.36-2.16-3.18-5.84c6.01-.04,9.59-1.33,12.36-6.12l-6.28.15c-1.33.03-3.12-3.1-3.26-4.58l11.31-1.75c-1.28-1.04-2.26-1.69-1.98-2.19l2.31-4.09-7.81-1.45,7.62-6.21c.12-5.94.98-11.43,3.11-17.81,4.41,10.5-1.24,17.92,9.77,21.42-1.88,1.47-3.99,1.9-6.5,2.06.83,2.57,1.22,6.6.25,7.91l10.44,1.59c-1.5,4.41-4.21,5.4-7.45,6.51,1.26,3.62,4.99,4.76,10.23,3.59l-2.99,6.19,16.01-.45-4.44-4.38c5.75-1.73,12.94-3.76,17.99-9.23-6.74,1.78-13.55,2.83-15.96-4.33l12.22-1.18c-1.55-4.55-.6-7.91,2.23-12.5-3.02.53-6.71.72-9.33-1.93l10.99-5.22c-.16-.12-2.49-1.97-1.96-2.8l2.94-4.67-6.19-1.47c9.39-7.6,5.01-16.6,9.76-23.82l2.38,12.86c.78,4.22,2.66,6.82,6.39,10.98l-5.54.94,3.03,9.33,7.33.87c-2.66,4.18-5.07,4.36-10.2,4.7,1.94,2.13,5.69,5.76,8.39,7.58l7.28,1.12c-.74,6.5-6.05,8.77-11.97,8.68,2.64,4.33,7.22,6.21,11.43,6.59l3.93.35c.98.09-.76,3.37-1.64,3.75l-3.01,1.31c-.78.34,1.27,2.83,2.09,3.6,38.6,1.09,77.38,4.44,116,9.42l8.61-3.2,2.01-.96c.38-.18.51-1.73.1-1.81l-3.09-.62c-.68-.14-3.22-1.36-2.67-1.8l2.35-1.9,5.62-3.88c-6.11-.32-10.09,1.95-13.54-5.39l8.91-1.14,13.67-9.84c-7.26.18-12.03,1.89-16.55-4.91,8.87-1.48,16.68-4.37,20.5-11.81l-6.15,3.62,1.91-5.75c-4.83,2.03-10.27-.19-10.25-4.32l11.12-6.11,1.39-8.51-8.68-1.87,9.01-6.06-1.65-3.1c-.44-.82,1.43-3.02,1.64-3.98l4.59-19.89,6.25,19.93-3,2.82c.81,2.98,4.76,5.79,8.86,7.21.01.74-.64,3.42-1.44,3.51l-4.99.53c-1.79,6.08,4.55,12.75,10.44,12.96.76.48.24,4.37-.72,4.4l-5.45.23c-1.01.46.22,4.52,1.37,6.4l-2.97,1.9c-.64.41,1.67,2.4,2.48,2.71l11.91,4.64c-.09,6.94-3.33,9.76-9.66,12.33,3.13,5.8,13.7,3.43,12.39,9.11-.39,1.71-4.11,3.18-5.81,2.76l-2.56-.64c-.38-.1-.7,1.38-.39,1.62l2.38,1.88c1.21.95,4.32,2.05,5.73,1.46s2.75-4.24,3.04-5.71l14.29-3.41,4.34-.58c.95-.13,1.52-1.87,2.38-4.38l-10,1.3c-3.59.47-6.67-.12-10.54-3.79l10.69-2.87c8.22-2.21,14.59-7.55,19.09-14.4l-13.75,7.84.18-8.59-4.88,4.65c-1.23,1.18-4.56-2.34-6.05-3.19l-6.7-3.8,5.19-6.98,4.12.68c.82.14,1.48-2.53,2.01-3.21,6.55-4.74,14.99-9.55,19.47-16.3l-3.75,1.96c-.94.49-4.29-.33-4.1-.57l2.4-6.69-3.52,6.01c-2.6,4.44-3.61-6.93-4.54-7.58-.72-.51-3.23-1.68-3.72-2.5-1.32-2.21,3.7-4.86,6.64-3.89l7.78-7.52-4.63.69,4.61-6.99c-4.74-.13-6.64-.22-9.43-2.67,7.41-3.11,10.94-7.65,12.31-14.06-4.24.02-6.26-.33-10.07-2.74l10.93-7.77-1.9-2.85c-.44-.66,1.03-2.79,1.24-3.74l4.38-19.64c3.9,7.01,1.59,15.77,7.07,24.47l-3.44-.74c1.98,4.58,4.69,6.45,10.7,9.39-2.46,1.67-5.08,2.72-8.87,3.84l2.59,4.86c-2.45,1.64-1.33,1.65-.28,1.92l10.26,5.05c.02.36-2.05,3.56-3.23,4.4s-3.67.77-5.96.79c.53,5.12,7.25,11.49,13.9,11.1.07,1.21-.97,4.69-2.36,4.72l-6.18.11c-.39,0-2.56-1.01-2.88-1.23s.16,1.53.39,1.84l1.07,1.44,2.11,2.86c.58.78-2.19,1.84-4,2.32,2.3,4.94,8.04,7.76,15.46,7.02-1.58,6.16-7.21,6.48-12.42,6.27,1.05,5.38,6.69,10.15,11.35,10.26l5.24.12c1.42.03,2.54,4.19,1.89,5.54-1.2,2.51-6.09,4.08-8.74,3.35l.3,2.82c.09.85-2.33,1.47-3.21,1.47l-6.28-1.89c4.31,5.55,7.96,8.66,12.48,12.01,2.44-.41,6.3-.48,8.37.5.72,1.11-2.47,5.61-4.24,5.58l-14.25-.26c1.69,2.36,4.46,4.44,7.1,5.98l7.56,4.42c2.87.59,4.74.6,7.82,3.16l9.36-6.14-10.36-5.42c-.42-.22-1.33-2.73-.98-3.05,3.88-3.52,12.94-1.33,16.89-8.18l-2.82.61c-.62.14-1.89-.87-1.56-1.41l1.61-2.68-7.42.18,11.77-8.18c-5.25.85-9.65,1.91-12.91-2.37l13.89-7.94c-1.26-1.34-3.29-3.01-2.8-3.92l3.13-5.83-7.17-2.16,5.76-5.84,5.63-22.73,4.67,21.12c.43,1.92,3.99,4.84,5.62,7.05,1.02,1.45-3.73,3.12-6.6,2.32l3.89,6.66-2.2,3.99,11.29,4.22c-.76,1.91-2.7,4.85-4.05,4.75l-5.78-.44,2.22,4.39c.46.91-1.9,3.07-2.51,3.57l6.36,4.91c2.69,2.08,5.38,3.19,9.89,3.77,1.17,1.05-.36,5.88-2.29,6.67-2.47,1.01-5.95.86-10.23.71l5.56,6.39c2.62,6.04,14.43,1.78,11.64,6.26-3.09,4.95-8.42,1.88-8.37,7.23l2.74-1.26c.55-.25,2.03,2.73,2.63,2.78l15.78,1.32,10.74.72c-2.23-7.21,6.73-4.28,12.93-12.42l-7.84-.67c-1.7-.14-2.43-3.99-2.61-5.68l-.41-3.82c-.17-1.61,8.27,2.18,14.76-7.38l-2.03-1.06c-.61-.32-.74-2.3-.69-2.2l-8.32-2.43,7.2-3.75c2.22-1.16,4.52-6.36,4.99-8.14-3.87-.08-5.52-.42-7.51-2.06l7.49-4.74c-.32-1.36-1.23-5.21-.84-6.59l4.84-16.96,3.22,18.16c1.18,6.64,8.33,10.07,5.2,10.73l-4.41.92c-.65,4.46,3.74,9.96,9.24,10.36.8.4.17,4.6-1,4.75l-3.8.49-2.12,6.33c2.57,4.3,15.1,3.26,12.17,6.07-.85.81-3.55,2.14-4.71,2.22l-3.61.25c-.92.06.44,2.98,1.13,3.6l8.96,1.62c-3.85,2.67-5.61,2.85-10.96,4.14l13.18,7.05c-.35,1.31-2.33,2.62-6.18,5.28l8.98,2.14c.29-2.64.41-4.57,1.3-4.95l4.78-2.02-3.33-5.27,4.55-4.65c-1.24-3.05-1.54-4.4-1.26-6.14l1.95-12.14c3.66,7.27,1.36,15.38,5.55,26.05,1.56,3.97,4.02,5.96,3.13,10.99l26.48,5.39,20.97,2.95-5.31-5.15,10.71-1.29-2.82-3.75,7.61-5.14c-5.53-.7-9.76.67-11.32-5.24,6.17,1.52,9.95-.99,11.9-5.6l-7.29-1c4.81-2.32,7.89-4.36,8.04-7.07l-5.48-2.58c4.66-3.87,5.11-5.38,6.11-9.64l3.15-13.51,3.88,17.99,4.67,5.3-5.67,2.22,6.77,9.28-6.97-2.18,3.22,3.61c.93,1.04,4.23-.28,5.66-.82.33.28,1.72,2.28,1.27,2.36l-4.41.8,4.57,3.86-6.55,3.81c1.91,1.46,5.42,2.58,9.25,3.4-.43,4.12-5.17,5.34-10.12,4.58,4.33,3.62,8.53,4.72,14.84,6.04-.25,1.27-2.23,4.38-3.64,4.44l-7.66.34c4.13,2.36,8.9,2.66,15.04,3.37,2.21-.6,4-4.92,4.42-7.42l2.83-16.72ZM456.11,678.48l-12.9,2.57c.82,1.93,4.05,3.33,5.88,2.77,2.9-.89,4.99-2.52,7.03-5.34Z"/>
  <path class="st0" d="M1011.01,692.18c-2.47-2-6.01-5.52-8.55-5.57-5.53-.11-10.06,3.62-13.36,7.81l-17.74,2.15c1.14-3.19,3.59-4.72,6.36-5.74l-10.38-3.55c2.5-6.35,9.25-4.13,15.93-8.34,1.62-1.02,2.22-5.65,2.11-7.18l-7.06.89-6.54-6.09c-.55-.58-.26-3.27.6-3.27l5.27.03,11.72-7.69.17-6.2c-2.53.51-5.32,1.03-6.78.88-1.69-.17-4.25-4.11-3.72-5.83,7.85-.68,11.96-6.38,12.35-12.7-3.52.15-5.94-.57-7.53-2.32l6.77-4.88c.11-3.46.68-6.03,1.9-9.22,2.21-5.74,1.23-11.4,5.16-16.79l3.36,17.88c.16.84,2.5,2.88,2.2,3.59l-1.55,3.71,7.98,5.23c-.61,1.78-4.59,2.86-7.02,2.6l.54,7.67,10.69,6.07c1.17.88-.83,5.17-2.4,5.42-2.03.33-3.5.23-6.99.15l3.75,5.4-2.06,3.56,10.23,4.42c1.62-.39,4.91-.25,5.8.8,1.03,1.22-.43,4.45-2.05,5.47-3.54,2.23-5.34,2.68-10.1,1.47,1.86,6.57,6.49,9.87,15.07,9.59-.03,2.55-3.16,6.54-5.03,6.13l-8.15-2.01,6.53,4.19c-.55,1.01-5.99,3.42-7.47,2.22Z"/>
  <path class="st0" d="M1117.11,349.19l-12.79,19.29-13.32,28.79,5.69,6.94,9.96-19.07,14.42-25.58c.32-.57.85-2.64.93-3.08.12-.66,2.23.98,2.32,1.95.44,4.82,4.14,10.5,8.48,14.08,5.74,4.74,4.85,16.45-1.1,19.96.62-6.06,3.35-11.96-.72-15.31l-6.12,8.51c-6.44,8.95-10.08,19.31-14.05,30.02,2.55,2.36,6.14,3.97,8.56,4.31l.89-3.16c.2-.71,2.94-1.51,2.8-.93l-1.54,5.25c-.35,1.19,1.54,2.88,3.32,5.71-7.6-1.44-14.18-6.66-20.92-12.23-7.23-5.98-13.66-11.79-18.66-20.11-7.87-13.12-21.06-9.2-27.57-15.75l-15.82-15.91c-3.5-3.52-6.13-7.29-10.59-10.09-3.01-1.89-5.5-5.93-5.54-9.2l12.71,10.67,5.77,6.23,10.47-17.1c3.15-5.14,5.13-11.18,12.33-12.52l-8.8,12.55-8.24,14.26c2.04,2.17,5.28,1.68,8.96-.33,2.41,2.35-4.54,6.36-3.29,11.42.44,1.79,2.7,4.74,4.26,6.24l8.68-15.35,5.78-12,4.67-6.45,4.51-6.14c-.4,6.49-2.04,9.49-4.88,14.64l5.16,4.71-5.9,10.96c-2.9,5.39-4.98,9.88-6.83,16.23l7.62,1.46,12.6-28.46c.8-1.8-.78-4.97,2.69-6.06l2.15-8.36,4.47,1.97-6.02,13.55-6.42,13.1-2.42,6.76-4.29,9.74c3.63,3.14,5.1,4.89,7.86,9.01l16.94-37.75,10.82-7.35ZM1068.53,380.21l9.4-20.58-2.11-9.09-9.66,21.19c-1.1,2.4-1.87,3.45-4.28,4.9l6.65,3.58ZM1122.3,377.59l4.42-.98-.58-4.73-2.12-.08-1.07-9.13-19.43,35.48c-1.54,2.82-2.56,4.85-5.16,7.37l9.13,8.09,11.3-23.42c2.97-6.15,1.09-12.07,3.51-12.6Z"/>
  <path class="st0" d="M966.23,495.82l6.18,5.78,6.85-15.01-.58,7.16c-.74,3.2-1.05,6.26-1.18,9.3l-3.11-.85c-.51-.14-.63,1.51-.35,1.96l1.55,2.52c-5.26-.29-11.28-6.25-9.37-10.86Z"/>
  <path class="st0" d="M979.26,486.59l3.36-9.34c1.66-4.61,2.69-8.8,5.7-12.55-2.26,8.67-5.15,16.21-9.06,21.89Z"/>
  <path class="st0" d="M988.31,464.69c.19-.82-1.9-5.15-3.4-6.56l-12.22,21.02-6.46,16.66c-4.03.32-5.02-2.03-7.62-5.23-10.07-12.38-33.79-6.56-33.25-27.88,5.85,4.27,5.78,11.54,12.8,13.25l6.13-13.86c3.36-7.6,6.57-13.91,10.23-21.55l5.81-12.12,1.39-6.84c6.52,5.45,3.83,10.73-.04,19.26l-1.25-2.18c-.27-.47-.8-1.53-1.1-1.08l-1.6,2.4c-6.5,9.75-10.44,19.92-13.66,31.25-.6,2.1-1.81,4.36-1.25,5.65.65,1.47,5.4,3.21,6.08,1.74l4.93-10.71c4.41-9.58,7.18-18.63,13.24-27.5-.11,5.27-2.46,8.85-4.35,13.11-4.33,9.8-9.09,18.92-9.75,30.15l11.11-17.26.98.82-8.82,16.77,7.39,8.58,12.61-25.48c2.59-5.24,9.32-10.26,6.52-17.84l-6.61,15.63c-.24.58-1.78,1.71-2.28,2.1s-.91-2.61-.65-3.15l4.99-10.36c1.64-3.4,1.25-7.46-.97-10.68l-9.16,11.65c1.05-6.45,3.16-10.47,4.78-15.02l-1.98-2.76c-.42-.59,1.46-2.95,2.03-2.49,4.63,3.72,4.58,7.12,7.91,8.93,7.72,4.17,12.72,15.01,7.48,21.57Z"/>
  <path class="st0" d="M323.73,574.55c-33.31,7.88-64.89,16.61-97.62,26.4l17.3-7.22,23.65-7.92,46.89-12.58,34.79-11.45,79.91-32.29c-13.47,10.56-29.53,15.02-44.88,22.09l-47.13,21.7c-7.82,3.6-13.65,9.22-22.84,11.45l16.51-11.27-6.6,1.08Z"/>
  <path class="st0" d="M791.65,482.55c-11.45,4.57-10.66,13.96-18.14,19.87l3-10.04-19.56,14.56c-3.13,2.33-5.47,5.93-9.83,8.04,6.05-8.6,14.06-15.15,22.93-21.69l19.49-14.38,6.26-2.25c3.2-2.25,6.18-3.84,10.93-5.18.3,8.77-6.93,18.35-11.95,22.67l9.72-18.13-8.52,3.21c-3.59,7.76-5.74,14.54-12.28,20.79l7.93-17.46Z"/>
  <path class="st0" d="M1870.06,581.86l-60.33,11.5c21-7.63,41.73-11.28,63.23-14.21l32.88-4.5,15.54-1.7,19.52-.73-14.83,1.82-56.02,7.82Z"/>
  <path class="st0" d="M1549.74,739.14l-94.23,31.06c21.21-10.87,45.05-17.5,68.66-25.22l25.57-5.84Z"/>
  <path class="st0" d="M1493.9,778.25l-92.83,28.79c3.81-4.02,9.79-4.78,15.31-6.51l63.71-19.91c4.69-1.46,9.18-2.91,13.81-2.38Z"/>
  <path class="st0" d="M676.22,442.27c-.86,2.92-7.06,6.07-9.26,8.31l-10.29,10.52c-3.81,3.89-7.79,7.37-12.77,9.21,5.52-5.86,12.03-10.69,13.92-18.53.8-3.33,1.61-6.52,2.92-9.35l8.04-17.31,1.39,2.55c.18.34.74,1.23.78,1.17l1.35-1.67,1.37-1.74c.27-.34,2.12-.02,1.94.37s-.98,1.93-1.32,2.31l-8.37,9.39c-3.73,4.19-4.73,9.35-4.87,14.06,8.29-5.41,12.17-12.87,15.38-21.48l-.2,12.2Z"/>
  <path class="st0" d="M1735.35,514.62c-8.04-.54-13.69-4.12-20.52-7.36-7.99-3.08-16.18-7.12-23.51-11.66.15-.69,1.29-2.88,1.9-2.57l2.85,1.43c7.05,3.55,13.42,7.57,21.17,8.85l18.11,11.3Z"/>
  <path class="st0" d="M819.03,461.43l-9.23,7.43c-.56-.03-1.27-3.88-.47-4.52l19.67-15.84c-.22,4.97-3.42,7.03-5.11,10.07-4.25,7.63-6.42,15.29-13.06,21.51l8.2-18.65Z"/>
  <path class="st0" d="M708.69,545.13c-12.31,1.43-11.56,14.83-21.93,20.99l9.71-15.59-8.89,2.81c3.04-3.05,7.36-5.39,11.76-7.24l18.92-7.96-4.93,7.38-6.25,8.97,1.61-9.35Z"/>
  <path class="st0" d="M570.39,731.51l-32.33-5.44-47.94-8.26.78-1.24,61.93,10.31c6.27,1.04,11.89,2.22,17.57,4.62Z"/>
  <path class="st0" d="M1085.98,774.02l-66.8,20.55c21.33-9.75,44.17-16.5,66.8-20.55Z"/>
  <path class="st0" d="M157.16,620.72l19.53-6.53,44.87-11.91c-17.93,7.58-36.89,11.15-55.72,17.04-2.86.89-4.32,1.93-8.68,1.4Z"/>
  <path class="st0" d="M1312.06,452.73c-2.73,3.07-6.44,5.48-10.98,6.78l7.38-7.87c4.17-4.46,4.79-11.11,1.12-16.43-2.91-4.22-2.5-10.26,2.71-12.6-2.34,4.62-2.73,8.61.29,12.24,4.36,5.23,4.76,11.95-.52,17.88Z"/>
  <path class="st0" d="M1352.51,725.26l13.4-5.34,37.07-7.39-42.23,11.95c-2.47.7-5.86.92-8.23.78Z"/>
  <path class="st0" d="M834.12,449.52c2.96,13.79-6.6,14.84-10.09,22.58-1.48,3.27-2.37,4.96-6.34,6.96l3.71-6.96,12.73-22.58Z"/>
  <path class="st0" d="M1950.59,501.44l-6.81-1.31c-8.73-1.68-16.17-5.34-22.9-11.79,4.93-1,8.2.98,11.89,3.06l17.82,10.04Z"/>
  <path class="st0" d="M1003.55,523.54c-2.28,2.17-11.46-4.76-14.57-10.34,5.4-11.5,8.86-22.98,10.84-35.28-2.82-1.85-5.62-5.57-1.83-8.59,2.01,2.19,5,6.89,6.19,9.51l-3.12,6.91-9.01,29.27,11.5,8.52Z"/>
  <polygon class="st0" points="1011.49 812.64 965.53 825.01 964.67 823.73 1011.84 810.94 1011.49 812.64"/>
  <path class="st0" d="M903.49,247.93c-.06-6.63,2.15-11.53,4.7-16.95l5.61-11.91c2.39,6.11-.07,9.62-2.24,13.7l-8.06,15.15Z"/>
  <path class="st0" d="M1278.4,492.13c-3.11-12.65-5.79-29.88,7.09-32.93-10.16,10.61-5,18.44-7.09,32.93Z"/>
  <path class="st0" d="M476.07,426.27l16.1-16.96,8.01-7.77c-.28-.45.53.83,1.46,2.33-8.5,7.42-14.45,16.38-25.57,22.4Z"/>
  <path class="st0" d="M988.97,220c3.38-8.98,7.99-15.88,12.75-23.73,1.17-1.94,1.8-3.06,4.75-2.98-4.9,9.85-9.91,18.43-17.5,26.71Z"/>
  <path class="st0" d="M1076.24,325.73c-6.59,9.07-5.24,17.53-12.61,26.39-1.89-4.07-.14-6.7,1.89-10.11,3.23-5.4,3.26-13.72,10.72-16.28Z"/>
  <path class="st0" d="M916.74,427.91c-.21.43-2.86.64-2.68.23l1.23-2.77,4.95-10.71,5.57-14.21,2.82-.1-3.44,10.09-8.46,17.49Z"/>
  <path class="st0" d="M1513.42,356.41l1.69-7.78c8.99-6.06,11.55-17.35,19.55-20.64-3.84,9.36-10.52,15.2-17.38,21.55l-2.11,5.66-1.75,1.21Z"/>
  <path class="st0" d="M1289.21,492.01l-1.17-10.5,5.01-8.42,2.44-10.48c5.71,13.2-6.08,16.13-4.94,20.45.87,3.31,1.74,6.78-1.35,8.94Z"/>
  <path class="st0" d="M923.87,389.03l-10.82,14.47c-1.13-6.24,1.26-9.54,3.83-13.47l-.9-2.96c-.27-.9,2.15-3.63,2.61-2.79l1.88,3.5c.36.67,1.48.72,3.4,1.25Z"/>
  <path class="st0" d="M1591.89,472.65l6.73,5.91c-3.54-.26-5.11-1.15-7.16-2.83l-18.49-15.16c8.79.56,13.48,7.32,18.92,12.09Z"/>
  <path class="st0" d="M666.3,351.13c-2.34.41-1.91,6.92-8.87,8.24l4.68-10.33c-2.82-.5-5.53-3.58-3.64-6.4,4.23,1.4,8.01,4.89,10.14,8.09l-2.29.4Z"/>
  <path class="st0" d="M1787.09,533.92c-6.65.19-11.97-3.39-17.91-5.89-4.94-2.08-9.37-4.08-13.79-7.32l31.7,13.2Z"/>
  <path class="st0" d="M807.38,531.01l6.67-9.15,12.57-14.64c-.24,5.1-3.25,7.87-6.31,10.81-3.57,4.94-6.14,9.52-12.92,12.98Z"/>
  <path class="st0" d="M840.91,560.78c.25-7.68,6.19-10.62,9.47-16.27,1.82-2.1,4.48-3.69,7.18-3.62l-16.65,19.9Z"/>
  <path class="st0" d="M939.13,193.9l-9.83,16.96-1.38,2.31c-.3.5-2.32-.89-2.23-1.46s.51-2.23.87-2.83l6.67-11.15c1.28-2.14,3.81-3.71,5.91-3.83Z"/>
  <path class="st0" d="M863.71,514.06c1.07-5.6,4.27-10.68,7.61-16.07l-8.42,4.03,4.17-5.13c.72-.88,3.62-1.18,4.62-.6,2.96,1.74-2.04,13.09-7.97,17.78Z"/>
  <path class="st0" d="M1327.25,420.23l-14.71-3.9-.25,4.79-6.85-9.72,10.9,2.41c3.82,2.06,6.22,3.03,10.9,6.42Z"/>
  <path class="st0" d="M1164.32,359.74l-13.82-12.14-3.32-1.44c-.62-.27.9-2.66,1.57-2.6l2.76.23c4.3,5.28,10.21,7.65,12.8,15.95Z"/>
  <path class="st0" d="M611.78,389.07l-1.14-4.76c-.23-.96-2.28-1.44-3.09-1.71l11.26-15.58-6.57,15.71,2.46,3.59c.62.9-2.66,3.83-2.92,2.76Z"/>
  <path class="st0" d="M1019.32,338.78l-9.02-7.21-4.83-8.65c6.85,3.25,12.86,6.43,13.85,15.86Z"/>
  <polygon class="st0" points="938.05 448.2 950.43 422.71 951.88 423.77 940.47 447.83 938.05 448.2"/>
  <path class="st0" d="M840.42,357.73c-2.59,1.78-3.37.43-2.25-1.76l12.19-15.43,1.99,2.25-11.93,14.94Z"/>
  <path class="st0" d="M1205.06,229.92c-.31,1.16,1.38,4.62,1.99,6.4-3.37-1-4.67-4.59-3.99-8.03l2.92-14.95c1.27,1.02,2.58,3.54,2.28,4.69l-3.18,11.89Z"/>
  <path class="st0" d="M86.95,538.3c-4.64,5.24-11.71,7.96-19.96,8.23,5.83-4.34,11.58-7.49,19.96-8.23Z"/>
  <path class="st0" d="M1098.03,477.08c-6.51-.97-11.93-6.99-16.03-13.4,6.34,2.74,11.62,6.8,16.03,13.4Z"/>
  <path class="st0" d="M1056.33,306.09c-1.29-4.98,2.36-7.97,4.73-12,1.57-2.67,1.84-4.79,5.77-4.42-3.22,6.16-5.84,10.82-10.49,16.42Z"/>
  <path class="st0" d="M1128.2,403.96c-1.53,4.68-2.28,8.91-6.1,11.6l4.24-13.2c.81-2.51,2.88-5.88,5.36-9.11l-3.49,10.71Z"/>
  <path class="st0" d="M1827.92,548.54c-9.31-.85-16.85-3.31-24.71-7.58l24.71,7.58Z"/>
  <path class="st0" d="M337.37,426.05c-3.73,6.4-7.62,11.84-12.79,17.6,2.13-6.37,5.29-13.89,12.79-17.6Z"/>
  <path class="st0" d="M308.91,507.6l-9.57,5.24,10.88-17.73c2.97,3.97-4.73,8.59-3.71,9.76l2.4,2.73Z"/>
  <polygon class="st0" points="1869.7 562.58 1842.73 554.3 1843.54 553.03 1871.7 561.63 1869.7 562.58"/>
  <polygon class="st0" points="1642.35 692.74 1618.21 699.28 1617.34 697.84 1642.74 691.34 1642.35 692.74"/>
  <path class="st0" d="M1133.92,424.7l6.87-19.73c2.03-5.84,1.36-10.87-.03-17.88,2.36,1.48,5.23,4.9,5.96,7.56s-2.83,6.58-3.62,8.83l-7.54,21.43-1.62-.22Z"/>
  <path class="st0" d="M116.07,630.14c-8.44,3.54-16.71,5.39-25.69,5.46,8.58-2.66,17-4.65,25.69-5.46Z"/>
  <path class="st0" d="M624.28,368.58l7.2-12.45c.63-1.1,2.8-2.92,3.88-3.59-.24,7.57-4.93,12.36-11.07,16.04Z"/>
  <path class="st0" d="M1709.87,419.22c-5.95-1.32-10.34-6.45-12.49-13.13,4.45,3.23,8.56,7.38,12.49,13.13Z"/>
  <path class="st0" d="M976.85,237.74c7.33-9.14,4.09-16.26,11.18-17.28l-4.32,9.84c-1.18,2.7-4.11,5.75-6.86,7.44Z"/>
  <path class="st0" d="M831.74,364.09l-9.83,10.01-1.5-1.63,12.02-13.67c.47,1.14.18,4.4-.69,5.29Z"/>
  <path class="st0" d="M1220.14,248.93c-5.18-2.48-5.76-9.1-4.31-15.39,2.71,4.3,4.33,8.53,4.31,15.39Z"/>
  <path class="st0" d="M312,586.78c-6.75,4.93-12.83,7.49-19.36,8.92,6.48-4.64,13.05-7.5,19.36-8.92Z"/>
  <path class="st0" d="M1028.41,289.28l-10.92,13.16c-1.14-2.48.42-4.82,2.57-7.09s1.94-6.96,8.34-6.07Z"/>
  <path class="st0" d="M676.96,565.3l-4.94-1.03c5.06-4.28,8.31-7.09,14.82-10l-9.88,11.02Z"/>
  <path class="st0" d="M687.44,803.43l-19.36,5.66c5.86-4.07,12.19-6.65,19.36-5.66Z"/>
  <polygon class="st0" points="1383.86 810.88 1362.77 817.79 1360.88 816.91 1381.6 809.88 1383.86 810.88"/>
  <path class="st0" d="M1192.7,610.69l-19.58.47-.3-30.29,20.57-.09-.68,29.91ZM1184.71,602.18c-.04-.89.17-3.89,1.02-3.97l4.06-.4c.8-.08,1.52-2.91.72-3.02l-5.06-.7-.77-8.75c-.06-.65-2.39-1.78-2.47-1.12l-.43,3.4-.75,5.93c-.16,1.25-3.13,1.65-4.73,2.06-.12.64-.51,2.52.14,2.54l4.82.19-.25,8.94c1.17.41,3.96.95,3.92.03l-.22-5.13Z"/>
  <path class="st0" d="M1320.46,667.09c-.07-1.1-1.57-2.79-1.25-.16-.4,2.61-1.27,4.61-2.44,4.8s-4.99-.57-5.07-1.83l-.59-10.08,15.05,1.37-.25,11.09-4.29-.31c-.79-.06-.89-1.77-1.16-4.88Z"/>
  <path class="st0" d="M1325.93,674.86l-.1,11.96-14.3-1.11.02-10.87,5.42.62c1.23.14,1.63,3.63,1.62,5.56l2.6.35c.6.08.2-1.81-.21-4.11l4.96-2.4Z"/>
  <path class="st0" d="M1233.17,671.19l.79,5.87.33,2.47c.08.62,2.04,1.21,2.15.59l.57-3.04c.2-1.08-.16-4.72.89-4.95l5.55-1.22.91,11.32-16.95-.07-.03-24.26,16.75-.21-.02,10.92-5.51-.56c-1.26-.13-1.69-3.88-1.78-5.16l-.17-2.46c-.03-.46-2.25-.47-2.26-.01l-.05,2.49c-.02,1.06-.23,4.25-1.24,4.52l-4.05,1.08c0,.22-.05,3.07-.08,3.06-.05-.01.97-.1,4.19-.36Z"/>
  <path class="st0" d="M1143.09,681.17l-15.34.08-.33-22.62,15.67-.4v22.94ZM1135.2,679.06l2.36-7.3,3.17-.86c.57-.15.7-2.15.08-2.26l-3.29-.58-2.11-5.52-1.84,4.88c-.28.73-1.92.84-3.42,1.12-.21.2-.53,2.05.04,2.31s3.14.59,3.29,1.18l1.71,7.03Z"/>
</svg>