<?xml version="1.0" encoding="UTF-8"?>
<svg id="Layer_1" xmlns="http://www.w3.org/2000/svg" version="1.1" viewBox="0 0 430.09 311.42">
  <!-- Generator: Adobe Illustrator 30.5.1, SVG Export Plug-In . SVG Version: 2.1.4 Build 3)  -->
  <defs>
    <style>
      .st0 {
        fill: #46676e;
      }
    </style>
  </defs>
  <path class="st0" d="M192.95,229.62c-12.82,2.7-27.21,1.77-38.57-4.82-1.77-1.02-2.3-1.2-4.18-.56-10.67,3.65-26,1.16-32.25-8.8-7.81.89-14.45.42-19.95-5.26-2.66.25-5.88.28-8.63-.49-7.62,2.06-15.43,3.13-23.31,1.57-3.43-.68-6.64-1.83-9.86-3.11-2.75-1.1-4.94-3.31-6.72-5.42-3.57.46-7.08.88-10.34-.32-2.92-1.07-5.41-2.88-6.45-5.11-1.48-3.17-1.4-6.52.04-9.3,2.27-4.39,6.6-6.82,11.33-7.78,3.3-.67,6.58-.82,9.61.7,1.5-6.36,6.5-9.36,12.96-9.51-1.4-11.52,10.87-18.77,22.1-18.24-2.61-6.37,1.63-14.77,6.22-20.08,8.5-9.82,21.7-14.83,34.56-12.82,4.91.77,8.69,3.12,12.14,6.68-1.42-8.32.8-16.3,5.75-22.93,9.82-13.14,24-18.2,39.43-12.06,1.14.45,1.95,1.01,2.9,1.85,9.04-13.27,24.98-19.99,40.84-20.51,25.34-.84,44.62,17.28,49.38,41.46,10.3-1.43,17.14,4.68,18.98,14.34.51,2.68,0,4.99-1.71,7.34,5.38-.36,10.11.96,14.88,2.97,11.11,4.71,18.8,14.68,19.32,26.66,9.03-1.56,17.23,4.52,18.04,13.35,5.34-1.12,10.22.3,14.71,2.92,4.81,2.81,6.98,8.28,4.77,13.55-1.65,3.15-4.71,5.27-8.27,5.74-2.48,2.99-5.76,4.71-9.62,4.99-4.56.44-7.78-1.78-10.95-1.56-4.2,2.55-8.88,2.68-13.35.9-3.64,3.3-7.46,5.65-12.08,6.57-8.18,1.63-17.28,1.43-24.8-1.98l-1.21-.55c-.32-.14-.69.91-.8,1.25-1.43,7.59-7.4,13.03-15.09,13.88-6.09,1.07-12.16.31-17.76-2.13-1.3,1.35-2.65,2.49-4.28,3.4-10.48,5.87-22.94,4.23-33.26-1.43-1.98-1.08-3.47-2.6-5-4.35-5.82,4.44-12.32,7.47-19.55,9ZM40.03,195.9c.55.92,1.58,1.53,2.79,1.53-.05-2.12,1.46-4.25,3.22-4.6.83.86,2.24,1.93,3.17,1.9l2.82-1.92-1.02,2.62c.55.87,1.69.01,2.29-.53l5.34-4.9c-.09,1.43-.78,2.2-1.51,3.4l-2.13,3.48c-.09.14-.03,1.02.13,1.07l.69.21,3.88-2.29c1.73-1.02,2.62-3.11,4.73-4.01-.8,2.66-2.85,4.27-4.36,6.3l-2.35,3.15c2.22,1.84,6.54-3.77,9.1-7.12,3.3-4.31,5-4.39,4.62-3.9l-.44.56-4.16,6.09c-1.54,2.25-3.57,3.99-5.6,5.98,2.69,3.13,8.49-4.72,12.28-8.44l4.95-4.85c-1.1,3-3.03,4.85-4.94,7.25l.39.66c1.83.35,3.01.34,4.15-.79l5.77-5.72c.35-.18.62-.33.47-.43l-1.1-.73,2.82-.09-6.79,7.76,3.13-.33-5.12,2.25-3.99,4.48c-.14.15-1.03.32-.96.5.05.13.16.41.14.37l2.59.28c2.28-1.64,4.54-3.55,6.44-5.68l6.32-7.09.53-.15c.11-.03.13.58.07.66l-5.16,6.7-3.88,4.41c-.17.2-1.06.44-.95.6.09.13.11.23.24.24l.87.08c1.37.13,2.77-.28,3.52-1.12-1.11-.26-1.65-.38-2.15-.71,2.68-.26,3.62-.59,5.1-2.2,2.35-2.55,4.87-4.92,6.74-7.89-2.47-2.37-2.47-5.28.08-7.73.23-.54.66.22.48.58-.39,1.24-.86,2.54-.69,3.55.27,1.52,3.03,2.75,4.06,1.71l4.4-4.41.79-.65c.1-.08-.02.68-.1.76-1.4,1.38-3.53,4.34-3.94,6.58l3.52.11,1.44-3.2c2.39-3.09,4.81-5.83,7.9-8.17l.63-.15c.09-.02.04.29.02.49-2.62,2.03-4.31,4.9-5.72,7.93-.8,1.45-1.36,2.72-.31,4.71l3.33-3.61c2.62-2.83,5.14-5.8,8.22-8.15l.63-.35c.12-.07.29.54.16.6l-.66.27c-3.13,2.98-5.78,6.25-7.98,9.99-.09.61-.15,1.6.16,1.93s1.22.5,1.72.46c.45-.04.71-1.09.72-1.71,2.77-4.22,6.13-7.96,10.74-10.38-2.77,2.91-5.08,5.52-6.47,9.38-.25.68.51,2.19,1.08,2.74.43-1.1.9-2.2,1.69-3.08,2.96-3.26,5.58-6.84,9.96-8.78-3.34,3.85-9.5,9.16-6.04,13.38,2.21-3.92,4.77-7.38,7.55-10.17l.68-.54c.13-.11.08.76-.02.94l-3.58,6.33-1.81,3.43c-.31.59.6,1.84,1.29,1.96.88.14,1.53-.62,2.07-1.41l5.41-7.94c.83-1.21,1.33-2.4,2.86-3.39-.98,3.49-2.79,6.51-4.52,9.74l-1.96,3.65c2.04,0,3.56-.7,4.58-2.2l5.7-8.38,3.88-5.68c-1.98,5.8-4.96,11.09-8.62,16.29l.42.67c6.37-2.71,10.05-11.57,14.2-17.21,0,2.13-.99,3.82-1.95,5.49l-5.42,9.35c3.11-.61,5.04-2.87,6.61-5.11l5.18-7.37.39.55-4.21,8.47c2.66.15,4.57-1.48,5.54-3.54l3.14-6.6c1.37,2.38-1.18,4.81-.71,6.99,1.49-.9,3.47-2.22,3.56-3.77.17-2.97.25-5.57,2.08-8.03,2.47-3.31,5.55-6.43,9.58-7.94-4.75,3.87-9.88,7.89-9.33,14.3l5.2-5.05c1.54-1.5,3.33-2.76,5.37-3.43l-4.21,4.63c-2.35,2.59-4.97,5.37-5.49,8.91-.05.32.29,1.53.59,1.41l1.12-.42c2.67-2.9,4.75-6.36,8.85-7.94l-4.69,6.03c-1.43,1.83-2.11,4.32.14,5.73l4.8-5.01,9.63-6.19c.43.02.47.18.06.56-2.77,2.32-5.81,4.14-7.92,6.99l-3.68,4.98,2.96,2.28,3.04-.24-1.86-1.79c-.43-.41-1.07-1.13-1.33-1.58,1.03-.19,2.11-.33,2.61-.75l5.55-4.75c1.42-1.21,3.34-2.02,5.18-2.07-3.38,2.33-6.16,4.47-8.39,7.68-.39.57.19,2.05.73,2.44.63.46,2,.82,2.47.63.94-2.95,5.29-5.91,8.35-7.8.77.28.79.5.32.67l-3.05,3.38-3.13,4.49c1.18.41,2.61.45,3.22-.16,2.56-2.58,4.7-4.85,8.12-6.42l-2.57,3.09-2.74,3.72,2.3.5,7.64-6.01-4.46,5.78c1.86.68,3.13-.37,4.4-1.43l4.58-3.81,3.6-3.3c-.08,1.12-.91,2.29-1.82,3.16l-6.52,6.15c-.86.81-7.23,1.76-10.67,2.2l-3.36.43-7.33,9.16c.82.84,2.11.65,2.93-.19l6.9-7.05c.55-.51.65-.18.36.39l-3.34,4.59-3.91,4.33c4.4,1.34,6.93-4.91,11.09-7.34-.83,2.74-3.11,5.52-4.79,7.46-.38.44-.3,1.74-.21,2.24l2.79-.88c2.02-.63,3.63-3.14,4.81-4.81l2.69-3.82.52.62-1.37,3.04-4.53,6.13c1.15.61,2.93.63,3.93-.22,3.5-3,5.56-6.71,6.94-11.23l-1-.73c-.23.02.88-.07,1.24-.1,1.49-.12-.24,5.2-2.05,8.73-1.67,3.25-4.39,5.18-7.37,7.29,4.46-1.47,7.84-4.61,10.76-8.08,1.92-3.28,3.17-6.65,4.15-10.31l.64-.86c.08-.11.51.21.5.35l-.09.88-1.93,9.1c4.11-3.81,6.41-8.57,7.68-13.71l.63-.7c.1-.12.37.64.41.82-.55,3.96-1.83,7.48-3.15,11.18,7.66-4.09,9.83-10.69,7.57-18.45,1.03-.21,1.83.63,2.11,1.68l.63.55c.79-1.62.72-2.58.17-4.08-1.47-4.05-7.11-3.37-5.84-5.16l4.26.72.89-4.78c1.87,1.72,1.2,4.25.98,6.28l2.08,3.11,3.56-6.54c0,5.85-4.12,10.45-4.69,15.94,3.84.37,9.35-11.2,9.42-10.74l.1.68c-1,4.16-3.3,7.47-6.19,10.62-1.22.9-1.77,2.29-1.76,4.01,5.86-.57,9.69-7.44,12.99-12.49-.78,5.28-4.42,8.96-7.73,12.87-.49.58,1.15,2.28,1.85,1.78,4.99-3.55,8.07-8.26,11.16-13.48-1.14,5.6-4.64,9.94-8.88,13.38l-1.4,1.47c1.38,1.32,2.78,1,4.14.07,4.37-2.98,7.62-7,10.89-11.54.07,1.95-1.12,3.5-2.31,4.94-2.62,3.16-5.45,5.91-8.87,8.29-1.37.95-2.92,2.07-3.32,3.84,2.79,2.05,3.28-1.02,6.25-2.47,5.96-2.91,9.67-7.66,13.62-13.28-.74,3.95-3.36,7.54-6.42,9.78l-6.93,5.1,1.28,1.95,5.86-2.67c3.86-2.52,6.73-6.26,9.47-9.91.59-.78,1.14-1.39,1.88-1.97-1.42,3.82-3.59,6.92-6.7,9.34l-6.12,4.77c1.19,1.51,3.04,1.41,4.59.52l5.31-3.06c-1.15,3.21-4.06,3.9-6.62,5.43.46.54,2.52,1.72,3.33,1.34l10.44-7.45c-.61,1.71-1.56,2.88-2.76,3.94l-4.67,4.12c-.14.12-.55.37-.5.39l.67.25c.68.26,2.15.48,2.73.1l1.95-1.28c2.84-1.86,5.21-3.97,7.7-6.79.22,2.64-1.69,4.5-3.65,5.9l-3.01,2.17c1.75,1.12,3.47.37,4.89-1.07l3.94-3.96c1.86-1.87,3.69-3.64,4.64-6.26-1.44,1.09-2.41,2.12-3.94,2.28l3.7-4.13c.2-.22.17-1.62-.1-1.5l-.86.39-5.16,2.36c-.43-.23-.7-.61-.44-.69,1.8-1.35,2.61-2.57,3.3-4.68-3.19,1.4-6.12,2.59-9.5,3.34l-.69-.37c-.11-.06.11-.39.23-.43l2.3-.74c5.75-2.99,10.49-7.23,14.12-12.57,1.22-2.09,2.06-4.18,2.64-6.53,1.63-6.61-1.48-13.07-7.74-15.82,2.07-.21,3.91.67,5.44,1.77,4.1,2.96,5.92,7.28,6.25,12.37l3.85-1.82.79-.32c.12-.05.03.35-.02.49-1.27,1.65-2.73,2.57-4.71,2.92l-.55,2.23,3.55.51c-1.4.77-2.52,1.11-3.95,1.44l-.24,1.57c3.26-.07,5.86-.78,8.94-1.47-1.2,1.64-2.87,1.9-4.56,2.44-.41,3.3-2.75,5.55-6.13,5.7l-1.18.74c-1.07.67,4.29,2.12,9.28-.92l2.65-1.62c.14.22-.07-.1-.16-.24l-1.07-1.36.97-.14c.48.57,2.34,1.49,2.88.98l5.88-5.55c-.5,3.29-2.71,5.01-4.75,6.95.12.84.93,2.26,1.65,2.19,3.45-2.13,4.61-5.88,6.84-9.35-.29,3.81-2.97,6.96-5.18,9.97l1.65.74-2.92.76c-2.42,2.57-4.91,4.65-8.11,6.24,6.7,1.1,12.13-5.82,15.96-10.95l3.21-4.31c.18,2.01-.91,3.01-1.68,4.35-2.99,5.18-6.96,9.41-12.58,12.45,2.26,1.2,4.05.23,5.7-1.05,5.29-4.1,9.09-9.22,10.93-15.95.05-.57.31-.53.62-.07-.77,4.7-2.3,8.84-5.33,12.31l-3.02,3.45c2.04.68,3.33-.25,4.61-1.47,3.51-3.35,6.26-7.04,7.66-11.73.42-.23.77-.44.78-.24l.09,1.22-2.46,6.66c1.44,1.16,3.4,1.18,5.34.34l-1.34-2.05,3.96-.36c.61-.06,1.44-1.16,1.8-1.59l1.88-2.26-6.03-4.68c3.28.47,5.43,4.9,7.99,2.77l3.32-2.75c.04,2.75-1.87,3.68-3.76,5.29,2.24.75,4.24-.11,5.89-1.3l2.77-2c.09-.1.15.04.31.71-1.41,1.6-2.68,2.67-4.46,3.9l2.19.99c2.66-1.09,4.57-2.69,6.32-5.21.53,1.16.11,2.79-.91,3.57l-3.57,2.76c.55.51,2.41,1.1,2.97.65l5.19-4.07c-.09-.12.19.25.55.73l-4.85,4.44.26.24c1.41,1.08,2.63.59,3.74-.4l4.64-4.15.53-.47c.08-.08.49.7.42.79l-2.66,3.23-.6.7c-.34.39,3.03.1,4.8-3.59,2.93.91,5.82-.58,7.24-3.02,1.6-2.75.84-5.93-1.55-8.13-4.01-3.7-9.94-4.43-15.12-2.49-.69.26-1.83.23-2.38.05.94-3.96-.17-7.36-2.47-10.11-4.11-4.92-11.41-4.61-11.41-2.5s2.55,2.4,1.87,3.87l-2.53-.96-2.52,3.68c1.56.53,3.18,1.76,4.18,3.17.22.31-.24,1.57-.61,1.48-.95-.23-1.48-3.36-7.55-3.01,1.49-2.2,2.68-4.35,3-6.95.96-7.73-1.23-15.37-6.39-21.26-3.8-4.33-8.59-7.67-14.11-9.47-6.22-2.03-12.67-1.71-19.02-.4s-11.77,4.07-16.51,8.29c-1.77,1.57-2.71,4.34-3.43,6.4-.17.36-1.4-.13-1.54-.55-1.92-5.98,4.34-11.3,9.98-14.3.27-1.11-1.15-2.06-2.35-2-2.27.11-3.8,1.45-5.79,3.12-.1-3.32,2.91-4.06,5.33-5.48-1.04-1.46-2.42-1.83-3.97-1.51l-4.77.96c.99-2.96,4.87-2.46,5.47-4.47-1.89-.53-3.71-.7-5.59-.32l-5.16,1.06c2.26-2.32,5.77-1.77,7.45-3.32-2.56-.46-4.56-.08-6.93.14l-4.22.4c1.92-2.33,4.47-1.67,6.86-2.04,3.66-.56,7.18.41,9.65,3.2l.91,2.23c3.4-4.41,3.91-9.15,3.24-14.42-1.52-12.07-7.24-23.18-16.3-31.33-5.61-5.05-12.21-8.13-19.63-9.4-9.65-1.65-19.13-.66-28.06,3.27-9.94,4.37-16.78,10.03-18.7,21.18,2.07.26,1.8-1.36,2.33-2.49,2.51-5.37,6.83-10.27,12.52-12.51-4.46,3.96-9.95,8.22-9.83,14.27l3.43.41c.15-3.67,2.18-6.64,4.82-9.14,1.59-1.51,3.21-3.11,5.41-3.35-3.97,3.67-8.07,7.17-8.22,12.32l5.47.4c1.84.13,3.69,1.9,5.03,3-3.76.71-4.44-1.93-6.29-1.35l1.38.79c-4.26-.5-7.39-.13-10.67,3.01l.2-2.9c-1.7.22-3.24.54-4.78,1.14-3.82,1.47-4.69,4.06-5.74,4.02-.93-.04-1.13-1.15-2.21-1.52-1.21-.41-6.83,6.36-6.62,10.56l2.48-3.41-.47,3.06c-.35,2.27-2,4.42-.13,6.9,2.46-3.79,2.17-8.52,5.63-12.07l-1.93,8.64,2.39-1.04c.81-2.61,2.65-5.29,4.55-7.19.2.05.7.32.64.51l-.29.95c-3.02,3.52-3.78,8.37-1.68,12.66l1.71-3.88c1.22-2.75,1.86-5.89,4.54-7.84-1.32,4.12-3.22,7.52-2.51,11.61l2.44-3.51c1.98-2.85,3.91-6.08,7.29-7.17-3.41,2.83-5.71,6.24-6.52,10.66l4.46-.06c1.55-2.9,2.85-5.67,6.11-7.12l-2.47,3.38-2.58,4.63,5.05,1.8-6.46.35c-.17,0-.78.09-.81.25l-.14.77c-.77.3-2.45.77-3.11,1.28l-5.35,4.14c.64-2.77,3.01-3.12,4.75-4.85-.69-.37-2.08-.64-2.65-.31l-7.46,4.4c1.4,2.59,1.43,5.95-1.34,7.84-.54-12.49-14.77-17.12-26.11-17.34-8.23-.16-16.25,1.94-22.72,7.08-4.24,3.37-8.43,10.92-5.63,10.8,1.74-.08,4.05-6.41,9.04-7.37l-4.71,5.63c-.44.53-.39,2.23-.16,2.87.2.56,1.24,1.19,1.95,1.21,5.33-7.85,17.49-14.21,27.2-12.44-8.05,1.13-15.36,3.1-20.88,9.2-1.4,1.55-2.2,3.43-2.91,5.57.79.98,1.71,1.79,2.74,2.46-.02-2.47,1.26-4.1,3.67-4.1l-2.26,2.8c-.56.69.2,2.39.74,3.64-3.66-1.66-6.87-1.86-10.47-.35.54-1.86,1.75-2.19,3.45-2.69-.51-.55-1.33-1.22-2.01-1.55-.54-.26-1.7.55-2.35.72-3.69,1-6.52,2.64-9.87,4.75,2.2-4.67,9.91-4.73,9.19-6.55-.53-1.33-7.91-1.78-11.8-1.15-4.89.79-7.95,3.86-11.14,7.21l-5.75,6.04c-1.35,1.42-2.06,3.27-2.8,5.06-1.76-.7-1.83-2.72-.7-4.23l-5.36-2.68c-6.74-2.94-14.62-1.77-20.37,2.72-2.9,2.26-3.87,5.93-2.6,9.41,2.01-3.48,4.39-5.99,7.76-8.15l-3.16,5.02c-.79,1.25-.48,2.94.61,3.81,2.21-3.51,4.83-6.42,8.16-8.33-2.95,3.62-7.49,8.18-5.69,11.01.29.45,1.4.79,2.03.52,1.76-3.56,4.15-7.08,7.86-9-2.61,2.9-6.55,8.44-4.66,10.02.75.63,2.73,1.13,3.76,1.12-1.88-3.06.85-6.07,4.31-7.82-1.48,2.1-3.09,3.23-3.4,5.91.69-.06,1.86-.27,2.41-.55l4.13-2.08c-2.35,2.47-5.49,3.8-6.33,6.94-.53,1.97-1.11,3.39-2.93,4.48l-3.27,1.97c.91-1.84,1.82-2.79,3.24-4.23-1.16-2.68-4.2-4.1-7.19-4.03l-4.34.09-.75-2.51h1.4c-.26-.28-1.09-.85-1.53-.94s-1.34.42-1.66.74l-1.35,1.37c-3.14-2.73-9-1.01-12.53,1.19-4.92,3.08-1.98,8.15-2.78,8.48-.22.09-1.18.14-1.39.01l-3.94-2.38c-6.81-1.81-17.27,3.47-16.07,8.84.37,1.68,2.2,3.2,3.53,3.46l-.03-.27-1.19-.97c-.52-2.17-.03-4.64,2.44-5.65-1.24,2.05-1.55,4.15-.95,6.32l.08.27ZM170.53,106.2l-3.64,4.72c-2.68,4.35-6.01,13.37-3.67,12.65,1.34-.41,1.15-4,4.82-8.47,2.26-2.75,4.54-5.44,7.75-7.33-3,3.41-5.8,6.38-7.78,10.36-1.76,3.53-1.68,6.28-.2,5.95,1.62-.36,1.48-5.98,5.39-8.09l-2.37,6.62c-.25.69.03,1.86.72,2.52,2.09-1.61,4.19-3.83,5.01-6.38l1.8-5.62c-.75-1.18-.38-2.26.67-3.05,1.69-2.62,3.91-4.67,6.78-5.75.18-2.64.79-4.89,1.96-7.34-4.9-2.36-10.33-3.8-15.83-3.19-5.2.57-5.53,4.18-8.7,5.04.55-1.5,1.19-2.2,1.93-3.45-7.71,3.07-13.6,8.87-16.65,16.12-1.05,2.5-1.61,5.14.02,7.64.74-.84,1.05-1.78,1.33-2.8,1.24-4.49,2.78-8.94,6.37-12.16l-4.04,9.98,2.01,3.46c1.24-4.17,2.28-7.11,4.62-10.25.98-1.31,1.86-2.81,3.74-3.46-2.76,4.03-6.17,8.71-5.27,13.72l1.39-.37c.17,2.01.3,3.16,1.16,4.94.7-1.18.99-1.75,1.26-2.66,1.58-5.4,4.66-10.48,9.46-13.36ZM193.97,93.99c-2.61,2.6-3.73,5.88-4.5,9.43,3.54.26,1.04-3.61,4.5-9.43ZM156.47,121.17l-.84-3.16-.61,4.19c-.04.3.62.81.86.73s.99-.26.93-.51l-.33-1.26ZM287.3,132.28l-2.67,4.64c-.12.21-.16.7-.15.93,0,.15.9-.05,1.01-.17l4.88-4.93c.09,1.7-.75,2.51-1.69,4.32,1.45-.21,2.4-.76,3.46-1.62,3.46-2.82,2.22-6.77.06-11.13-2.3-4.63-7.12-7.03-12.06-6.06.63,4.46.63,8.67-1.05,12.54-.76,1.76-1.4,3.36-1.12,5.32l5.91-7.22c.5,3.57-3.91,6.19-3.48,9.69,1.59.01,1.29-1.27,1.84-1.93l4.06-4.81.68-.32c.11-.05.37.65.31.75ZM186.87,123.55c-1.3.13-2.17,1.8-2.14,3.11.02,1.08,1.11,2.36,2.27,2.31l-.57-.89c-.27-.41,1.75-2.04.45-4.54ZM177.38,127.17c.44-.52,1.1-1.47.8-1.83l-1.28-1.55-1.48,2.44c-.17.29.3,1.17.61,1.32s1.13-.12,1.35-.38ZM104.41,148.52c-1,1.72-.81,4.04-.43,5.73l2.13-2.72c2.04-2.6,3.86-5.15,6.71-7.38-.48,2.47-2.14,3.81-3.07,6.18,4.65-4.35,10.07-7.43,16.73-7.21,1.62-4.66,4.5-8.12,8.08-11.69l-6.54,2.74c-1.27,1.07-2.39,2.13-4.02,2.85.88-3.02,3.43-4.22,5.53-5.94,1.53-1.25,3.16-2.06,5.23-3.01-3.55-2.81-7.54-3.78-11.77-3.73-6.93.09-13.33,2.36-18.61,6.78-4.29,3.6-7.87,7.82-9.72,13.13-.88,2.54-.99,5.36.68,7.43.04-1.75.27-3.11,1.1-4.44,2.83-4.57,6.8-11.32,12.35-11.94-5.26,3.95-9.35,8.73-10.57,15.19-.21,1.1.1,2.75.55,3.49,2.35-.13,2.56-1.8,2.99-3.42.93-3.49,3.38-6.78,6.37-8.47l-3.72,6.42ZM189.74,133.03l-1.76-1.43-1.34,3.04,3.1-1.61ZM291.99,192.05l-3.56.15-1.14,3.27c2.38.3,3.89-.7,4.7-3.43ZM157.05,198.51l6.39-3.02c.92-.44.88-2.27.13-2.72l-6.06,3.67c-.7.43-1.24,1.45-.46,2.08ZM46.85,197.17l1.75-1.48c-1.21-.37-1.78-.78-2.77-1.83l-1.78,2.51c-.25.35.63,1.37,1.08,1.4s1.37-.3,1.71-.6ZM93.43,199.69c1.88-.82,3.18-2.87,2.6-4.6-.15-.46-1.05-1.28-1.46-1.18s-1.2.69-1.44,1.07l-2.87,4.7c1.08.83,1.99.52,3.16,0ZM163.01,200.89l5.51-3.59-1.65-1.37-5.93,3.77,2.06,1.19ZM289.44,203.39c4.45-1.68,7.6-2.71,10.06-6.5.02-.14-.64-.83-.83-.64l-.9.92c-2.22,1.75-5.23,2.94-8.07,3.22l-4.42.43,4.16,2.57ZM148.22,201.08l3.45-2.59-1.45-1.77-3.31,2.17c-2.36,1.55-6.03.48-7.66,5.07,3.35.44,6.33-.9,8.97-2.88ZM114.53,199.51c-.3-.51-1.35-1.44-1.87-1.58s-1.42,1.08-1.33,1.59c.15.81,1.97,1.86,2.82,1.53.26-.1.52-1.29.37-1.53ZM71.24,203.05c1.54-1.04,2.86-2.29,4.02-3.64l-2.55-1.34-3,3.29c.12.52.88,1.47,1.53,1.69ZM293.79,205.88c3.7-1.73,7.04-3.76,9.64-7.05l-2.41-.79c-2.82,3.16-6.21,5.18-10.26,6.77l3.03,1.07ZM335.37,200.73l-2.83-2.45c-.95.25-2.39,1.79-2.28,2.81,1.06.6,2.13,1.13,2.83,1.07.81-.07,2.1-.97,2.28-1.43ZM106.61,203.55c1-.4,2.42-1.42,2.84-1.98l-2.91-2.38-2.7,2.61,2.77,1.76ZM167.11,203.52l5.64-2.64-2.65-1.62-2.25,1.43,1.29.04c.18,0,.48.35.76.64-1.05.52-1.95.75-2.79,2.15ZM118.45,202.76c.4.37,1.78-.57,1.99-1.23.14-.44-.16-.99-.73-1.73-1.14.14-2.67,1.66-1.26,2.96ZM122.97,203.56c.7.71,1.58.82,2.04.37.33-.32.95-1.1.83-1.53s-1.17-1.06-1.62-1.18l-1.24,2.35ZM136.99,203.23c.1-.39-.24-1.28-.6-1.45-.29-.14-1.17.14-1.38.42l-2.6,3.55c1.01.35,2.01.31,3-.03.78-.27,1.3-1.41,1.58-2.5ZM91.5,202.51l-3.26-.34-1.53,2.2c1.91-.37,3.29-.89,4.79-1.86ZM132.48,202.18l-2.03-.13c-.54-.03-1.53.35-1.73.84-.22.51-.12,1.38.22,1.73.29.3,1.56.45,1.8.1l1.75-2.55ZM155.55,205.02l-.08-3.24-3.05,2.56c-.7.59-1.65,1.32-1.26,2.17,1.56.19,3.58-.62,4.39-1.49ZM168.26,206.94c3.44-.45,6.4-2.06,8.61-4.47l-2.62-.57-5.51,3.96c-.26.19-.64.91-.48,1.08ZM177.3,209.79c3.7-2.29,6.99-7.64,5.73-7.35l-1.3.3-1.98.68-4.22,3.36,1.77,3.01ZM318.67,205.01c.4-.1,1.23-.74,1.27-1.15.03-.34-.13-.93-.29-1.45l-2.51,2.99,1.53-.39ZM70.29,203.99l-1.92-1.44-1.66,1.66c1.29,1.22,2.73.86,3.57-.22ZM122.46,206.94l-9.25-2.84-2.39-1.37-2.32,2.27c3.93,2.79,13.07,4.05,13.45,3.14l.5-1.21ZM180.73,212.62c3.28-2.43,5.81-5.06,7.93-8.56l-3.73.33-6.49,7.24c.07.4.23.99.53.99h1.77ZM164.95,207.78l-3.41-3.11c-.28-.25-1.22-.34-1.5-.15s-.63,1.03-.59,1.4c.12,1.11,1.23,2.25,2.29,2.56s2.17.07,3.22-.7ZM155.9,206.77c-2.32,1.8-3.83,2.79-6.47,3.07.88-1.57,1.31-2.7.31-3.85l-4.4,2.96,4.59,5.13,7.87-4.83-1.9-2.48ZM230.49,212.16c.64-.46,1.11-1.92,1.41-2.85l1.69.08-.6-1.32c-.14-.31-1.15-.37-1.22-.03l-.27,1.19c-.03.12-.36-.18-.47-.28l-.41-.38c-2.96,3.82-9.52,6.37-9.04,7.82.16.47,1.14,1.36,1.57,1.05l7.35-5.27ZM239.68,209.77c-.93-.47-2.03-.99-3.08-1.14-.75-.11-2.15,1.34-2.34,2.05.76.93,2.05,1.31,3.04.95.84-.31,1.57-.94,2.39-1.87ZM167.47,213.22l3.03-2.48-2.68-1.08c-.69-.28-2.08.5-3.03,1.15l2.68,2.4ZM153.42,217.21c2.79-1.61,5.09-3.13,7.43-5.37l-1.72-1.54c-2.37,2.19-4.82,3.64-7.94,4.78l2.22,2.13ZM138.47,212.9c-.79-.48-1.01-2.16-2.42-.99l3.27,2.63c.23-.58.37-.9.21-1l-1.06-.64ZM128.27,216.4l5.21-3.05-2.15-1.44c-1.48,1.79-3.06,2.63-5.15,3.57.13.42.27.76.52.91.19.11,1.31.15,1.58,0ZM227.41,220.44c3.12-2.13,5.9-4.06,8.4-6.98l-3.05-1.53c-2.77,2.95-5.26,5.11-8.77,7.02l3.42,1.49ZM173.89,215.6l2.21-1.67-2.53-1.75-2.17,2.1,2.49,1.31ZM160.6,218.8l5.26-3.69-3.13-2.1c-2.23,2.3-4.44,3.75-7.38,5.01,1.14,1.84,3.44,2.04,5.25.77ZM281.3,216.4l.79-3.06c-.29-.36-1.81-.47-2.04-.06l-1.25,2.29,2.5.83ZM144.51,215.21l-2.28-1.18-.85,2.02c.38.32,1.42.92,1.73.59l1.39-1.44ZM233.31,221.94l6.84-6.11c-.41-.66-1.42-1.45-2.33-1.79-2.61,3.04-5.2,4.8-8.72,7.17l4.21.73ZM132.58,218.84l4.84-2.69-2.13-1.56-5.52,3.49c.28.52,2.16,1.12,2.81.76ZM180.09,217.37c.43-.24.85-1.09.68-1.51-.19-.47-1.29-.9-1.71-.71-1.13.54-1.99,1.1-2.76,1.78,1.37,1.41,2.36,1.24,3.79.44ZM164.89,221.19l5.69-3.81c-1.05-.99-1.92-1.53-2.85-1.71-2.36,2.09-4.63,3.52-7.55,5.04,1.1,1.51,3.08,1.57,4.71.48ZM246.39,216.72l-4.15-.49-6.4,5.53c3.66,1.94,7.64-1.71,10.55-5.04ZM248.66,220.13l2.97-3.34-2.88-.55-2.65,3.26,2.56.64ZM273.56,219.83c1.34.09,2.7-.01,3.65-.46,1-.47,1.28-2.24.13-2.47-.85-.17-1.92,1.5-1.95,2.3l-1.83.62ZM141.34,218.14c-.62-.4-1.38-.81-1.91-.99l-4.61,3.19c2.65.97,4.49-.45,6.51-2.2ZM147.41,219.38c-.47-.58-.71-.84-.69-1.11l.08-1.4-5.8,4.87c2.67-.41,4.52-1.36,6.41-2.37ZM187.64,217.8c-1.27-.72-1.67-.48-2.59-.21l-1.78-.51-2.27,1.69,2.37,1.16,4.27-2.13ZM176.82,219.39l-4.04-1.11-7.04,5.05c2.98,1.54,7.74-1.81,11.07-3.94ZM193.53,219.21c-1.15-.52-2.59-.96-3.17-.56-.77.53-1.54,1.41-1.75,1.94,2.28,1.13,3.76.12,4.92-1.38ZM223.7,221.89l-6-2.84c1.51,1.48,3.49,2.79,6,2.84ZM176.54,224.61l6.42-3.62c-1.6-.83-3.51-1.21-5.03-.33l-6.18,3.58c.63,1.19,4.29.65,4.79.37ZM187.86,222.17l-2.84-.69-2.84,2.58c2.36,1.01,4.77-.25,5.68-1.89ZM246.76,223.13l-2.7-1.79-1.42,2.09,4.12-.3ZM235.56,224.68l-7.05-1.69c-.75-.18-1.12-.69-2.12.09l4.43,1.18c1.59.42,3,.65,4.74.43Z"/>
  <path class="st0" d="M273.52,193.92l2.23-2.16-5.54-1.59c-.46-.13-1-1.2-.91-1.68,3.03.84,5.52,1.32,8.61,1.67-.74,5.62-5.53,5.62-5.08,4.72.12-.25.47-.76.69-.97Z"/>
  <path class="st0" d="M207.12,136.11c-5.96,2.3-8.9,2.47-13.66,8.29-.32-5.08,8.21-9.07,13.66-8.29Z"/>
  <path class="st0" d="M314.25,174.88l-8.29.87c.65-1.11,1.6-1.59,2.71-1.72l7.58-.87c1.87-.22,3.92-.06,5.23,1.19l-7.24.53Z"/>
  <path class="st0" d="M122.31,180.41c-5.51-.92-7.5-8.01-4.34-12.34-.24,4.97.8,8.68,4.34,12.34Z"/>
  <path class="st0" d="M115.28,161.81c-3.65,4.28-3.51,10.06.26,14.34-2.01.17-3.05-1.45-3.72-3.09-1.64-3.98-.32-9.07,3.46-11.26Z"/>
  <path class="st0" d="M127.81,178.46c-2.21.16-3.69-2.01-4.38-4-.95-2.78-.59-6.2,1.49-8.53-.92,4.7-.51,8.56,2.89,12.53Z"/>
  <path class="st0" d="M159.54,130.49c-5.2.99-10.43,2.34-14.64,5.94-.26-.25-.56-.5-.5-.6l.5-.85c3.86-3.26,9.11-5.59,14.64-4.48Z"/>
  <path class="st0" d="M203.66,141.92c-2.93.85-4.94,4.91-5.65,3.96-1.05-1.42,6.47-8.12,10.69-5.42l-5.04,1.46Z"/>
  <path class="st0" d="M107.56,173.34c-4.3-2.22-.89-10.74,3.61-13.04-3.25,3.6-4.88,7.91-3.61,13.04Z"/>
  <path class="st0" d="M316.36,170.71l-7.39.45c.4-1.57,1.85-1.54,3.16-1.63,3.18-.23,6.04-.81,9.34.26-1.63.58-3.3.81-5.11.92Z"/>
  <path class="st0" d="M135.78,178.21c-2.31.38-3.99-1.02-4.8-2.41-1.15-1.96-1.51-4.16.16-6.11.1,3.85,1.24,6.46,4.64,8.52Z"/>
  <path class="st0" d="M282.05,186.09c-2.96,1.35-6.74,1.59-10.36.17,3.32-1.12,6.64-.89,10.36-.17Z"/>
  <path class="st0" d="M211.11,199.77c.42-1.91,2.13-3.21,3.54-4.53l3.42-3.94c-1.21,3.41-3.38,6.64-6.96,8.47Z"/>
  <path class="st0" d="M123.86,150.7l-8.09,5.38c1.07-3.4,4.86-4.44,7.57-5.96l.67-.38c.12-.07-.03.88-.15.96Z"/>
  <path class="st0" d="M321.83,166.71l-8.81.6c1.12-1.16,2.24-1.33,3.75-1.63,1.77.23,3.16.39,5.06,1.03Z"/>
  <path class="st0" d="M155.95,183.14c1.3-2.32,3.15-3.62,5.15-4.97-.79,2.53-2.43,4.59-5.15,4.97Z"/>
  <path class="st0" d="M321.82,162.22c-2.07.95-4.35,1.03-6.66.58,1.96-1.22,4.36-2.16,6.66-.58Z"/>
  <path class="st0" d="M144.62,174.85c-.03.88-2.46,2.38-4.05,2.17-1.26-.17-2.28-.84-2.74-2.23,2.35,1.29,4.21,1.46,6.79.07Z"/>
  <path class="st0" d="M270.82,116.09c-.93,2.45-5.38.75-5.04.33l.75-.92,4.29.59Z"/>
  <path class="st0" d="M274.41,153.76c-.44.13-1.24-.88-1.16-1.26,1.72-.55,3.52-1.45,5.26.06l-4.09,1.19Z"/>
  <path class="st0" d="M310.78,150.06l-3.78-.95c-.56-.14-1.11-.99-1.01-1.62,1.76.25,3.72.06,4.79,2.56Z"/>
  <path class="st0" d="M299.31,147.33c-1.33-.15-3.26-.82-4.02-1.66.3-1.19,1.53-.91,2.41-.61.97.33,2.31.74,1.61,2.27Z"/>
  <path class="st0" d="M290.47,148.2c-1.63-.19-3.21-.9-4.63-1.9,1.67-1.44,4.01-.39,4.63,1.9Z"/>
  <path class="st0" d="M316.27,153.98l-4.81.63c.84-2.12,3.35-2.67,4.81-.63Z"/>
  <path class="st0" d="M318.87,157.91c-1.64,1.45-4,1.53-5.87.11l5.87-.11Z"/>
  <path class="st0" d="M283.3,150.35c-1.31.21-3.03-.25-4.32-1.36,1.53-.72,3.25-.68,4.32,1.36Z"/>
  <path class="st0" d="M129.53,129.31c-2.41.31-4.55.04-6.45,1.72-.34-2.18,3.82-3.01,6.45-1.72Z"/>
  <path class="st0" d="M122.65,133.49l-3.44,3.31c-.19-1.4.2-2.15.89-2.76.51-.45,1.72-.6,2.55-.54Z"/>
</svg>