<?xml version="1.0" encoding="UTF-8"?>
<svg id="Layer_1" xmlns="http://www.w3.org/2000/svg" version="1.1" viewBox="0 0 430.09 536.8">
  <!-- Generator: Adobe Illustrator 30.5.1, SVG Export Plug-In . SVG Version: 2.1.4 Build 3)  -->
  <defs>
    <style>
      .st0 {
        fill: #46676e;
      }
    </style>
  </defs>
  <path class="st0" d="M273.92,319.53c2.77.8,3.17,4.04,3.74,6.34l2.93,4.43c2.33,4.93,3.81,9.83,4.79,15.27,2.6,14.46.3,29.35-6.95,42.08-1.59,2.8-3.96,4.53-7.22,4.84-8.49.79-16.86,1.62-25.49,1.36l-27.04-2.48c-4.07-.37-7.01-2.27-8.92-5.89-9.28-17.6-9.04-37.66-.3-55.48.98-2,2.37-3.5,3.66-5.15.33-2.2.94-5.4,3.58-5.97l22.59-4.82c1.16-1.2,2.46-2.14,4.26-2.99-11.67-5.63-12.56-15.9-10.53-27.61-1.18-.63-1.66-1.63-1.47-2.87.22-1.38,1.05-2.01,2.58-2.12l3.07-13.5-1.97-.05c-1.63-.04-2.8-.72-3.23-2.4l-2.87-1.31c-2.43-.05-3.78-1.64-4.05-3.95l-36.83-14.8-40.99-16.85-34.74-14.26-3.84-.45c-1.43.81-3.04,1.25-4.77.57l-3.73-1.46c-1.55,5.18-2.97,10.18-4.15,15.55,1.01,1.76.48,4.74-1.06,6.1-2.28,14.16.5,25.35,15.04,29.06,2.06-.74,4.86-1.65,6.83.52,1.36,1.5-.41,4.54,1.75,5.16s3.42,2.13,4.26,3.98c5.32,1.5,10.71,2.65,15.93,4.61,3.33,1.25,4.35,5.06,4.71,8.14,1.44,1.63,2.84,3.34,3.79,5.38,2.86,6.18,4.59,12.49,5.81,19.26,2.19,12.11,1.34,24.24-2,36.06-1.7,6.03-3.91,11.57-7.19,16.85-1.89,3.04-4.76,4.87-8.45,5.26-10.14,1.06-20.19,1.74-30.44,1.77-6.09.02-11.87-.75-17.89-1.39l-17.96-1.93c-4.4-.47-7.84-2.47-10.01-6.46-12.16-22.33-12.01-48.69-.07-71.15,1.08-2.03,2.56-3.56,4.16-5.14-.05-3.05,1.36-6.73,4.78-7.67,9.6-2.65,19.28-4.15,28.98-6.05,1.1-1.66,2.34-2.73,4.45-3.24-.41-.45-1.02-1-1.45-1.24-7.49-4.1-11.93-11.29-12.4-19.82-.24-4.42.43-8.87.99-13.23-2.45-1.06-1.83-4.55-.8-5.43.42-.36,1.56-.54,2.25-.63l3.78-15.4.09-1.15c.05-.58-2.68.63-4.47-.41-.6-.35-1-1.4-1.5-2.34l-3.65-1.9c-3.19.09-4.8-2.26-5.2-4.92l-34.9-14.85-25.46-11.2c-.59-.17-.59-.33.05-.43l23.49,9.07,29.91,11.99c-6.07-3.22-12.65-5.56-19.2-8.44l-21.84-9.61-18.95-8.79.26-1.22,26.07,10.72,42.07,17.4c1.3-1.47,2.75-1.71,4.5-1.45.91-1.03,2.39-1.59,3.73-1.08l11.84,4.51c4.37,1.66,8.6,3.46,12.8,5.44,2.31,1.09,2.68,4.4,2.39,6.78l15.05,6.27c31.75,13.22,63.2,26.72,95.11,39.46,1.01-1.03,2.29-1.42,3.79-1.37.98-.88,2.37-1.37,3.62-.69l8.9,3.28,9.83,4.01c2.41.98,3.29,4.05,2.49,6.43l28.13,11.63,39.49,15.93,19.69,7.84c.96-.69,2.21-1.04,3.16-1.31,2.39-.67,1.36-.92,4.79.31l10.9,3.92c2.67.96,4.26,2.96,3.57,6.22l20.45,8.33.52.2.52.19,25.64,10.77c-.3.07-.68.15-.79.19l-14.76-5.46.73.59.46.19.48.19.49.2,16.82,7.14c.28.29.36.46.17.64l-53.09-20.58c-1.25-.49-2.63-.21-3.76.16l-3.32-.92c-.84,3.17-2.03,6.46-2.18,9.69-.08,1.73-.18,2.91-.71,4.58-.69,2.2-.57,4.9-.32,7.23.61,5.68,4.67,10.04,10.13,11.15,1.57-1,3.38-.86,4.63.47l.33,2.61c1.14.7,2.23,1.67,3.09,2.71l9.77,2.6c1.98,1.04,2.94,3,2.93,5.2,1.54,1.85,2.61,3.76,3.56,6.06,4.91,13.24,4.21,27.97-1.99,40.67-1.13,2.32-3.01,4.05-5.65,4.33-6.17.65-12.23,1.45-18.51,1.29l-21.55-1.99c-2.89-.27-5.09-1.5-6.5-4.11-7.24-13.37-7.25-29.26-.33-42.84.72-1.42,1.86-2.79,2.86-3.86.11-3,1.69-4.64,4.47-5.23l14.72-3.09c.5-.53,1.38-1.4,1.95-1.65l.71-.32c.18-.08-.29-.55-.45-.7-4.96-2.6-7.83-7.03-8.47-12.62-.27-2.94.1-6.02.34-8.91-.77-.64-1.2-1.43-1.11-2.39s.92-1.49,1.99-1.75l2.18-10.23c.12-1.31-3.39.69-4.35-1.96-.54-1.5-4.3-.26-4.9-4.13l-62.21-24.81-27.53-11.01c-.67-.27-2.32-.27-2.97-.24-.93.28-2.32.7-3.12.37l-3.47-1.42-3.25,12.71c.6,1.77.47,3.69-.8,5.14-2.11,11.52.24,20.69,12.15,23.77,1.78-.9,4.47-1.47,5.86.64.51.77.45,2.59.53,3.72,2.01.35,3.4,1.71,4.22,3.25l12.97,3.76ZM85.83,196.8c.4-1.55.75-2.46,1.58-3.94,0-.12-.85-.28-1.19-.21-.28.06-.71.84-.68,1.16l.29,2.99ZM91.99,202.26c2.12.1,3.3-1.94,3.27-3.75s-.28-3.35-1.55-4.39c-.89-.73-2.76-1.61-3.94-1.17-1.75.66-2.24,2.51-2.18,4.16.1,2.5,1.71,5.03,4.39,5.15ZM103.13,200.86c-.76-.92-2.64-1.12-3.7-1.51-.47-.18-.92-1.23-1.12-1.98l3.03.75c2.31.57,3.65,2.08,4.16,4.68.64-1.53.98-2.2,2.32-2.97-4.07-1.73-7.91-3.36-12.33-4.88l2.33,3.9c1.02,2.59-.28,5.03-2.51,5.91,2.79.02,3.83-1.74,3.98-4.54l2.48,2.09,1.13-.61-.03,3.58c.72-.95,1.32-3.13.25-4.42ZM109.25,208.99c1.46,1.09,3.4.84,4.38-.62,1.05-1.55,1.1-3.6.19-5.26-.76-1.37-2.43-2.75-4.32-2.55-1.62.18-2.36,1.83-2.44,3.29-.11,2.02.5,3.87,2.2,5.14ZM98.23,207.61l2.28-.04-3.24-1.4-.94,2.28c.93.03,1.33-.18,1.9-.84ZM92.96,224.17l3-12.95c-.88.95-1.12,2.17-1.45,3.41l-2.55,9.66.99-.12ZM218.8,252.72l.07-.44-21.31-8.73-52.81-21.85-22.22-9.17-.27.36,62.52,26.15,26.97,10.93,7.04,2.75ZM93.91,229.53c-.66-.35-1.52-.64-1.68-1.04s.15-1.6.54-1.81,1.05-.06,1.87-.08c-1.23-.96-2.83-1.05-4.23-.8.6.57,1.09,1.6.74,2.13-.26.39-1,.66-1.83,1.12l4.6.5ZM100.34,258.95c-5.58-3.91-8.78-9.05-9.45-15.65-.43-4.24.26-8.23.31-12.79-1.5,4.14-1.65,8.38-1.5,12.58.24,6.68,3.25,12.75,8.56,16.68-.97-1.41-2.17-2.23-2.84-3.95,1.89,1.21,3.12,2.36,4.93,3.12ZM96.24,253.31l-3.26-7.47.37,4.03,2.89,3.43ZM231.81,252.24c-1.97.46-1.88,2.65-1.62,4.01l1.62-4.01ZM235.7,260.32c2.46-.33,2.81-2.9,2.26-4.75-.61-2.06-2.91-3.77-4.93-2.47-1.44.92-1.33,3.13-.77,4.6.44,1.16,1.62,2.87,3.44,2.62ZM240.58,256.32l2.79.62c1.81.4,2.74,1.89,3.03,3.89.62-1.18.88-1.65,1.81-2.69l-9.95-4.01c1.43,2.35,2.82,4.19,1.85,6.74l-1.67,1.28c.8.03,1.83-.25,2.18-.71.45-.6.63-1.56.82-2.64l2.3,1.16c.55.29.55,1.44.58,2.36.44-.55.69-1.81.49-2.68-.4-1.78-4.05-.83-4.23-3.33ZM249.32,265.82c.46.44,1.88.67,2.42.45,1.73-.71,2.48-3.27,1.39-5.38-.45-.86-1.83-1.99-2.97-2.02-1.57-.03-2.5,1.41-2.49,2.8.02,1.58.35,2.9,1.65,4.14ZM112.73,264.7l.05-2.98-2.16.71-.04,2.13,2.15.13ZM240.58,263.38c.03-.18-.85-.3-.97-.16l-1.29,1.44,1.36.34c.06.02.7-.57.9-1.62ZM113.32,267.93l.52-1.07,3.51.71c-4.36-2.27-15.21-3.83-17.46.11,4.34-1.08,10.49-2.1,13.44.25ZM236.09,278.78c1.38-3.95,2.15-7.63,2.75-11.45-1.48,3.83-2.66,7.52-2.75,11.45ZM314.77,290.87l-30.66-12.41c-7.39-2.99-14.46-6.27-21.87-8.49,24.63,10.41,48.88,20.22,73.72,29.72-6.76-3.48-13.85-5.85-21.19-8.82ZM92.5,275.77l10.23-1.46.26-4.2c-9.48.98-18.63,2.79-27.84,4.95-5.18,1.21-8.28.91-9.31,6.16,8.94-2.32,17.6-4.16,26.66-5.45ZM139.84,280.08c-.58-1.5-1.91-2.61-3.44-3.07-9.11-2.71-18.14-4.91-27.51-6.62-.88-.16-2.45-.25-3.06.17-1.09.74-1.11,2.46-1.01,3.7l9.38,1.95c9.1,1.9,17.89,4.07,26.71,6.63l-1.07-2.76ZM147.05,342.44l-.47,2.03c-5.11-.39-9.85-.84-15.03-.64l14.71,1.69c-1.61,4.88-3.67,9.35-6.21,13.68-.83,1.41-2.18,2.2-3.89,2.07l-17.65-1.31-12.35-.92c-1.31-.1-1.9-1.31-2-2.48-1.37-16.24-1.24-32.19-.98-48.52l.45-27.74c.02-1.36.16-2.73-.81-3.92l-.72,18.78-.55,20.97.19,24.33.82,17.73c.02.41.42,1.34.78,1.48s1.12.18,1.74.26c9.61,1.13,19.03,2.18,28.68,2.64,3.56.17,6.25-1.3,8.02-4.4,3.18-5.6,5.46-11.75,6.93-17.98-.99.85-1.48.95-2.48.81-5.78-.77-11.3-1.82-17.42-1.63,6.07,1.55,11.99,1.96,18.25,3.05ZM95.61,330.89c2.14-.86,2.95-2.54,2.97-4.62l.25-25.34.27-18.79c.03-2.03-1.76-3.82-3.87-3.55-9.76,1.22-19.21,2.85-28.64,5.53-2.13.61-3.64,2.55-4.65,4.48-6.49,12.41-9.37,26.41-8,40.35.2,2.01,1.74,3.9,3.8,3.8l37.88-1.86ZM125.8,335.03c1.88-17.69,1.27-34.97-2.36-52.12-.19-.92-.89-1.49-1.72-1.65l-9.94-1.96c-1.83-.36-4.04.86-4.08,3.05l-.76,46.03c-.04,2.2,1.46,4.34,3.54,4.61l15.31,2.03ZM237.25,282.76l-1.05-1.21c-.2-.24.24-1.12.55-1.12l1.12.02c-.85-.77-2.32-.96-3.37-.77l.83,1.45c.17.3-.84.79-1.19.79l-.24.45,3.34.38ZM149.97,333.79c2.58-14.94.61-30.13-5.54-43.74-1.19-2.75-3.2-3.98-5.91-4.66l-10.73-2.7c3.46,17.93,3.92,34.71,2.27,52.79l15.25,1.87c2.19.27,4.23-1.08,4.66-3.57ZM240.15,303.95c-1.45-1.93-2.47-3.88-3.48-6.17l.23,3.08c-3.17-5.37-1.88-11.39-1.87-17.26-2.56,8.62-1.74,19.26,6.27,23.79-1.6-1.91-3.35-3.32-4.15-6l2.99,2.56ZM351.5,302.15c-.52-1.7-2.31-2.89-3.84-1.97-.98.59-1.1,2.29-.8,3.52.21.86,1.08,1.97,2.42,2.2.74.13,1.84-.68,2.1-1.25.3-.67.38-1.64.12-2.49ZM353.86,302.74c2.3.4,3.59.83,3.93,2.91l1.28-1.87-6.78-2.6.81,2.68c.33,1.09.08,2.19-.41,3.52,1.01-.36,1.33-.98,1.64-2.75l2.3,1.53-.14-1.15c-.09-.72-2.94-.59-2.63-2.27ZM363.27,307.51c-.04-1.76-1.39-3.56-3.19-3.02-1.15.35-1.47,2.12-1.31,3.25.13.91.95,2.18,2.02,2.45,1.56.39,2.51-1.06,2.47-2.67ZM252.84,310.48l-.05-1.3c0-.15-.36-.16-.75-.18s-1.18.51-1.14.89c.04.44.38,1.13.74,1.22s1.21-.29,1.2-.63ZM253.62,313.29l4.65,1.4c-1.4-1.17-3.26-1.73-5.14-2.29-3.18-.95-9-.89-10.7,1.29,3.46-.64,6.51-1.24,9.65-.72l.5,1.06c.07.14.88-.78,1.03-.74ZM350.53,319.83l1.64-7.81c-.61.61-.9,1.41-1.09,2.27l-1.25,5.72.71-.18ZM215.25,324.78c9.56-2.6,19.31-4.61,29.35-5.72l-.34-3.3-13,2.2-13.51,3.04c-1.41.32-2.06,2.24-2.5,3.78ZM272.3,321.34l-20.29-5.07-5.23-.51c-.44,1.25-.61,2.14-.62,3.34,10,1.87,19.43,4.06,29.44,6.87-.43-1.64-1.98-4.29-3.3-4.62ZM280.45,373.71c-.28,1.21-.7,1.36-1.21,1.33l-9.81-.53c-.6-.03-1.09-.28-1.59.31l11.98,1.26c-1.3,3.96-2.93,7.71-5.19,11.24-.77,1.19-2.16,1.55-3.58,1.44l-24.89-1.91-.72-4.36c-.76-11.7-.8-23.11-.63-34.88l.35-25.63c0-.53-.28-1.18-.67-1.37l-.05,5.36-.9,20.62.22,28.7.61,10.82c.02.44.38,1.42.78,1.47l1.6.2,22.94,2.09c2.99.27,5.3-1.32,6.72-3.83,2.52-4.43,4.21-9.09,5.5-14.08l-1.08.62c-4.9-.51-9.58-1.55-14.69-1.28l14.3,2.42ZM351.24,323.22c-.54-.56-1.02-1.02-.84-1.13l1.09-.66c-.47-.22-1.61-.42-2.31-.48.18.73.33,1.08.19,1.28l-.61.91,2.48.08ZM237.59,364.44c2.23-.12,3.55-1.4,3.57-3.71l.41-35.07c.02-1.95-1.4-3.5-3.32-3.13l-20.43,3.92c-2.35.45-4.19,1.65-5.33,3.86-5.17,10.04-7.59,21.38-6.48,32.62.2,2,1.65,3.06,3.54,2.97l28.04-1.46ZM251.61,366.13l11.69,1.48c1.63-14.43.99-28.47-2.1-42.53l-8.95-1.97c-.83-.18-2.03-.06-2.7.4-.55.37-1.14,1.53-1.16,2.47l-.56,36.37c-.04,2.3,1.68,3.52,3.79,3.79ZM357.09,343.01c-2.24-.98-3.14-2.19-4.1-4.03l-1.46-2.82c-.42.07-.87.22-.99.04-1.44-2.11-1.16-8.11-1.06-11.98-.48.34-.64.99-.67,1.72-.16,3.11-.38,6,.23,9,.8,3.92,3.27,7.3,6.76,8.9l-2.52-2.65c1.71.52,2.02,2.34,3.82,1.83ZM283.26,365.66c1.74-11.88-.07-23.65-5.01-34.32-.95-1.79-2.39-2.76-4.27-3.23l-8.95-2.21,2.02,13.58c.99,9.59.72,18.95-.18,28.52l12.99,1.48c2,.23,3.11-1.86,3.4-3.82ZM74.38,351.14c-4.64-.31-8.89-.01-13.36.08l-.92-2.28,11.55-1.22-11.98.18-1.03-2.83,29.59-2.41c-10.36-.28-20.18.42-30.44.89l-1.8-5.85,26.1-1.22c5.53-.26,10.8-.27,16.35-1.62-13.95-.06-27.7.77-41.73,1.64-.81.05-1.16-.37-1.9-1.32,1.12,7.17,3.44,14.21,7.09,20.69,1.71,3.04,4.43,4.95,8.02,4.97,10.44.08,20.68-.22,31.09-.99-.39-.91-1.1-1.13-2.03-1.11l-29.64.63c-2.51.05-4.69-1-5.65-3.36l10.27-1c1.15-.11,2.15,0,3.12-.66l-14.16.45-1.2-2.28,12.67-1.37ZM126.64,339.18c-1.48-.6-2.96-.99-4.6-1.16l-14.01-1.44c5.54,1.78,10.97,2.36,16.62,2.93l1.98-.33ZM123.59,342.39c-5.25-1.15-10.02-1.47-14.88-1.38,5.14.99,10.07,1.72,14.88,1.38ZM363.75,346.24l-.12-1.96c-1.02-.05-1.94.58-2.25,1.45l2.37.51ZM363.98,347.88l3.03.45c-2.96-1.94-6.27-2.02-9.5-1.55l-1.64,1.15,4.16-.42c1.3-.13,2.73.19,3.94.37ZM95.7,349.12c-3.8-.43-7.21.26-11.05.61-.78-.1-.64.42-.06.49,4-.19,7.55-.24,11.12-1.1ZM336.41,356.27c7.11-1.66,14.01-3.17,21.41-3.94.25-.76.05-1.87-.61-2.61l-18.68,3.81c-1.14.23-1.92,1.69-2.11,2.74ZM380.89,356.92c-.49-1.63-.93-2.32-1.79-3.11-4.54-1.33-18.82-5.11-19.44-3.64-.15.37-.24,1.23-.3,2l21.52,4.75ZM96.68,353.39c-4.73-.3-9.2.05-13.65.81,4.73.33,9.19.04,13.65-.81ZM357.93,403.49c0,.3.75,1.04.86.83l.49-.93-.68-17.37.18-32.08c-.31-.15-.84-.01-.78.16l.3.77-.72,15.58-.14,8.27.48,24.77ZM354.04,386.53c1.36-.71,1.79-1.77,1.79-3.12l.06-26.01c0-1.55-1.11-2.73-2.67-2.42l-16.42,3.26c-1.11.22-2.18,1.63-2.72,2.67-3.92,7.52-5.69,15.93-5.01,24.35.13,1.64,1.29,2.63,2.86,2.54l22.11-1.27ZM372.4,389.04l.51-14.43c-.16-6.13-.92-11.91-2.4-17.87l-6.81-1.4c-1.22-.25-2.3.89-2.31,2.09l-.31,27.65c0,.88.92,2.49,1.68,2.59l9.65,1.37ZM386.69,388.49c1.5-8.88.44-17.91-3.22-26.14-.59-1.32-1.51-2.85-2.85-3.2l-7.08-1.84c1.56,7.33,2.51,14.13,2.15,21.38l-.52,10.6,8.54,1.14c1.19.16,2.75-.56,2.98-1.93ZM108.44,364.72c-.86-1.28-2.99.55-4.59-1.97l-1.49,1.22c-1.61.12-3.08-.62-4.7.35l7.04.42h3.73ZM221.79,380.53h-9.92s-1-1.87-1-1.87l8.6-.9c-3.17-.42-5.79-.17-8.93-.06l-.74-2.07,20.25-1.5c-.73-.78-1.71-.41-2.58-.38l-18.31.61-1.41-4.53,27.47-1.31c1.96-.09,3.81-.29,5.5-.97-11.14-.03-21.86.71-32.82,1.36l-1.25-.67c1.05,5.6,2.84,10.84,5.59,15.85,1.24,2.27,3.31,4.29,6.14,4.33,8.43.14,16.74.09,25.23-.93-2.94-1.24-5.84-.71-8.72-.64l-16.55.39c-1.99.05-3.79-.99-4.46-2.78l9.9-.88-8.87-.2c-.45-.01-1.67.19-1.84-.2l-.63-1.5,9.35-1.15ZM258.46,369.87l-9.46-.89c4.71,1.28,9.4,2.01,14.34,2.15-1.48-.87-3.1-1.09-4.88-1.26ZM253.52,372.48c-1.26-.16-2.47-.32-3.84.01,3.89.9,7.79,1.23,11.97,1l-8.13-1.01ZM236.6,379.39c.89-.02,1.68-.21,2.43-.64l-9.62.79,7.2-.15ZM237.83,383.04c.54-.02,1.41-.35,1.86-.62l-7.85.25c-1.01.03-1.92.22-2.79.69l8.79-.32ZM340.57,399.38v-.41s-6.96.23-6.96.23l-.54-1.51c2.29-.2,3.85-.18,5.82-.76l-5.9-.07c-.39,0-.82-.9-.77-1.48l7.14-.59,3.45-.47-11.2-.02-1.05-3.45,20.65-1.07c1.4-.07,2.86-.2,4.2-.89l-24.47,1.13-1.32-.33c1.12,5.5,3.88,15.52,8.9,15.33l18.33-.67c.19-.16.28-.73.06-.78l-.97-.2-17.54.7c-1.45-.18-2.65-.68-3.23-2.04l7.1-.53.17-.5-7.13.29c-.21,0-.83-.1-.86-.3l-.17-1.03,6.31-.6ZM372.11,391.1l-10.48-1.13c3.57,1.17,6.88,1.54,10.66,2.02l-.18-.89ZM242.78,391.55l6.69-.07-2.8-.75-1.36-.62c-.2-.09-.36.34-.49.7l-3.87.14c.3.16,1.41.6,1.84.6ZM380.71,404.41c.34-.12,1.07-.65,1.28-1.04,1.9-3.52,3.08-7.27,4.09-11.05-1.15.23-1.95.27-2.95.15l-8.17-.95-.02.6,9.69,1.68-.22.66-9.7-.61-.21.37,9.91,1.33-3.71,8.84ZM372,393.68c-3.2-1.14-6.2-1.03-9.36-.98,3.04.79,6.16,1.29,9.36.98ZM353.78,397.36c-2.61-.28-4.71-.08-6.99.44,2.37.3,4.8.3,6.99-.44ZM354.58,400.16c-2.84-.2-5.56-.08-8.2.68,2.88.11,5.48-.01,8.2-.68ZM380.38,404.99l-2.73-.02-17.56-1.16c5.62,1.93,11.19,1.58,16.82,2.19,1.17.13,2.5-.27,3.47-1ZM358.68,406.61l-3.29.13c2.29.6,4.37.71,6.67.19l-3.38-.32Z"/>
  <path class="st0" d="M94.8,323.48l.16-8.31-6.93,11.83-.31-.27,6.14-11.3c.69-1.26,1.41-2.1,1.33-3.74-.03-.63.2-1.32.74-1.69l-.12,14.96c-.83,2.04-1.46,3.19-3.21,2.59.74-1.03,2.16-2.59,2.19-4.07Z"/>
  <path class="st0" d="M66.85,322.21c3.18-6.18,7.07-12.07,11.51-17.22-3.3,6.36-7.18,11.67-11.51,17.22Z"/>
  <path class="st0" d="M63.43,314.18c1.45-3.19,3.37-5.85,5.38-8.61l6.61-9.09.31.27-4.24,6.43c-2.52,3.83-4.92,7.53-8.06,10.99Z"/>
  <path class="st0" d="M217.94,344.99l-5.06,6.69c2.82-4.92,5.81-9.36,9.45-13.93-1.21,2.42-2.59,4.86-4.39,7.23Z"/>
  <path class="st0" d="M216.97,356.43c2.21-4.61,4.96-8.66,8.18-12.59-2.43,4.49-5.13,8.53-8.18,12.59Z"/>
  <path class="st0" d="M238.2,358.53v-7.08s-4.24,7.41-4.24,7.41c.35-1.66,1.14-2.83,1.92-4.22l2.28-4.08.7-2.64-.15,3.41-.11,8.47c-.01.83-.86,1.94-1.56,2.02.45-.87,1.16-2.16,1.15-3.28Z"/>
  <path class="st0" d="M136.19,321.56c2.34-5.79,5.4-11.24,8.79-16.21-2.09,6.06-5.23,11.07-8.79,16.21Z"/>
  <path class="st0" d="M137.53,330.33c2.16-5.16,4.93-9.94,8.14-14.68-1.84,5.43-4.77,10.02-8.14,14.68Z"/>
  <path class="st0" d="M353.34,381.54l.06-3.87c-.22.11-.49.25-.62.39l-.63.69,1.78-4.49.02,7.14c0,1.22.1,2.53-.96,3.2l.34-3.06Z"/>
  <path class="st0" d="M272.08,356.43c1.88-4.42,4.11-8.37,6.75-12.3-1.62,4.53-3.99,8.43-6.75,12.3Z"/>
  <path class="st0" d="M273.11,363.45l4.33-8.11,1.85-2.4c-1.54,3.89-3.51,7.18-6.18,10.51Z"/>
  <path class="st0" d="M378.94,380.11c1.21-3.17,2.77-5.9,4.66-8.89-1.11,3.12-2.67,6.07-4.66,8.89Z"/>
  <polygon class="st0" points="379.47 385.57 383.62 378.14 384.13 378.14 380 385.69 379.47 385.57"/>
  <path class="st0" d="M101.36,273.28c-11.16,1.26-22.36,2.63-33.38,6.1.37-1.43,1.76-1.77,3.07-2.03l16.27-3.32,12.31-2.36,1.41.32c.29.07.39.91.32,1.3Z"/>
  <path class="st0" d="M138.96,280.98l-11.72-3.18-21.59-4.48c.24-1.5,1.44-2.04,2.75-1.81,5.96,1.05,11.63,2.57,17.37,4.07l11.16,2.93c.95.25,1.74,1.49,2.03,2.46Z"/>
  <path class="st0" d="M242.93,318.1l-15.52,2.38c4.42-1.47,8.85-2.37,13.56-3.22.84-.15,1.93.23,1.96.84Z"/>
  <path class="st0" d="M225.46,320.61l-8.09,2.39c2.05-2.23,5.23-2.26,8.09-2.39Z"/>
  <path class="st0" d="M263.13,321.09h1.91c-1.81-.77-3.78-.21-5.83-.58l-11.89-2.17c-.11-.24-.2-.9-.04-1.07.2-.22.9-.5,1.2-.43l14.84,3.24,7.33,1.82c1.36.34,2.54,1.06,3.23,2.49l-11.05-2.96.3-.34Z"/>
  <path class="st0" d="M379.33,355.57c-6.11-1.6-12.17-2.98-18.75-3.99-.16-.21.76-.94,1.11-.86l9.5,2.22c2.72.8,5.67.51,8.14,2.63Z"/>
  <path class="st0" d="M92.8,200.48c-.55.43-2.05.13-2.62-.41-.46-.44-.91-1.39-1.09-2.26-.3-1.43.18-3.27,1.81-3.47,1.33-.16,2.56,1.19,2.86,2.12.45,1.41.54,2.84-.96,4.02ZM92.26,198.82c.33-.62.48-1.48.36-1.93-.1-.37-1.05-.93-1.33-.67-.61.56,0,2.32.96,2.6Z"/>
  <path class="st0" d="M112.75,204.2c.52,1.57.16,3.61-1.63,3.84-1.33.17-2.26-1.15-2.56-2.12-.39-1.25-.17-2.9,1.03-3.56,1.41-.78,2.67.36,3.16,1.84ZM111.05,206.38c1.26-.52,1.1-1.25.88-1.84-.13-.36-.93-.72-1.38-.65l.51,2.49Z"/>
  <path class="st0" d="M235.64,258.96c-1.3.37-2.23-1.1-2.44-1.9-.29-1.15-.15-2.66,1.11-3.11s2.17.84,2.5,1.67c.45,1.14.4,2.89-1.18,3.34Z"/>
  <path class="st0" d="M251.79,260.82c1.16,1.78.48,3.84-.62,4.17-.49.15-1.5-.3-1.83-.78-.86-1.24-.75-3.1.47-3.93.4-.27,1.72.13,1.98.54Z"/>
  <path class="st0" d="M349.18,304.74c-.63.04-1.4-1.07-1.46-1.64-.07-.66.24-1.82.96-2.01.77-.19,1.7.57,1.85,1.15.2.75.2,2.4-1.35,2.49Z"/>
  <path class="st0" d="M361.54,308.99c-1.01.42-1.55-.7-1.71-1.39-.14-.6-.07-1.81.88-1.99.69-.13,1.43.74,1.49,1.25.07.57-.18,1.94-.66,2.13Z"/>
</svg>