<?xml version="1.0" encoding="UTF-8"?>
<svg id="Layer_1" xmlns="http://www.w3.org/2000/svg" version="1.1" viewBox="0 0 615.13 311.42">
  <!-- Generator: Adobe Illustrator 30.5.1, SVG Export Plug-In . SVG Version: 2.1.4 Build 3)  -->
  <defs>
    <style>
      .st0 {
        fill: #46676e;
      }
    </style>
  </defs>
  <path class="st0" d="M133.6,193.36c.96-1.99,9.9-15.86,9.07-16.63-1.72-.24-1.95-.04-2.91,1.24-2.21,2.93-4.98,6.71-6.17,10.09-1.33.2-.75-1.72-.58-2.46.34-1.45,3-7.68-.98-7.05-3.06.49-6.53,12.09-9.4,13.29-2.89,1.21,1.3-3.66.02-3.77-4.09,2.33-9.88,7.05-14.19,8.49-4.13,1.38-8.06.84-12.43,3.44-2.83,1.68-4.83,5.26-7.84,6.53-4.14,1.74-10.26,2.04-14.72,3.42-6.44,2-16.15,8.43-21.87,9.13-5.36.66-11.91-.54-17.41-.03-2.51.23-4.57,1.83-7.15,1.5-1.78-3.32,2.17-3.86,3.52-5.5,1.49-1.81,2.66-5.26,4.77-6.96l-9.06,1.89c-.83-1.32,2.95-6.8,3.77-7.19,1.47-.7,3.24-.15,4.74-.55,11.28-3.07,17.76-9.82,27.27-15.06,2.11-1.16,11.17-5.53,12.81-5.06,1.04.3,1.52,1.82,3.2,2.15,3.8.75,13.93-.43,17.54-2.1,2.34-1.08,5.75-5.4,8.16-5.4,3.57,0,6.85,7.67,12.02,7.48,3.03-.11,11.34-6.09,15.06-7.67,2.07-.88,9.67-2.71,10.37-3.24,1.39-1.06.22-4.81,1.67-6.27,1.36-1.37,8.84-1.96,11.96-3.54,3.57-1.8,6.18-6.81,9.34-6.47,2.91.31,2.21,1.96,6.65.55,4.41-1.4,14.02-8.2,16.8-11.93,3.33-4.45,3.68-10.37,9.32-12.61,12.63-5.01,10.04,4.61,16.86,10.72,12.19,10.93,28.22.28,39.56-6.5.84-.5,1.08-1.72,1.78-2.17,5.49-3.47,16.14-2.52,22.06-5.71,2.5-1.35,3.54-4.85,5.42-6.68,7.08-6.87,18.31-7,23.75-11.78,1.37-1.21,2.46-4.08,3.62-5.07,1.26-1.06,3.38-1.4,5.08-2.86,3.01-2.57,6.27-7.99,9.31-10.72,6.43-5.78,14.23-9.57,20.9-16.53,4.5-4.69,12.27-17.87,17.93-19.11,2.97-.65,5.59.3,8.95-.88,3.07-1.07,4.77-4.29,7.85-5.01,3.96-.93,7.23,1.57,11.2-.14,2.53-1.09,2.44-3.59,4.01-5.06,2.17-2.05,7.53-4.08,10.17-6.46,2.45-2.21,6.55-9.51,9.84-9.83,1.25-.12,2.95.82,4.53.83,1.71.02,3.4-.74,4.95-.51,4.76.73,5.36,7.8,7.92,10.99,1.45,1.8,4.09,3.08,5.95,5.39,7.33,9.04,11.48,20.69,20.47,30.18,6.49,6.86,24.45,17.31,27.62,24.54,2.11,4.8,2.49,10.67,4.87,15.54,6.47,13.25,34.4,24.63,47.29,35.12,6.26,5.09,18.39,18.23,26.92,18.52,2.4.08,3.7-2.83,5.56-1.92l15.91,18.92,12.08.78-5.28,5.3c-3.78,4.81-7.24,9.83-11.38,14.36-.73.8-.67,3.03-2.24,1.5l12.48-17-.8-2.28c-4.86-.99-13.85,16.64-18.49,18.9l12.04-17.87c.36-2.03-11.53-13.96-14.04-15.3-2.55-1.37-6.39-1.6-9.34-2.75-10.64-4.15-17.74-13.57-26.53-20.34-14.76-11.36-39.49-20.37-47.17-38.26-1.73-4.02-2.41-9.04-4.58-12.8-4.29-7.42-17.24-13.08-23.41-19.68-9.2-9.85-15.78-22.04-23.82-32.12-2.51-3.16-5.95-4.44-7.88-6.48-3.73-3.96.33-15.17-9.89-7.48-3.21.36-1.39-3.68-5.44-1.73s-19.79,26.95-22.26,32.17c-2.24,4.73-3.28,12.99-5.92,16.01-1.74,1.99-4.43,3.42-6.43,5.67-6.54,7.34-13.17,14.64-19.65,21.93-4.19,4.71-6.54,12.95-11.94,16.03-2.07,1.18-6.19,1.67-7.69,2.89-1.82,1.48-5.6,10.24-7.98,13.19-2.36,2.93-12.12,12.12-15.16,14.32-.66.48-2.29,1.9-2.96.82l3.78-11.72,1.87,5.28c8.45-7.18,16.69-14.59,17.78-26.45,12.3,5.26,15.59-10.33,17.17-19.49.69-3.98.49-8.64,1.16-12.45,1.39-7.99,5.58-15.71,4.34-24.01-2.19-.42-1.2.66-1.7,1.67-3.12,6.29-5.89,13.21-6.62,20.26-1.34.18-.75-1.71-.66-2.55.61-5.76,3.1-11.54,3.9-17.28.14-.98,1.43-1.5-.58-1.33-4.58,4.57-6.97,10.3-7.96,16.62l-.75-3.77c-2.08-2.16-5.42,6.23-5.83,7.39-1.35,3.76-2.27,8.26-2.49,12.26-1.4.12-.74-2.46-.65-3.3.31-3.02,1.51-5.87,2.17-8.79-1.49.82-3.36.43-4.47,1.95-1.46,1.99-4.31,9.58-5.13,12.25-3.3,10.81-4.11,22.5-7.03,33.43-1.37-.34-1.45-1.22-1.37-2.43.17-2.65,2.1-7.23,2.68-10.24.66-3.39,4.87-25.62,3.98-26.63l-3.58,2.84-6.25,27.4c-1.37.14-.78-2.52-.67-3.31,1.09-7.6,5.2-15.81,5.2-23.9-3.47,3.76-6.77,10.96-8.68,15.89-1.25,3.22-2.26,7.13-2.66,10.57-1.31.19-.79-1.77-.67-2.56.48-3.32,2.66-7.82,2.84-10.67.04-.59-.33-2.83-1.4-2.64l-4.55,16.63-2.25-.77c-3.56,8.21-6,16.85-8.11,25.55-.8,3.31-4.38,17.24-4.02,19.41.21,1.29.86,2.15,2.28,1.91l7.45-36.02,3.89-10.09c-.16,6-11.18,45.59-9.06,47.63,1-.03,2.12.24,3.05-.35,2.09-1.34,2.38-15.43,3-18.54l1.5,3.02-.74-6.8c1.45.64,1.61,4.37,1.57,5.66-.11,3.75-4.07,17.35-2.96,19.16l6.68,2.07,8.3-15.55c-.28,7.57-4.63,15.85-5.21,23.16-.13,1.6-.51,2.94,1.06,4.04,1.02-.71,1.28-1.75,1.69-2.83,2.43-6.51,4.1-14.74,6.86-21.11.27-.63,2.61-6.09,3.92-4.76l-9.86,30.61.79,1.51c1.83,1.27,4.5.7,6.26,1.3.28.1,3.98,2.84,4.12,3.06.66,1.02.64,4.19,1.34,5.85.98,2.34,4.61,4.17,1.52,6.78-5.03-2.86-3.56-10.19-8.27-12.88-4.08-2.33-7.56.38-11.75-5.63-2.48-3.55-.33-3.98-1.05-6.45-1.08-3.69-8.18-8.53-11.78-9.46-4.61-1.18-20.06-1.25-21.18-7.55-.29-1.62.37-3.65-.13-5.16-.37-1.13-2.37-1.58-3.26-2.79-1.81-2.43-4.59-11.01-6.99-11.91-.93-.35-2.26.02-3.24-.54-1.68-.96-2.33-7.59-7.22-7.92-4.26-.28-17.16,8.61-23.57,9.63-7.65,1.21-17.87-1.65-22.45-8.18-1.28-1.82-3.5-9.38-5.28-8.98-.56.12-2.36,2.08-2.55,2.76-.33,1.15-1.06,10.58-.87,11.89.71,4.85,5.09,7.36,6.69,10.72,1.33,2.8,1.33,5.99,2.27,8.89,4.44,1.68,9.69,3.04,13.95,5.12,2.07,1.01,9.5,5.28,10.75,6.63,2.33,2.52,1.46,6.8,2.75,9.35.69,1.37,2.33,1.53,3.06,2.99.92,1.85.42,4.77,1.74,6.57.55.75,1.95,1.04,2.23,1.53.5.84-1.68,4.84,3.03,6.04-.91,4.69,2.05,6.96-2.27,10.63-.7.59-9.58,5.88-10.45,6.23-2.55,1.02-4.82-.83-8.11.16-2,.6-4.3,3.26-6.25,4.33-7.6,4.16-17.64,8.63-24.67,13.89-5.26,3.94-8.54,11.56-14.05,16.19-2.53,2.13-5.95,3.72-8.61,5.75-1.98,1.51-12.85,11.43-14.43,10.13l.91-6.22,15.73-34.59.4,2.29c-4.42,9.4-9.45,18.76-13.08,28.5-.29.78-3.05,7.2-.57,6.24,6.23-2.42,12.56-22.7,15.37-29.23,1.41-3.28,3.23-6.99,5.05-10.07,1.03.49-.12,1.92-.37,2.65-3.36,9.53-8.39,18.62-11.35,28.34l7.38-3.95c2.24-10.83,8.28-20.53,12.28-30.82,1.42-.15.63,1.53.39,2.27-2.3,7.03-8.32,16.42-9.4,23.11-.14.89-.58,3.23,1.06,2.57l8.32-11.34,12.49-31.74c1.41-.17.59,1.54.41,2.3-1.11,4.71-10.04,22.64-9.49,25.27l1.54.83c5.16-1.26,10.91-21.41,15.47-25.37l.37,4.54-1.49-.76c-.24,4.08-5.08,9.56-4.56,13.23,4.92.59,8.07-7.92,9.96-11.96,5.6-11.96,10.04-25.14,15.74-37.15-.71-.77-1.04-1.61-2.29-.8-.89.58-4.35,8.65-5.43,10.48-.47.8-.31,2.57-1.72,2.01-1.59-.63-.94-1.66-.56-2.79.63-1.84,6.11-12.34,5.46-13.08-.15-.17-1.95-.82-2.63-.01-2.21,2.64-3.69,9.12-5.61,11.64-.82,1.07-2.73.27-3.86.47-.05-1.08-.07-2.16.17-3.23.2-.87,4.56-8.72,1.72-8.85-3.09-.14-2.98,11.16-7.94,9.8l2.27-4.52-2.28-.42c-.49.21-4.97,7.31-5.32,8.31-1.32,3.78-.56,11.8-4.2,13.94-3.29,1.93-11.5,3.3-15.62,4.79-2.5.91-6.06,4-8.12,3.32-1.11-.37-1.85-1.63-3.42-1.94-5.48-1.07-8.34,1.88-12.13,2.23-2.52.23-3.85-.7-7.41.09-7.74,1.72-10.5,5.46-16.59,9.11-4.31,2.58-9.39,3.76-13.31,6.34-3.61,2.37-6.28,6.62-9.52,9.38-5.89,5.03-12.29,6.54-20.01,6.07-1.34-1.37,8.35-18.79,8.35-23.04,0-2.7-3.05-.02-3.71.84-4.99,6.53-6.94,16.66-12.19,22.96,1.33-7.24,8.07-16.18,9.07-23.05.07-.45.2-1.24-.38-1.13l-5.67,9.82,1.51-8.68c-.05-.72-1.28-.45-1.78-.27-4.91,1.84-9.82,21.69-15.24,25.58-.02-2.11,1.29-4.96,2.08-6.99.86-2.22,8.04-17.26,7.37-17.95-1.13-.14-2.15.51-2.98,1.17-3.39,2.74-7.11,15.66-9.88,19.98-1.38.19-.62-1.58-.42-2.31,1.33-4.7,5.31-9.24,4.59-14.32-5.41,5.41-7.02,13.33-13.23,18.14l10.19-20.42c1.73-1.92,4.38-1.13,6.48-1.84,1.74-.59,2.73-2.43,5.2-3.12,4.38-1.22,9.69-.49,13.86-1.26,4.89-.9,10.86-6.18,15.89-8.3,1.91-.8,4.25-.58,6.05-1.51,2.63-1.34,3.85-6.12,4.45-6.51.94-.61,5.55-.24,7.23-1.84,1.62-1.55,1.38-5.54,4.72-7.37-.74,1.54-.69,3.76-2.27,5.28,6.14,1.44,7.93-1.07,11.32-5.68,5.25-7.12,7.72-16.53,11.35-24.55-7.41-1.58-5.99,3.5-7.99,8.25-1.86,4.4-4.97,8.46-5.24,13.66-1.88,2.02-5.07,1.88-7.17,3.04ZM383.07,55.02c-1.51-.31-1.77.72-2.42,1.73-1.5,2.31-3.34,7.87-4.39,10.73-3.08,8.34-5.21,16.44-6.03,25.33,1.17,1.39,2.98-3.6,3.16-4.02,1.85-4.28,3.96-10.53,5.36-15.05.78-2.5,5.19-17.7,4.33-18.72ZM379.3,83.74c1.17.97,4.06-3.05,4.57-4.11,1.44-2.97,4.98-16.08,5.83-19.87.29-1.32.2-2.66.17-3.98-5.66,7.89-8.07,18.69-10.58,27.96ZM362.67,102.64c6.1-2.2,5.17-8.23,6.23-13.04,2.15-9.7,5.33-19.36,5.85-29.29l-5.24,12.51-6.84,29.82ZM369.46,61.07c-2.02-.38-1.31.44-1.84,1.51-7.21,14.61-9.96,31.03-13.27,46.86,4.95.35,6.52-6.13,7.77-9.99,3.89-11.92,6.43-25.89,7.34-38.39ZM289.98,172.85c2.26-9.91,4.46-19.84,6.97-29.7,1.79-7.01,5.71-16.18,6.56-22.94.18-1.43.72-3.91-.96-4.71-1.33-.64-1.35,1.3-1.66,2.07-1.48,3.67-3,8.59-4.21,12.45-4.38,13.95-7.56,28.48-9.61,42.93l2.91-.11ZM297.64,117.01c-1.81-2.02-6.1,8.12-6.43,9.06-4.65,13.24-5.61,28.64-10.16,42.06-.49,3.02,1.68,4.78,3.14,1.57l13.44-52.7ZM285.55,124.57c-1.3-1.38-3.64,4.2-3.91,4.77-1.83,3.93-9.47,26.8-7.42,29.24l2.83-2.08,8.51-31.93ZM280.25,164.63l6.81-32.51c-3.42,3.17-5.25,9.75-6.45,14.34-1.2,4.6-4.44,15.29-.36,18.17ZM275.72,135.16c-1.7-1.97-4.92,7.06-5.11,8.11-.57,3.26-.1,4.91,1.34,7.76,1.94.22,1.2.01,1.52-1.09.57-1.95,2.93-13.97,2.24-14.78ZM267.41,135.91c-1.86-.5-4.73.98-5.19,2.81-.41,1.62,2.94,11.23,4.72,4.59.5-1.88-.29-5.19.47-7.4ZM189.55,156.32c.39-4.84,5.26-8.89,4.91-13.6-3.07,4.23-5.67,8.74-8.69,13.02-.63.9-1.97,1.22-2.93,2.58-1.7,2.42-3.08,6.46-3.9,9.34l-1.86-6.83c-.86-.85-.72-.91-1.51.05-1.63,1.96-2.78,6.18-4.28,8.57-2.42,3.85-5.87,7.33-8.11,12.29-1.3,2.87-3.45,7.99,1.78,7.12,2.73-.45,2.39-4.15,3.54-6.34,1.62-3.09,4.39-6.55,6.31-9.57l-4.16,12.84c1.43,1.48,7.01-8.33,7.94-9.06l-.76,5.28c2.59-2.69,8.17-4.84,10.22-7.93,1.37-2.06,1.14-4.25,2.11-6.2,3.47-7,9.04-14.61,7.33-22.91l-7.93,11.34ZM199.36,152.54c-2.16-.4-1.21.6-1.71,1.66-2.37,5.03-6.43,14.08-8.1,19.15-.66,2.01,2.88-.07,3.76,1.13-3.21,11.73-12.08,21.67-14.36,34,5.89-.51,4.74-4.02,6.21-7.77,5.42-13.78,11.24-27.43,17.13-41.01l-1.41-1.11-4.54,6.8c1.15-4.31,4.6-8.19,3.01-12.85ZM203.91,167.66c-.21-1.7.61-3.27.74-4.92.07-.83.55-2.82-.74-2.63l-2.6,13.59-4.21,12.1c1.67.44,2.57-2.14,3.15-3.27,1.15-2.24,7.1-14.91,5.92-16.38l-2.26,1.5ZM170.65,163.13l-4.21-.51-.98.95-9.11,22.51-3.07,1.62c4.79,7.34,7.27-5.59,9.4-9.48,1.21-2.21,9.78-13.38,7.98-15.09ZM161.57,168.42c-1.39-1.37-2.86,3.67-3.74,4.14-.63.34-1.79-.47-2.54-.26-.9.25-5.96,9.73-6.27,11.21-.3,1.41.34,2.59.14,3.84-.19,1.16-2.91,4.13-.79,4.5,3.51.6,4.56-6.02,5.52-8.08,2.42-5.18,5.24-10.2,7.69-15.36ZM197.1,178.25c-1.2-1.46-3.36,4.49-3.6,5.09-2.13,5.28-4.71,13.06-6.38,18.57-.36,1.2-.84,2.25-.59,3.56,5.99-7.61,7.73-18.08,10.57-27.21ZM99.58,194.88c5.38.06,12.86-2.03,12.51-8.32l-7.72-5.95c-1.05-.29-1.46-.18-2.13.67-.96,1.2-3.29,12.96-2.65,13.6ZM185.76,182.78l-2.87,1.28-9.22,25.17,2.32-.47c1.17-3.49,11.56-24.16,9.77-25.99ZM174.42,191.85c-.35,4.62-5.08,10.33-6.67,14.88-.2.57-1.54,2.66.24,2.49,2.91-.28,12.05-21.59,13.24-25.3-.06-.76-.94-.43-1.54-.03-.77.52-4.27,6.42-5.27,7.96.05-.6.31-2.12-.37-2.26-1.41.99-2.72,1.56-3.72,3.08-1.65,2.5-5.79,11.01-7.12,14.05-1.4,3.2.57,3.33,2.55.27,3.11-4.81,5.54-10.34,8.67-15.14ZM98.06,184.3l-15.87,19.64,3.05-1.31c3.15-6.82,11-11.03,12.82-18.33ZM74.4,203.72c.66-.74.73-1.99,1.4-2.75,3.77-4.35,9.18-9.42,10.17-15.17l-18.13,21.56c-1.48,3.41,6.13-3.16,6.56-3.64ZM233.39,186.56c-1.36-1.48-5.73,6.94-6.18,7.8-3.37,6.51-7.57,16.78-10.27,23.75-.53,1.37-3.11,8.54-2.44,9.27,1.42.07,3.45-1.14,4.12-2.3,1.41-2.44,3.14-10,4.59-13.55,1.27-3.09,11.15-23.91,10.18-24.97ZM67.82,189.59c-1.56-.16-2.67,1.01-3.79,1.87-2.68,2.08-9.91,10.25-12.47,13.23-1.22,1.42-8.51,10.08-7.17,11.35,5.32.86,8.17-6.35,11.36-10.18,1.38-1.66,13.5-14.82,12.07-16.27ZM166.86,191.1c-1.57-.32-2.95,2.44-3.65,3.53-2.87,4.49-5.12,9.84-8.58,14.11l.53,2.01c6.01-1.47,6.22-8.65,8.77-13.17.49-.87,1.93-.92,2.17-1.75.37-1.26-.34-3.25.76-4.73ZM192.03,202.66c2.03-1.26,3.4.06,4.58-3.37.9-2.65.82-5.47-1.39-7.43-.77,0-5.38,11.07-4.54,12.83.69-.4.83-1.71,1.35-2.04ZM146.46,213.02c2.17-1.5,4.51-2.62,6.23-4.72,1.1-1.34,7.47-11.43,7.78-12.64.39-1.51.67-2-.79-3.04l-3.28,3.51-9.95,16.88ZM223.55,221.33c3.69-9.07,10.81-18,11.35-27.96l-8.69,15.11c-.69,3.62-3.65,8.32-4.16,11.73-.22,1.47.3,1.2,1.5,1.11ZM57.24,194.88l-7.07,3.88c-1.88,1.3-9.95,11.66-11.09,13.86-.63,1.21-1,1.97-.73,3.42,2.17,2.26,7.77-7.81,8.75-9.01,3.34-4.07,7.27-7.7,10.14-12.15ZM152.49,194.88c-1.96-.46-1.32.58-1.95,1.43-4.55,6.14-8.04,14.11-12.41,20.48,2.89.29,4.7-2.8,6.07-4.89,3.19-4.87,5.41-11.78,8.29-17.02ZM144.94,197.91c-1.91-.03-3.05,2.5-4.07,3.86-1.71,2.25-11.92,18.84-10.29,20.32,1.14.19,1.78-.09,2.69-.71,3.41-2.31,9.58-19,11.67-23.47ZM138.13,200.93c-1.84-.35-1.9.19-2.91,1.24-1.78,1.85-10.2,16.79-11.37,19.63-.56,1.37-1.08,2.53-.83,4.08,1.61.35,1.72-.82,2.4-1.75,2.23-3.08,4.88-7.92,6.8-11.34,2.12-3.79,4.12-7.89,5.91-11.84ZM228.1,220.58c2.8,2.75,8.76-13.66,8.3-15.87l-3.91,5.54-4.4,10.34ZM118.47,227.38l9.56-17.38-1.24-3.79c-5.88,5.51-7.39,13.48-9.81,20.8l1.49.36ZM240.95,207.73c-1.64-.65-2.45,2.93-2.64,3.78-.29,1.28-.58,2.44-.38,3.78,3.31-.25,3.03-5.18,3.02-7.55ZM58.75,208.49c-1.45-.32-1.81.74-2.57,1.58-.65.72-4.76,5.41-4.22,5.98,2.75-2.07,7.54-3.09,6.79-7.56ZM113.56,214.55c-6.5,7.02-8.08,16.57-12.15,24.9-.85,2.58,2.19,2.95,3.9,1.61,1.47-1.15,4.09-11.27,5.03-13.87.31-.86,6.83-12.91,3.22-12.64ZM108.65,216.05c-1.55-.1-2.79.8-3.62,2.05-2.97,4.5-8.46,17.2-10.64,22.62-.44,1.1-1.1,2.01-.85,3.3,1.16-.66,2.7-1.11,3.73-1.93,5.08-4.04,8.1-19.84,11.38-26.04ZM116.97,219.83c-1.95-.39-1.33.41-1.9,1.47-1.32,2.45-5.71,12.57-5.7,14.8,0,1.25.1,1.85,1.17,2.61,5.29-4.96,4.05-12.68,6.43-18.88Z"/>
  <path class="st0" d="M556.19,255.35c-6.62-7.3-8.53.79-13.59,4.54l4.51-7.94c-1.23-1.71-3.49-1.49-4.94-.42l-5.62,6.08c.7-3.17,3.08-6.43,1.89-9.82l-8.69,9.06c-.34-3.45,8.16-9.92,5.99-12.78-2.57-3.39-9.69,8.7-12.03,9.76,2.24-5.56,7.17-9.63,9.23-15.33.35-.96,1.67-3.9-.55-3.58-3.73.67-11.82,17.71-15.49,20.42,1.41-3.4,3.34-7.13,5.16-10.33,2.36-4.16,8.46-10.33,5.8-14.61l-26.08,32.5c5.53-13.61,19.01-23.43,25.07-36.53.89-1.92,2.6-4.04.25-5.79-12.57,12.56-20.9,28.52-32.88,41.56l9.65-15.66c4.92-7.25,11.01-13.89,15.92-21.13.98-1.45,5.57-8.29,5.78-9.23.22-.98-.37-4.38-1.86-3.11-.09.08-.19,1.28-.75,1.87-10.72,11.27-18.69,23.87-28.37,35.92-.51-2.02,1.42-5.29,2.52-7.31,4.62-8.45,10.73-13.63,16.32-20.73,1.76-2.23,14.24-20.92,14.05-22.22-1.69-2.43-5.18,2.06-6.44,3.38-6.27,6.56-10.37,15.07-16.99,21.18l10.71-16.88c4.36-4.78,10.09-12.15,11.8-18.44.27-.99.85-2.83-.95-2.47l-15.13,18.13c-.57.11-.48-.72-.39-1.14.51-2.38,7.64-12.77,9.53-15.42,1.65-2.33,6.85-7.01,6.91-9.37.02-.6-.49-2.62-1.67-2.03-1.34.67-6.09,10.57-9.45,11.33l6.78-11.72c-.91-1.23-.99-1.05-2.29-.81-4.36.8-7.03,7.2-10.54,9.51l5.28-10.58c-3.01-.59-9.48,8.26-10.2,8.3-1.26.07-.69-1.43-.58-2.05.17-.95,3.54-8.39.59-7.74-2.53.55-4.09,6.09-5.3,8.34-.57,1.06.06,1.86-1.89,1.47.07-2.27-.33-4.59.34-6.83,1.83-6.16,8.59-7.09,9.49-15.46.16-1.49.7-4.02-1.51-3.41-.69,6.3-8.06,11.12-12.09,15.88l10.43-14.89c.84-2,3.88-5.87.91-7.04-3,5.62-9.65,9.12-11.36,15.87l-2.24-1.13c3.59-4.71,8.78-10.52,11.63-15.57,1.1-1.95,3.75-8.41-.21-5.88-.97.62-3.08,8.43-5.38,8.97.29-3.76,2.52-6.79.74-10.58l-3.39,1.5c-.96-1.31,3.42-6.34,4.71-6.69,5.23-1.42,9.84,6.93,10.61,11.03.93,4.92-2.64,20.05-.65,22.58,2.03,2.59,16.9-.47,19.57,4.62,2.21,4.21-.08,8.97.16,13.43.17,3.04,2.07,7.03,2.01,9.73-.13,5.48-5.55,6.4-2.56,13.53,2.14,5.1,3.95,10.05,6.25,14.92,3.43,7.27,5.01,15.93,12.69,19.82,3.72,1.89,10.04,1.55,8.82,7.42Z"/>
  <path class="st0" d="M444.3,130.62c2.57,3.23,3.08,7.67,6.04,10.22,2.51,2.17,10.42,4.59,11.34,6.24,1.93,3.46-1.18,7.3-2.07,10.54-.49,1.76.26,3.8-.54,5.51-.7,1.49-4.2,2.35-5.63,3.44-1.93,1.46-3.59,3.61-5.73,4.86-2.68,1.57-1.66-2.03-1.01-3.28,1.07-2.04,6.24-8.54,6.55-10.11.24-1.23-.67-2.68-.58-4.26.16-2.77,2.19-4.86,2.29-7.57l-3.08-.91c-7.11,10.05-5.91,26.26-17.86,32.09-6.57,3.21-9.47,1.36-14.04,8.64-2.06,3.28-3.82,9.64-6,12.14-1.41,1.62-3.49,2.14-5.22,3.85-2.29,2.26-5.57,11.06-8.67,10.97-2.78-.07,1.6-4.55,1.74-5.05.52-1.82-.12-3.94.24-5.81,1.7-9.03,15-34.17,19.92-43.58s10.31-17.53,15.19-26.39c1.45-1.67,1.35-.45.79.79-9.7,21.45-22.09,42.15-31.4,63.86l-.03,1.84c1.52-.55,3.28.06,4.55-1.04,3.32-2.86,5.92-13.3,9.47-17.82,1.21-1.54,3.55-2.41,4.5-4.57l.38,2.27c1.58,1.66,5.69-5.33,6.45-6.78,4.41-8.33,7.28-19.02,10.17-28-7.03,7.01-9.86,17.44-13.61,26.45-1.49.11-.58-2.28-.41-3.05,1.95-8.52,9.92-22.21,13.63-30.97.55-1.3.99-2.64,1.15-4.06l1.5-.47ZM448.09,141.2l-2.69.71c-5.91,9.67-8.32,21.85-12.43,32.55,1.06.1,2.01.08,3-.39,4.97-2.35,13.59-26.58,12.11-32.86Z"/>
  <path class="st0" d="M486.84,224.16c1.74,1.61,6.47,1.69,8.78,1.81,1.51,3.2.98,7.01-.77,9.99-3.39,5.78-12.46,4.82-17.31,9.91-3.98,4.18-6.37,13.37-10.22,18.5-4.13,5.5-13.32,10.19-19.94,11.81-4.34,1.07-11.06.66-14.96,2.42-2.47,1.12-7.67,6.92-11.31,9.1-3.36,2.01-7.67,4.21-11.57,4.68,3.89-3.49,8.77-5.8,13.21-9.09,3.71-2.74,6.36-7.24,11.54-8.11,2.47-.42,5.42.44,7.43-.88,9.7-10.92,18.92-21.99,27.17-34.07,1.01.85-.57,2.64-1.02,3.52-2.74,5.3-7.97,13.11-11.83,17.66-1.99,2.34-9.35,8.38-10.1,10.32-.19.5-.43,1.79.27,1.78l4.69-1.75,20.25-25.48c1.18.67-.25,1.71-.67,2.35-2.27,3.47-4.07,7.37-6.18,10.45-2.28,3.32-6.59,6.52-8.64,10.26,1.6.47,4.78-1.43,6-2.32,4.27-3.13,8.68-13.65,11.54-18.7,3.54-6.28,8.69-11.85,9.68-19.42-1.39-1.55-6.46,7.94-7.53,8.71-.96.69-1.85.69-1.49-.73l5.32-10.95,3.36-.04-.02-5.34c-.93-1.25-1.13-.35-1.89.41-2.78,2.78-4.73,7.57-7.96,10.19-1.45-5.39,9.87-14.69,9.87-18.52.01-8.82-13.1-3.67-17.79-7.58-1.92-1.6-5.31-11.91-4.55-14.72,3.82,2.91,3.91,8.35,6.34,12.17,4.4,1.65,10.29.61,14.32,3.06,7.46,4.54,2.01,14.91,5.98,18.59ZM490.42,229.65c-1.17-1.38-6.48,7.7-5.28,9.06,4.76-1.33,6.09-4.35,5.28-9.06Z"/>
  <path class="st0" d="M311.26,231.16c-.95-.85,7.06-10.93,7.95-11.33.4-.18,1.28-.14,1.12.37l-3.01,4.55,1.11,1.11,6.43-6.8c-.36,2.2-2.79,5.97-4.5,7.26s-2.58.05-3.8,1.44c-.67,1.64,2,1.22,2.68,1.17,5.64-.43,11.54-10.55,15.45-14.41l-8.2,14.87.97,1.81,2.18.64c2.19-.57,11.17-19.12,14.12-16.55-3.2,5.22-15.94,16.82-13.04,23.24l1.31.93,17.77-22.67c-1.03,2.7-2.95,5.48-4.51,7.95-3.07,4.86-8.11,10.47-10.63,15.09-1.26,2.32-.41,3.82,2.29,4.17l15.13-19.65c-1.12,5.5-5.78,9.18-8.62,13.68-1.14,1.8-5.25,7.53-1.57,7.52,2.11,0,6.79-8.72,9.43-9.86l-5.29,10.19,3.66,1.01,5.41-6.66-3.78,7.19c3.32,5.97,3.73,1.08,5.64-1.18,2.42-2.86,5.53-5.41,7.97-8.28.01,2.73-10.07,11.97-8.3,13.6.86-.08,1.85.18,2.66.06,1.12-.16,5.03-6.35,6.43-7.97,3.3-3.85,7.07-7.37,10.07-11.48l5.78-4.79c.21,1.24-.59,2.03-1.19,2.96-3.87,5.87-14.79,14.92-17.29,20.51-.46,1.02-.53,1.9-.41,2.99l6.05,1.14c-8.62,3.23-18.16-4.6-26.42-6.84-6.71-1.83-9.39.72-13.3-7.11-1.01-2.02-1.07-4.26-2.25-6.06-.44-.67-4.22-3.8-4.51-3.8h-10.96Z"/>
  <path class="st0" d="M261.36,237.97c-3.29,8.98,3.88,8.93,9.34,12.96,3.06,2.26,7.72,7.45,10.55,9.48,1.62,1.16,4.74.63,6.61,1.34l.62.84c-.7,2.03-.77,3.67.86,5.27,1.95,1.23,3.96-2.19,6.42-.42,2.32,1.67-5.87,5.13-9.64,3.03-1.4-.78-.84-3.58-2.44-4.53-2.72,2.66-7.57,1.03-5.66-3.4-3.05-1.64-4.26,4.06-6.55,5.6-1.75,1.17-3.95-.62-5.41.2-.91.52-4.24,7.84-6.56,7.41-1.19-.22-1.03-.91-.39-1.89,1.19-1.81,4.15-3.79,5.29-6.05l-2.27-.38c-1.96-1.88,9.69-9.53,7.2-12.86-1.09-1.69-4.02,1.02-4.92,1.91-2.02,2.01-3.06,5.42-5.29,7.17.1-4.55,4.94-8.25,5.53-12.25.15-1.02.87-1.08-.62-2.1l-7.93,8.3,3.08-7.17-.39-1.19c-6.82-1.37-2.96-11.07,2.59-11.29ZM269.68,262.91c.98,1.03,8.34-5.09,4.11-6.03-2.57-.57-3.9,4.06-4.11,6.03Z"/>
  <path class="st0" d="M280.97,219.87c.11,5.57,2.61,8.51,8.37,7.51l.73,4.18c2.55.76,5.21.96,7.62,2.2,1.84.94,4.05,3.86,5.02,4.08,1.55.36,4.26-1.4,6.17-.53,1.53,2.46.21,5.88,1.25,8.2,1.35,3.02,7.84,5.21,8.68,9.08-.86.72-11.38-4.93-12.79-6.48-3.78-4.16-1.43-7.52-10.13-6.28-1-4.22-4.71-2.79-7.08-5.62-1.16-1.38-2.01-5.42-3.27-6.18-1.34-.81-3.56-.15-5.08-1.36-1.8-1.44-2.83-6.56-2.47-8.86l2.97.05Z"/>
  <path class="st0" d="M413.32,84.51c-4.79,7.85,3.81,11.04,7.87,16.69,2.06,2.87,4.94,10.28,6.91,11.99,1.63,1.41,4.7,1.43,6.02,3.82l-.78,1.51c-4.82,0-6.22-3.9-9.16-6.71l-5.56,3.68,3.78-7.95c-2.86-6.04-3.47.02-5.74,2.59-.75.85-1.15,1.87-2.58,1.57.59-4,5.18-6.28,4.53-10.58-4.52-.89-5.02,4.39-8.3,6.04-.75-3.9,7.16-5.53,3.38-9.07-2.7-.74-4.24,5.14-6.41,6.04-.79-3.18,2.85-6.13,3.01-8.75.23-3.62-6.43-9.88,3.03-10.89Z"/>
  <path class="st0" d="M395.92,113.23c.81.81-6.61,9.98-7.22,12.12-1.11,3.89,1.13,10.9.62,12.61-.91,3.01-5.99,10.16-8.51,12.32-.58-3.21,6.96-11.09,5.22-13.54l-3.01-1.32,1.62-6.69-2.32-2.26c.34-1.47,9.21-10.28,10.95-11.73.85-.71,1.22-1.83,2.64-1.51Z"/>
  <path class="st0" d="M147.97,275.77c5.99-14.12,12.74-27.97,20.27-41.33,1.01-1.79,2.27-4.32,3.9-5.54-5.3,11.81-10.81,24.92-16.99,36.3-1.94,3.57-4.35,7.64-7.19,10.57Z"/>
  <path class="st0" d="M318.82,192.6c-1.52-1.58,10.93-27.31,11.96-31.51l9.2-19.14c-3.96,13.54-10.77,26.06-15.47,39.32-.32.91-2.71,14.4-5.68,11.32Z"/>
  <path class="st0" d="M343,164.63c-1.42.15-.63-1.54-.38-2.27,1.21-3.7,3.26-8.15,4.8-11.84,2.83-6.79,6.08-14.35,9.31-20.93.89-1.82,2.04-4.56,3.67-5.77.36,2.88-1.07,5.49-2.13,8.07-4.58,11.08-10.87,21.56-15.26,32.75Z"/>
  <path class="st0" d="M160.82,237.97c1.58-.08.44,2.12.16,2.81-4.67,11.52-12.31,24.3-18.69,34.97l-.06-2.31,18.59-35.47Z"/>
  <path class="st0" d="M408.03,172.2c3.65-9.11,9.28-17.42,13.21-26.48l8.7-14.34-14.72,30.25-7.19,10.57Z"/>
  <path class="st0" d="M414.82,128.35l-15.11,29.48c2.54-8.62,7.17-21.31,13.15-28.06.64-.72,0-1.92,1.96-1.41Z"/>
  <path class="st0" d="M330.92,175.98l15.86-37.8c-1.43,7.8-5,15.89-8.18,23.19-2.1,4.83-4.2,10.83-7.69,14.61Z"/>
  <path class="st0" d="M373.51,247.31c-.62.56-.71,1.93-1.76,2,.26-4.2,5.27-7.43,7.94-10.57,5.26-6.2,10.19-12.74,15.48-18.91-1.19,3.94-4.35,7.64-6.83,10.93-4.53,6-9.3,11.53-14.83,16.56Z"/>
  <path class="st0" d="M401.22,139.69l-.85,3.3-11.99,23.15c.81-4.52,2.57-9.16,4.39-13.36,1.13-2.59,4.09-9.05,5.55-11.08.74-1.04,1.36-2.27,2.9-2.01Z"/>
  <path class="st0" d="M463.96,213.78c.95.94-8.86,14.23-10.14,15.95-.63.84.01,1.88-1.95,1.43-1.71-2.22,9.75-19.7,12.09-17.38Z"/>
  <path class="st0" d="M130.56,275.76c-1.41.14-.75-2.49-.57-3.22,1.54-6.08,5.97-15.04,10.4-19.46-1.46,7.9-6.96,15.14-9.83,22.67Z"/>
  <path class="st0" d="M151.74,246.29l-14.72,27.23-1.9,2.25c3.13-7.27,6.46-14.83,10.45-21.67.52-.9,4.93-9.1,6.17-7.8Z"/>
  <path class="st0" d="M386.09,160.1l-1.49-.36c2.61-7.49,5.08-16.21,11.32-21.56l-9.83,21.92Z"/>
  <path class="st0" d="M465.48,90.55c.62.57-7.31,15.55-9.06,13.6,1.1-4.95,2.84-13.57,9.06-13.6Z"/>
  <path class="st0" d="M228.85,250.82c.87.82-8.21,16.26-10.57,17.38,1.5-4.81,4.6-12.15,7.66-16.14.97-1.27,1.17-1.49,2.91-1.24Z"/>
  <path class="st0" d="M467.74,101.14l-10.57,14.36c-.78-2.71,8.34-16.46,10.57-14.36Z"/>
  <path class="st0" d="M223.55,273.5l-1.49-.37c4.13-7.39,6.46-16.38,12.84-22.31l-11.34,22.68Z"/>
  <path class="st0" d="M231.87,275.77c-1.22.06-1.7.37-1.5-1.12.34-2.48,3.21-5.68,3.64-8.47l6.18-10.07c-.88,7.32-6.99,12.61-8.32,19.65Z"/>
  <path class="st0" d="M317.3,216.81l-3.83,6.19-6.75,5.14c-.71-.81,7.58-12.22,10.58-11.33Z"/>
  <path class="st0" d="M441.3,226.63c1.27-5.71,6.62-10.85,10.57-15.12-1.18,5.63-6.64,10.96-10.57,15.12Z"/>
  <path class="st0" d="M408.79,151.78c2.65-6.83,5.52-14.35,10.57-19.66-2.64,6.74-6.05,14.01-10.57,19.66Z"/>
  <path class="st0" d="M311.26,216.05l-10.58,10.58c-.43-5.53,5.93-9.18,10.58-10.58Z"/>
  <path class="st0" d="M125.29,274.25c.25-4.59,2.26-10.93,5.28-14.36-.84,4.55-1.35,11.53-5.28,14.36Z"/>
  <path class="st0" d="M458.3,84.52l-.38,7.92c-.49,2.99-2.75,2.04-3.47-.37-.81-2.7,1.92-5.82,3.85-7.55Z"/>
  <path class="st0" d="M453.38,79.21c.79,1.95.13,8.89-2.63,8.31-3.09-.65.63-9.75,2.63-8.31Z"/>
  <path class="st0" d="M339.22,120.03c-1.36.17-.73-1.69-.66-2.54.16-1.89,1-3.96.77-6.04l2.91-13.33-3.02,21.92Z"/>
  <path class="st0" d="M448.83,226.62l-1.49-.37c1.44-1.57,4.95-11.39,7.16-10.97,1.4.27.86,1.02.42,1.9-1.53,3.05-5.21,5.82-6.09,9.43Z"/>
  <path class="st0" d="M293.87,224.35c.96-1.04,9.58-11.66,10.58-10.58.33,1.42-.79,1.8-1.5,2.65-1.6,1.91-4.52,4.82-6.43,6.43-.85.71-1.23,1.83-2.65,1.5Z"/>
  <path class="st0" d="M61.77,234.19c.82.85-6.04,9.73-7.55,10.58.1-1.61,6.19-12,7.55-10.58Z"/>
  <path class="st0" d="M179.72,174.46c1.98-4.86,4.13-10.41,7.55-14.36-1.68,4.86-4.23,10.37-7.55,14.36Z"/>
</svg>