<?xml version="1.0" encoding="UTF-8"?>
<svg id="Layer_1" xmlns="http://www.w3.org/2000/svg" version="1.1" viewBox="0 0 210.02 311.42">
  <!-- Generator: Adobe Illustrator 30.5.1, SVG Export Plug-In . SVG Version: 2.1.4 Build 3)  -->
  <defs>
    <style>
      .st0 {
        fill: #46676e;
      }
    </style>
  </defs>
  <path class="st0" d="M79.18,213.42c-1.68,1.76-1.26,4.75-2.74,6.67-.54.7-1.3,1.2-2.04,1.69-2.58,1.7-5.16,3.4-7.74,5.1,2.15-.03,4.36-.07,6.35-.88,1.28-.52,2.43-1.33,3.73-1.8,3.25-1.17,6.8-.08,10.06-.98,2.42-.67,4.92-1.09,7.38-1.6v20.61c0,.26.74,1.17.84,1.69,2.45.03,9.77.92,11.1-1.32,1.85-3.13-1.3-19.35-.37-20.26,3.28-.6,5.38,2.22,7.95,3.26,3.28,1.32,15.09,3.73,16.64,0l-7.22-5.06c-.06-1.24,7.1-.87,5.46-3.99-1.02-1.94-11.29-5.31-12.7-9.03,3.37-1.74,9.58,1.52,10.1-4.29l-11.55-5.49.36-1.44c4.37,1.81,10.17,2.2,13.27-1.94l-.55-2.68c-5.02-.72-9.63-.53-14.05-3.44-2.61-1.72-6.8-6.1-5.91-9.28,3.5,3.29,11.4,5.25,15.51,2.48,5.19-3.5-4.35-4.9-6.82-6.83-1.39-1.08-7.07-8.08-6.15-9.39,1.92-.5,8.02-1.92,7.18-4.64-.25-.81-3.92-2.7-5.02-3.68-.67-.6-6.75-6.6-3.29-6.13,3.8.52,7.81,2.6,6.8-3.54-2.73-.89-6.46-3.44-6.39-6.61.66-.68,12.61,4.74,12.22-1.68-.53-2.12-5.35-2.3-7.41-3.5-3.98-2.3-9.35-10.37-10.57-14.75-.55-1.99,2.32-.65,2.87-1.06l-1.44-4.33c.63-.66,15.31,5.31,17.34.36-4.47-2.88-13-4.6-15.17-10.14-.54-1.39.55-.92,1.06-1.08,2.25-.72,5.5-1.13,6.16-3.96-.31-1.29-7.72-2.17-7.23-5.43,2.65.41,9.78-.2,9.45-3.97-.26-2.9-4.72-1.53-6.88-1.86-4.01-.61-6.14-4.85-5.47-8.64,3.59.38,7.82-.15,8.35-4.35-4.57-2.38-9.8-.81-13.88-4.58-2.55-2.35-3.18-8.23-7.7-6.86-2.74.83-4.25,13.19-5.77,16.68-.93,2.14-4.36,6.14-4.73,7.58-1.39,5.48,7.43-1.99,9.26-.88l-4.33,7.96c-.76,2.42-10.4,7.4-10.12,8.66,1.03,4.69,9.53.72,11.94.38,1.1-.16,1.25-.1,1.01,1.01-1.23,5.48-6.07,14.9-9.69,19.25-2.15,2.59-5.42,3-4.71,7.22,1.52.05,3.02.09,4.53-.17,2.6-.44,5.17-2.51,7.76-2.36-1.66,7.36-7.17,8.55-11.57,13.38,5.31,2.76,8.55.29,13.74-.71.11,3.58-8.47,14.69-11.82,13.68-.83-1.35-1.92-2.32-3.05-3.24,0,1.6-.1,3.19-.33,4.74,1.16,1.43,2.27,2.87,3.22,4.38,2.99,1.82,6.38-.17,9.08-1.48,1.13,4.29-12.79,8.67-10.54,12.31,2.27,3.67,10.2-3.47,12.69-4.74.8-.41,4.7-2.16,5.09-1.78-2.07,8.06-10.64,10.23-15.91,15.55,4.34,3.84,6.86,2.13,11.57.37-.79.3-1.72,3.28-2.11,4.04-.77,1.53-1.59,3.05-2.8,4.29-2.51,2.58-5.52,4.69-8.03,7.32-1.49,1.56-2.98,3.31-3.29,5.45-.04.26-.04.58.17.74.12.09.27.11.41.12,2.39.22,4.69-.84,7.06-1.21,1.05-.17,2.12-.2,3.15-.46,1.03-.26,2.05-.8,2.59-1.71.62-1.05.55-2.48,1.41-3.35"/>
</svg>